<?xml version="1.0" encoding="UTF-8"?>
<svg id="Calque_2" data-name="Calque 2" xmlns="http://www.w3.org/2000/svg" viewBox="0 0 410.48 290.24">
  <defs>
    <style>
      .cls-1 {
        fill: currentColor;
      }

      .cls-2 {
        fill: currentColor;
      }
    </style>
  </defs>
  <path class="cls-2" d="M134.43,213.08l-.94-1.04,29.12-26.29c.28-.25.53-.46.76-.68l.13-.12,30.66-27.66c.19-.17.39-.35.57-.52l.6.4-.49-.5c.12-.1.15-.13.19-.17l1.07.9c-.09.11-.18.19-.29.28-.06.06-.14.13-.21.17-.1.11-.3.29-.51.48l-30.78,27.78c-.22.2-.45.4-.67.6l-.05.06-29.16,26.31Z"/>
  <path class="cls-2" d="M85.86,255.03l12.34-11.13c7.65-6.9,15.31-13.81,22.96-20.72l.94,1.04c-7.65,6.91-15.31,13.82-22.96,20.72l-8.82,7.96,36.54-5.93c55.24-8.96,110.48-17.92,165.71-26.89l1.5-.24c2.88-.46,5.74-.92,8.61-1.4,7.8-1.26,15.6-2.52,23.41-3.79l-45.43-133.5-3.43,3.1c-2.64,2.38-5.27,4.76-7.92,7.15l-.2.18h-.27v-.66l-.52-.52.06-.03h-.01c2.64-2.41,5.28-4.79,7.92-7.17l5.01-4.52,46.64,137.07-.81.13c-8.07,1.31-16.15,2.63-24.22,3.92-2.88.47-5.74.94-8.62,1.4l-1.5.24c-55.23,8.97-110.47,17.93-165.71,26.89l-41.22,6.69Z"/>
  <g>
    <path class="cls-2" d="M269.17,86.06c-.34,1.7-.67,3.39-1.01,5.1.13-.07.35-.18.64-.27,0,0,.01-.01.03-.01.24-.07.53-.13.85-.13.67,0,1.19.22,1.44.35-.49.21-.81.47-.99.64-.98.88-1.24,2.11-1.45,3.02-.13.56-.06.53-.17,1.01-.27,1.03-.73,1.82-1.1,2.32.13.1.54.39,1.15.35.49-.03.81-.25.95-.35-.22.82-.73,1.45-1.35,1.69h-.01c-.08.03-.18.06-.27.07-.17.03-.45.06-.8-.06-.89.01-1.94.1-3.11.32-1.3.24-2.42.6-3.3.95,0,0-.57-.59-1.47-1.49-2.28-2.32-6.65-6.76-9.02-9.08-.24-.24-.46-.45-.66-.63,0,0-2.35-4.26-4.97-4.9l-.2-3.74s-7.92,2.75-4.58-6.22l-2.82-1.77s0,3.73-4.39,1.63c0,0-2.75-1.44-2.68-3.99,0,0-3.09,2.3-3.02,2.7.18,1.05,2.12,1.13,2.61,2.65.45,1.37-.63,2.95-1.48,3.72-1.2,1.09-3.14,1.68-4.87.94-1.2-.52-1.83-1.48-2.07-1.89.38.11.92.27,1.59.39,1.13.2,1.7.29,2.15.04.8-.46,1.12-1.7.74-2.47-.15-.32-.36-.39-.87-.77-.64-.47-2.21-1.62-2.18-2.81.01-.27.1-.74.71-1.33,0,0-.27-1.3-2.16-1.62,0,0-6.03,7.19-10.35-.73l-6.75-.13s3.48,3.73-5.31,5.89c0,0-6.29.49-5.56-3.42-.54.01-1.37.13-1.97.7-.98.94-.43,2.21-1.38,3.31-.84.98-2.19,1.06-2.68,1.09-2.57.18-4.29-1.91-4.47-2.15-.06,1.58-.11,3.16-.17,4.75-1.12.94-2.23,1.89-3.37,2.82.06,1.86.11,3.7.17,5.56-.89,3.09-1.8,6.17-2.7,9.26-.29-.2-.6-.39-.92-.59-1.12-.7-2.22-1.27-3.27-1.73.07-.59.14-1.17.21-1.76-.43-.07-.95-.13-1.52-.14-.77,0-1.42.08-1.97.2.34-.35.77-.74,1.31-1.12.46-.32.89-.56,1.27-.74-.24-.07-2.03-.61-2.79-2.44-.6-1.44-.34-3.13.68-4.39.03.07.24.46.68.57.41.08.71-.11.85-.2,0,0,.47-.29.64-.88.28-.89-.56-1.83-1.03-2.61-1.06-1.75-.81-3.7-.53-5.91.28-2.19,1.05-3.9,1.65-4.99.18.29.47.64.91.8,1.1.38,2.35-.73,2.86-1.41,1.27-1.66.6-3.84.5-4.15,0,0,.85-2.95,5.68-5.55-.21.28-2.4,3.25-.84,3.32,1.63.06,5.17-3.67,5.17-3.67.22-1.16.2-2.14.1-2.92-.17-1.34-.54-1.83-.5-2.89.07-1.26.68-2.18.99-2.64,1.68-2.49,5.66-4.25,8.18-2.82.78.43,1.38,1.31,1.7,2.82,0,0,2.1,0,.99-5.1l2.75,2.88s2.29-3.41,5.63-4.53c3.34-1.1,5.63.14,5.1,3.6h3.21c-.1-.47-.28-1.08-.61-1.72-.54-1.08-1.24-1.8-1.73-2.23.38.06.81.17,1.26.35,1.66.64,2.68,1.79,3.18,2.49,0,0,3.94-5.88,9.57-3.85,5.63,2.03,3.99,5.7,3.99,5.7,0,0,1.63-.53,3.21.98,0,0,1.37.39.45-3.21-.91-3.6.92-4.05,5.11-2.35,4.19,1.69,3.07,5.04,3.07,5.04,0,0,1.84.13,1.9,2.15.21-.34.43-.78.56-1.34.36-1.55-.21-2.85-.45-3.31,2.12.68,5.32,2.15,6.97,5.25.32.59,1.55,2.93.66,3.88-.36.38-1.09.5-2.29.17.66,1.03,1.31,2.05,1.98,3.07.25-.52.87-1.63,2.15-2.46.43-.28,2.03-1.29,3.98-.84,1.55.35,2.44,1.4,2.82,1.84,1.16,1.37,1.37,2.86,1.42,3.46-1.97-1.44-3.44-1.9-4.25-2.07-.42-.1-.89-.14-1.16.11-.56.53.11,1.98.11,1.98,0,0,.46,1.77,3.41,1.56,2.95-.2,6.16,7.79,4.9,8.91-.34.39-1.52,1.83-1.09,3.09.15.45.53.87,2.85,1.91,2.67,1.19,2.82.92,3.63,1.47,2.57,1.76,3.17,6.03,2.11,6.83-.11.1-.53.21-1.35.43-.6.15-1.09.28-1.42.35Z"/>
    <path class="cls-2" d="M260.49,101.89l-1.79-1.83c-4.27-4.35-7.31-7.4-9.01-9.07-.24-.24-.45-.44-.64-.62l-.14-.18c-.61-1.11-2.62-4.1-4.53-4.56l-.5-.12-.18-3.4c-1.19.26-3.29.47-4.53-.8-1.13-1.16-1.21-3.18-.25-6.02l-1.49-.93c-.18.5-.5,1.06-1.09,1.44-.98.62-2.36.52-4.09-.31-.13-.07-2.28-1.21-2.91-3.34-.72.57-1.39,1.14-1.69,1.45.14.14.39.29.64.44.63.38,1.5.9,1.84,1.96.59,1.79-.78,3.64-1.68,4.45-1.29,1.17-3.52,1.96-5.62,1.06-.98-.42-1.81-1.17-2.4-2.17l-.89-1.53,1.69.5c.36.11.88.25,1.52.37.87.15,1.45.25,1.68.12.48-.28.67-1.13.46-1.56-.03-.07-.05-.08-.3-.26-.1-.07-.22-.15-.36-.26-.76-.56-2.49-1.84-2.46-3.38.03-.52.22-1,.59-1.45-.16-.23-.47-.54-1.1-.71-.83.87-3.32,3.19-6.18,2.9-1.88-.19-3.5-1.43-4.82-3.7l-5.13-.1c.17.5.26,1.14.05,1.83-.52,1.75-2.67,3.1-6.4,4.02-.52.05-4.13.28-5.74-1.51-.44-.49-.69-1.1-.73-1.78-.3.08-.55.22-.74.4-.32.3-.39.65-.5,1.24-.11.59-.24,1.33-.83,2.02-1.04,1.21-2.64,1.3-3.17,1.33-1.65.12-2.98-.58-3.87-1.26l-.12,3.5-1.45,1.22c-.63.53-1.26,1.06-1.89,1.59l.16,5.33-2.99,10.28-.79-.53c-.29-.19-.59-.38-.9-.57-1.03-.65-2.1-1.21-3.19-1.69l-.47-.21.19-1.59c-.25-.02-.51-.04-.76-.05-.61,0-1.23.06-1.81.18l-2.2.45,1.56-1.62c.43-.45.91-.85,1.42-1.21.05-.03.1-.07.15-.1-.69-.44-1.46-1.14-1.92-2.24-.7-1.68-.4-3.63.79-5.1l.75-.93.44,1.1h0s.08.12.21.16c.08.02.19-.04.31-.11h0s.26-.17.34-.48c.13-.42-.28-1.03-.64-1.56-.11-.17-.23-.34-.32-.5-1.19-1.95-.92-4.08-.63-6.34.23-1.83.81-3.59,1.73-5.25l.58-1.04.63,1.01c.11.18.3.42.55.51.64.22,1.62-.57,2.07-1.17,1.02-1.33.51-3.16.39-3.51l-.06-.2.06-.2c.04-.13.99-3.26,6.03-5.97l2.78-1.5-1.89,2.53c-.67.9-1.13,1.77-1.24,2.19.92-.17,2.88-1.75,4.36-3.29.14-.84.16-1.66.05-2.5-.07-.53-.17-.92-.27-1.28-.14-.52-.27-1.01-.24-1.72.08-1.46.77-2.5,1.11-3,1.85-2.74,6.23-4.67,9.11-3.04.78.43,1.37,1.19,1.76,2.26.2-.47.4-1.54-.09-3.78l-.52-2.42,3.89,4.07c.89-1.11,2.86-3.24,5.47-4.11,2.06-.68,3.8-.54,4.91.39.6.51,1.25,1.46,1.18,3.18h1.52c-.09-.24-.19-.47-.31-.7-.39-.77-.92-1.45-1.58-2.04l-1.76-1.56,2.32.34c.46.07.95.2,1.42.39,1.3.5,2.25,1.29,2.91,2.01,1.36-1.6,5.02-5.11,9.81-3.39,2.24.81,3.7,1.97,4.33,3.46.34.8.38,1.54.32,2.11.65.03,1.5.22,2.37.89.04-.3.04-.93-.28-2.16-.45-1.78-.29-2.96.49-3.64.97-.84,2.69-.7,5.57.47,3.48,1.41,3.73,3.92,3.61,5.16.36.14.74.36,1.06.7.11-1.09-.28-1.98-.47-2.35l-.78-1.5,1.61.52c2.42.78,5.67,2.38,7.37,5.59.83,1.52,1.6,3.57.55,4.69-.34.35-.81.55-1.4.58.19.29.37.58.56.86.49-.69,1.09-1.27,1.8-1.72,1.86-1.2,3.48-1.17,4.51-.93,1.79.4,2.81,1.62,3.2,2.07.9,1.07,1.45,2.4,1.59,3.85l.14,1.54-1.25-.91c-1.41-1.03-2.78-1.7-3.98-1.95-.43-.1-.56-.05-.56-.05-.04.12.09.72.29,1.17.05.15.44,1.31,2.72,1.16,2.08-.13,3.97,2.54,5.04,5.1.38.92,1.55,3.99.38,5.03-.74.88-1.09,1.76-.89,2.34.07.21.42.58,2.48,1.51,1.35.6,2.04.82,2.49.96.46.15.77.24,1.24.56,1.95,1.33,2.88,3.9,2.92,5.72.02.75-.11,1.74-.78,2.25-.19.17-.49.25-1.51.53l-.21.05c-.33.09-.63.16-.89.22l-.68,3.47c.8-.14,1.6,0,2.35.37l1.35.67-1.38.59c-.3.13-.56.3-.8.51-.8.72-1.04,1.76-1.23,2.6-.07.3-.08.41-.09.52-.01.14-.03.28-.09.55-.19.73-.46,1.33-.73,1.81.01,0,.03,0,.04,0,.3-.02.5-.15.6-.22l1.58-1.11-.51,1.87c-.28,1.04-.95,1.85-1.78,2.16l-.15.05c-.09.02-.17.05-.25.06-.35.06-.68.04-1.01-.04-.96.02-1.93.12-2.89.31-1.07.2-2.13.5-3.17.91l-.43.17ZM250.07,89.43c.18.17.38.36.59.57,1.71,1.67,4.75,4.73,9.03,9.08l1.15,1.17c.98-.36,1.99-.64,2.99-.82,1.07-.2,2.16-.32,3.23-.33h.11s.11.03.11.03c.2.06.36.05.47.03.05,0,.11-.03.16-.04l.05-.02s0,0,.01,0c-.49-.1-.84-.33-1-.46l-.54-.42.41-.55c.31-.42.74-1.12.99-2.07.04-.17.05-.26.06-.36.01-.14.03-.3.1-.63.22-.96.5-2.17,1.42-3.14-.08.01-.17.03-.25.04h0s-.17.05-.17.05c-.17.05-.34.12-.5.2l-1.31.73,1.39-7.03.45-.09c.31-.06.74-.18,1.28-.31l.37.63-.18-.67c.49-.13.96-.26,1.07-.31.02-.02.2-.32.19-1.08-.03-1.52-.83-3.59-2.3-4.59-.3-.2-.46-.25-.88-.38-.48-.15-1.22-.39-2.64-1.02-2.46-1.11-2.98-1.62-3.23-2.33-.38-1.09.05-2.39,1.22-3.77.32-.47-.14-2.88-1.52-5.21-.96-1.62-2.04-2.59-2.81-2.55-3.48.25-4.11-1.99-4.13-2.09-.11-.2-.79-1.83.08-2.67.6-.56,1.5-.35,1.8-.29.95.2,1.96.6,3.01,1.21-.21-.54-.51-1.04-.88-1.47-.33-.39-1.11-1.31-2.44-1.61-.77-.18-2-.19-3.45.74-.81.52-1.45,1.25-1.9,2.18l-.54,1.1-.67-1.03c-.67-1.02-1.33-2.05-1.99-3.08l-.98-1.54,1.75.49c.94.26,1.45.17,1.6.02.28-.3.11-1.45-.77-3.06-1.19-2.24-3.3-3.6-5.21-4.42.14.66.18,1.44-.02,2.3-.12.54-.34,1.06-.65,1.55l-1.23,1.97-.06-2.32c-.04-1.3-1.05-1.46-1.26-1.47l-.88-.08.27-.84c.09-.28.77-2.79-2.67-4.17-2.93-1.19-3.84-.96-4.12-.71-.32.28-.34,1.08-.05,2.24.5,1.96.45,3.15-.16,3.75-.37.36-.86.39-1.15.31l-.17-.05-.12-.12c-1.24-1.18-2.47-.83-2.52-.82l-1.46.44.61-1.39s.4-.98-.08-2.09c-.48-1.11-1.67-2.01-3.51-2.67-5.03-1.81-8.6,3.37-8.75,3.59l-.56.83-.59-.81c-.36-.5-.9-1.11-1.68-1.63.06.1.11.2.16.3.31.6.54,1.24.68,1.89l.17.84h-4.88l.12-.8c.13-.88.14-2.06-.63-2.7-.71-.6-2.01-.65-3.56-.13-3.07,1.03-5.25,4.22-5.27,4.25l-.48.72-1.84-1.93c.08,1.36-.15,2.38-.67,3.03-.42.52-.98.71-1.32.71h-.57l-.12-.55c-.26-1.21-.72-2-1.36-2.36-2.21-1.25-5.79.4-7.27,2.6-.28.42-.81,1.22-.87,2.29-.02.49.07.83.2,1.3.11.39.22.84.3,1.47.13,1.06.1,2.09-.1,3.14l-.04.2-.14.15c-.63.66-3.83,3.98-5.7,3.89-.71-.03-1-.43-1.11-.67-.16-.35-.14-.79,0-1.26-2.03,1.56-2.77,3-2.98,3.48.23.87.58,2.89-.68,4.54-.64.85-2.14,2.16-3.64,1.65-.18-.06-.35-.15-.51-.26-.58,1.25-.96,2.55-1.13,3.88-.27,2.11-.5,3.92.43,5.46.09.14.19.29.29.44.51.76,1.14,1.7.82,2.74-.23.81-.87,1.22-.94,1.27-.21.12-.69.42-1.36.29-.16-.04-.3-.1-.43-.17-.49.95-.56,2.05-.16,3.03.62,1.47,2.06,1.96,2.35,2.04l1.74.51-1.63.78c-.22.11-.44.22-.65.34.47.02.92.07,1.36.14l.66.11-.23,1.92c.98.46,1.95.98,2.89,1.57.05.03.09.06.14.09l2.4-8.26-.18-5.79.26-.22c.72-.6,1.43-1.2,2.15-1.8l.98-.82.23-6.39,1.18,1.55c.06.08,1.56,2.03,3.86,1.88.43-.03,1.55-.09,2.2-.85.34-.4.42-.84.52-1.36.12-.64.25-1.37.91-2,.59-.57,1.41-.86,2.43-.89l.86-.02-.16.85c-.12.64,0,1.14.34,1.53.97,1.08,3.57,1.14,4.48,1.07,4.09-1.02,5.07-2.35,5.28-3.04.27-.9-.42-1.67-.43-1.68l-1.12-1.21,8.8.16.19.36c1.12,2.06,2.45,3.19,3.93,3.34,2.71.28,5.25-2.7,5.27-2.73l.26-.3.39.07c2.35.4,2.72,2.1,2.73,2.17l.08.38-.28.27c-.48.45-.49.76-.5.86-.02.79,1.41,1.85,1.88,2.2l.34.24c.3.21.57.39.76.8.56,1.13.07,2.75-1.02,3.38-.51.29-1.06.28-1.83.17.03.01.05.02.08.03,1.52.65,3.17.06,4.13-.81.68-.61,1.62-1.96,1.29-2.98-.18-.57-.69-.87-1.23-1.19-.59-.35-1.27-.76-1.41-1.56-.07-.4-.15-.81,3.29-3.38l1.16-.86-.04,1.44c-.06,2.1,2.28,3.34,2.31,3.36,1.22.58,2.17.72,2.71.38.63-.39.65-1.39.65-1.4l.02-1.25,4.36,2.74-.2.53c-.94,2.54-1.03,4.3-.26,5.09.95.97,3.18.49,3.95.22l.88-.3.22,4.19c2.46.97,4.49,4.34,4.86,4.98ZM227.55,73.44h0s0,0,0,0Z"/>
  </g>
  <path class="cls-2" d="M183.23,80.96c.14,1.02.04,1.9-.2,2.89,0,0-.54,2.82-.54,2.82l-.54,2.82c-.15,1.03-.38,1.84-.88,2.76-.13-1.04-.04-1.88.2-2.89,0,0,.54-2.82.54-2.82l.54-2.82c.15-1.01.38-1.85.88-2.76h0Z"/>
  <g>
    <path class="cls-2" d="M203.12,91.75c-.08.38-.24,1.02-.8,1.38-.28.18-.57.22-.75.24-3.37.04-7.17-.13-11.29-.67-2.51-.32-4.87-.74-7.05-1.22.6-3.04,1.2-6.08,1.8-9.11,5.95,2.68,11.9,5.38,17.85,8.06.01-.2.04-.38.07-.57.08.21.2.52.22.89.03.25.04.6-.06.99Z"/>
    <path class="cls-2" d="M200.58,94.07c-3.5,0-6.98-.23-10.4-.68-2.39-.31-4.78-.72-7.11-1.23l-.67-.15,2.11-10.64,17.79,8.03.31-2.16.98,2.35c.11.27.24.64.27,1.1.05.42.02.82-.07,1.21-.09.39-.29,1.29-1.1,1.81-.31.2-.67.32-1.08.35-.35,0-.69,0-1.03,0ZM184.05,90.94c2.07.43,4.2.79,6.32,1.06,3.69.49,7.46.71,11.19.66.13-.01.27-.05.38-.12.31-.2.42-.59.49-.95v-.02c.06-.2.06-.39.06-.55l-16.95-7.65-1.5,7.57Z"/>
  </g>
  <g>
    <path class="cls-2" d="M234.64,90.94c-2.92.25-5.82.5-8.73.75-5.07.46-10.13.91-15.18,1.37-.32-.04-.56-.14-.74-.25-.98-.67-1.16-2.49-.5-4.55.22.27.46.53.68.8,3.48-1.35,7.05-2.68,10.71-4.01,4.3-1.55,8.52-3,12.65-4.34.2,1.56.36,3.14.54,4.75.2,1.84.38,3.67.56,5.49Z"/>
    <path class="cls-2" d="M210.71,93.76h-.08c-.38-.06-.72-.18-1.01-.36-1.28-.88-1.58-2.92-.8-5.36l.38-1.21,1.17,1.39c3.01-1.17,6.29-2.39,10.27-3.84,4.42-1.59,8.69-3.06,12.68-4.35l.8-.26.11.84c.14,1.15.27,2.32.4,3.49l.14,1.26c.18,1.75.36,3.48.53,5.2l.1,1.01-24.69,2.19ZM209.85,89.76c-.17,1.27.09,2.17.53,2.47.09.05.21.1.37.12l23.13-2.05c-.16-1.58-.32-3.18-.49-4.78l-.14-1.26c-.1-.89-.2-1.76-.3-2.63-3.74,1.22-7.72,2.59-11.83,4.07-4.17,1.51-7.57,2.78-10.7,4l-.47.18-.11-.12Z"/>
  </g>
  <path class="cls-2" d="M235.58,79.98c.44.93.6,1.76.67,2.77,0,0,.32,2.81.32,2.81l.32,2.81c.16,1.02.18,1.83-.02,2.85-.43-.95-.59-1.74-.67-2.77,0,0-.32-2.81-.32-2.81l-.32-2.81c-.16-1-.19-1.85.02-2.85h0Z"/>
  <rect class="cls-2" x="249.47" y="90.49" width="1.4" height="13.29"/>
  <path class="cls-2" d="M253.05,110.54l-1.33-.44c.66-2,1.69-3.83,3.04-5.43s3.18-3.08,5.13-4.07l.63,1.25c-1.78.91-3.41,2.19-4.69,3.72-1.24,1.47-2.17,3.14-2.78,4.97Z"/>
  <path class="cls-2" d="M261.19,135.92l-.33-1.36c6.4-1.54,11.08-7.76,12.79-10.36,3.28-5.08,4.49-10.04,3.6-14.72-.32-1.71-.93-4.9-3.77-7.08-1.5-1.15-3.31-1.8-5.37-1.93-.68-.04-1.32-.02-1.99.05l-.15-1.39c.74-.08,1.47-.1,2.21-.06,2.37.14,4.43.89,6.15,2.21,3.27,2.5,3.96,6.16,4.3,7.92.96,5.05-.32,10.35-3.8,15.75-1.81,2.75-6.76,9.3-13.64,10.96Z"/>
  <path class="cls-2" d="M212.88,162.52c-.25,0-.5,0-.74-.01l-1.46-.07c-.44-.03-.93-.07-1.38-.11l-.95-.12c-.4-.06-.8-.12-1.19-.19-.3-.04-.64-.1-.96-.17-.15-.02-.35-.06-.55-.11l-.27-.06c-.15-.02-.33-.06-.51-.11l-.16-.04c-.2-.04-.39-.09-.57-.15l-.41-.11c-.69-.22-1.94-.62-3.54-1.3l-.77-.32c-.28-.12-.54-.24-.81-.37l-.28-.13c-.21-.1-.43-.2-.64-.31-.65-.3-1.34-.67-2.06-1.07-.11-.05-.27-.13-.43-.24-.04-.02-.15-.07-.25-.14-.57-.33-1.08-.63-1.61-.97-.34-.21-.68-.43-1.03-.67-.28-.17-.59-.39-.88-.61-.58-.4-1.19-.86-1.79-1.34-.66-.51-1.29-1.05-1.93-1.63-2.97-2.68-5.4-5.75-7.22-9.12-2.18-4.03-3.43-8.49-4.06-14.48-.61-5.79-.66-13.03-.73-22.19-.02-4.34.08-7.52.14-9.03l1.4.05c-.06,1.5-.15,4.65-.14,8.96.07,9.12.12,16.33.72,22.05.62,5.88,1.79,10.05,3.9,13.96,1.75,3.23,4.09,6.17,6.94,8.75.61.56,1.22,1.07,1.86,1.57.58.47,1.17.91,1.74,1.3.29.21.56.41.84.58.36.25.68.45,1.01.66.52.33,1.01.62,1.48.89l.15.1c.06.04.11.07.17.09.17.11.26.16.35.2.75.41,1.41.77,2.05,1.07.22.11.43.21.63.3l.29.13c.26.12.5.23.75.34l.75.31c1.56.66,2.77,1.05,3.42,1.26l.41.11c.16.05.32.09.5.12l.14.03c.15.05.3.08.44.1l.32.07c.17.04.34.08.51.1.34.08.64.13.93.17.4.07.78.13,1.16.18l.92.11c.41.04.88.08,1.33.11l1.4.07c.45.01.93.02,1.4,0,.68,0,1.35-.03,2.03-.07,1.31-.09,2.54-.23,3.74-.44.96-.14,1.96-.34,3.07-.61,1.96-.47,3.93-1.08,5.86-1.8l.35-.14c.19-.07.38-.15.56-.22l.37-.16c.19-.08.38-.15.57-.24.32-.11.58-.23.83-.35l1.13-.52c.51-.23,1.03-.48,1.57-.76.43-.21.86-.42,1.3-.65h0s.38-.21.38-.21c.77-.4,1.57-.84,2.37-1.31.1-.06,10.33-6.23,12.7-20.12l.17-.99.87.51c.97.57,1.9.99,2.85,1.29l.14.04c.6.2,1.26.34,1.97.43l-.18,1.39c-.8-.1-1.54-.27-2.22-.49l.08-.71-.21.66c-.76-.24-1.51-.56-2.26-.94-2.77,13.87-12.76,19.87-13.19,20.13-.73.43-1.45.83-2.16,1.2l-.27.15c-.58.31-1.15.6-1.7.86-.54.28-1.08.53-1.61.77l-1.13.52c-.31.14-.61.27-.9.37-.15.07-.35.16-.56.24l-1.32.52c-1.99.75-4.02,1.37-6.03,1.86-1.15.27-2.19.48-3.17.63-1.23.21-2.5.36-3.87.45-.72.04-1.42.07-2.1.07-.24,0-.48.01-.73.01Z"/>
  <path class="cls-2" d="M176.71,129.08c-.14-.09-.3-.2-.45-.33-.23-.15-.54-.36-.85-.6l-.84-.65.87-1.09.8.62c.28.2.56.41.83.58.18.14.3.22.41.3l-.78,1.16Z"/>
  <path class="cls-2" d="M171.85,125.13c-1.42-1.35-3.49-3.48-5.16-6.46-.95-1.69-3.84-6.84-2.97-13.35.27-1.99.76-5.69,3.8-8.46,1.27-1.15,2.83-1.98,4.61-2.48l.37,1.35c-1.58.44-2.94,1.16-4.05,2.16-2.66,2.42-3.09,5.67-3.35,7.61-.81,6.05,1.91,10.89,2.81,12.48,1.58,2.82,3.55,4.85,4.9,6.14l-.96,1.01Z"/>
  <path class="cls-2" d="M209.1,152.81c-.49,0-11.67-.31-19.47-9.92-4.33-5.34-6.72-12.5-7.1-21.28l-.11-2.54,1.39,2.13c.06.09,5.73,8.58,17.53,10.43,11.96,1.87,25.79-3.45,41.1-15.83l1.12-.9.02,1.43c.01.67.14,16.52-10.21,27.2h0c-5.94,6.12-14.1,9.24-24.27,9.28ZM184.07,123.79c.64,7.46,2.87,13.58,6.64,18.22,7.38,9.09,18.29,9.4,18.4,9.41,9.76-.04,17.59-3.01,23.26-8.85h0c8.15-8.42,9.54-20.55,9.77-24.73-15.18,11.98-28.98,17.08-41.04,15.17-9.07-1.43-14.6-6.47-17.02-9.22Z"/>
  <path class="cls-2" d="M187.69,114.97l-.3-.15c-1.1-.54-2.09-1.22-2.95-2.02-2.48-2.28-3.38-5.02-4.17-7.45-.61-1.9-1-3.89-1.18-5.93l-.05-.62.61-.12s1.76-.36,4.74-.82c.11-.01.19-.02.27-.04.34-.06.62-.1.91-.14l.73-.11c2.92-.42,5.87-.78,8.78-1.08,1-.1,1.99-.2,2.97-.28.8-.08,1.6-.15,2.4-.21h.14c.95-.08,1.89-.15,2.81-.19.08-.02.24-.02.38-.03l.75-.04c.52-.04,1.08-.07,1.62-.1,9.75-.51,18.96-.3,27.44.63.38.04.76.08,1.14.13l2.82.35c1.03.14,2.01.28,2.98.44,1.04.15,2.08.34,3.12.53l.76.14-.22.74c-.83,2.83-2.14,5.46-3.91,7.83-3.54,4.74-8.01,7.18-11.13,8.39l-.22.05c-1.89.09-3.76-.12-5.58-.61-6.11-1.64-9.67-6.02-12.27-9.21-1.78-2.21-3.32-4.61-4.59-7.16l-1.04.13c-.41.82-.87,1.65-1.37,2.49-.77,1.29-1.58,2.47-2.44,3.56-.02.04-.08.12-.14.17-.2.27-.48.61-.76.94-1.45,1.71-3.02,3.25-4.67,4.58-2.42,1.99-5.14,3.69-8.08,5.05l-.3.14ZM207.6,96.98c1.25,2.56,2.78,4.98,4.57,7.2,2.48,3.05,5.88,7.22,11.55,8.75,1.64.44,3.34.64,5.04.57,2.95-1.16,7.11-3.46,10.41-7.88,1.51-2.03,2.67-4.26,3.46-6.65-.77-.14-1.53-.27-2.3-.38-.97-.15-1.94-.29-2.95-.43l-2.79-.35c-.37-.04-.74-.09-1.12-.12-8.03-.88-16.72-1.11-25.85-.69ZM180.55,99.94c.19,1.71.54,3.39,1.05,4.99.77,2.37,1.57,4.82,3.79,6.85.68.64,1.46,1.19,2.32,1.64,2.72-1.29,5.23-2.87,7.48-4.72,1.58-1.28,3.09-2.76,4.49-4.41.28-.32.53-.64.78-.96l.08-.11c.82-1.04,1.6-2.18,2.31-3.38.56-.94,1.05-1.83,1.47-2.69l-.47.03c-.1,0-.21,0-.32.02-.98.05-1.91.12-2.84.19-.92.08-1.71.14-2.52.22-.98.08-1.97.18-2.96.28-2.89.29-5.82.65-8.71,1.07l-1.57.24c-.08.02-.21.04-.34.06-1.92.29-3.31.54-4.05.68Z"/>
  <g>
    <path class="cls-2" d="M204.58,96.43h0c-.53,1.83-1.55,4.46-3.49,7.22-.03.04-.06.08-.08.11-1.86,2.63-3.88,4.37-5.35,5.48h-.03c-.92.01-2.5-.08-4.26-.84-2.32-1.01-3.66-2.6-4.23-3.38.27-.04.67-.11,1.15-.28.68-.22,1.16-.39,1.37-.82.17-.36.08-.74,0-1.08,0,0-.15-.63-.57-1.1-.64-.73-2.1-.94-3.59-.38-.34-.94-.67-1.87-.99-2.79.11-.01.22-.03.34-.06.52-.08,1.05-.15,1.58-.24,2.81-.41,5.73-.77,8.74-1.08.99-.1,1.98-.2,2.96-.28.85-.08,1.69-.15,2.53-.22.94-.07,1.87-.14,2.79-.18.2-.03.39-.03.57-.04.2-.01.38-.03.57-.04Z"/>
    <path class="cls-2" d="M195.49,109.93c-1.51,0-3.02-.31-4.39-.9-2.27-.99-3.71-2.51-4.52-3.61l-.68-.93,1.13-.18c.19-.03.58-.09,1.02-.25.54-.18.89-.3.97-.47.06-.13.01-.35-.05-.6,0,0-.12-.48-.42-.81-.4-.45-1.53-.67-2.82-.19l-.66.25-.24-.67c-.34-.94-.67-1.88-.99-2.8l-.28-.81.85-.11c.09-.01.17-.02.25-.04.34-.06.62-.1.91-.14l.73-.11c2.92-.42,5.87-.78,8.78-1.08,1-.1,1.99-.2,2.97-.28.8-.08,1.6-.15,2.4-.21h.14c.95-.08,1.89-.15,2.81-.19.08-.02.24-.02.38-.03l1.49-.11-.03.96c-.53,1.8-1.57,4.54-3.59,7.41-.05.07-.11.15-.16.2-1.44,2.06-3.24,3.9-5.42,5.54l-.19.14h-.23c-.06,0-.11,0-.17,0ZM188.39,105.44c.74.81,1.81,1.69,3.26,2.32,1.18.5,2.48.77,3.77.78,1.98-1.52,3.62-3.21,5.02-5.18,1.65-2.34,2.61-4.52,3.17-6.16-.03,0-.05,0-.08,0-.98.05-1.91.12-2.84.19-.92.08-1.71.14-2.52.22-.98.08-1.97.18-2.96.28-2.89.29-5.82.65-8.71,1.07l-1.08.16c.16.45.32.91.49,1.37,1.5-.36,2.92-.08,3.68.78.52.59.71,1.32.73,1.4.09.35.23.93-.04,1.53-.35.73-1.08.97-1.79,1.2-.04.01-.07.03-.11.04Z"/>
  </g>
  <g>
    <path class="cls-2" d="M240.42,97.88c-.14,1.12-.45,2.56-1.1,4.15-.52,1.27-1.12,2.3-1.66,3.11-.56.73-2.71,3.45-6.49,4.15-3.81.7-7.81-.92-10.41-4.15.27.01.64.04,1.1,0,.78-.08,1.34-.14,1.7-.53.52-.59.36-1.63-.03-2.29-.42-.68-1.1-.94-1.54-1.1-1.3-.47-2.5-.18-3.03,0-.34-.5-.87-1.45-1.01-2.77-.1-.85,0-1.56.11-2.07,3.45-.08,7.22-.03,11.27.24,1.44.1,2.82.22,4.18.35.68.07,1.34.15,2,.22.66.08,1.3.17,1.94.25,1.02.14,2,.28,2.96.43Z"/>
    <path class="cls-2" d="M229.38,110.15c-3.44,0-6.82-1.65-9.17-4.57l-.98-1.22,1.56.08c.32.02.63.04,1,0,.69-.07,1.08-.12,1.25-.31.25-.29.15-1.01-.12-1.46-.28-.46-.77-.65-1.16-.8-1.13-.41-2.19-.14-2.59,0l-.51.17-.3-.45c-.62-.93-1-1.99-1.12-3.08-.09-.75-.05-1.53.12-2.29l.12-.53h.55c3.72-.1,7.54-.02,11.33.23,1.45.1,2.83.23,4.19.35.39.04.77.08,1.15.13l2.82.35c1.03.14,2.01.28,2.98.44l.67.11-.08.67c-.18,1.46-.57,2.92-1.15,4.33-.46,1.12-1.04,2.21-1.73,3.24-1.86,2.42-4.26,3.95-6.95,4.45-.63.12-1.27.17-1.91.17ZM222.3,105.8c2.41,2.31,5.64,3.37,8.74,2.81,2.35-.43,4.44-1.78,6.07-3.89.61-.91,1.15-1.92,1.57-2.95.45-1.08.77-2.19.96-3.3-.74-.11-1.49-.22-2.26-.32l-2.79-.35c-.37-.04-.74-.09-1.12-.12-1.34-.12-2.72-.25-4.15-.35-3.56-.23-7.14-.32-10.63-.25-.05.44-.06.87,0,1.3.08.71.29,1.4.63,2.03.73-.17,1.8-.26,2.95.16.54.21,1.36.53,1.89,1.4.54.91.7,2.27-.04,3.12-.47.51-1.08.64-1.79.72Z"/>
  </g>
  <rect class="cls-2" x="195.33" y="102.97" width="12.87" height="1.4" transform="translate(20.4 239.92) rotate(-64.11)"/>
  <g>
    <path class="cls-2" d="M209.47,114.85s-1.17,5.98-4.01,6.84c-2.82.85-4.8-3.53-4.8-3.53l-1.17-3.2-1.62-2.04c1.05,1.19,5.34,5.34,11.61,1.93Z"/>
    <path class="cls-2" d="M204.72,122.51c-2.83,0-4.62-3.88-4.7-4.06l-1.15-3.14-1.55-1.95,1.07-.9c1.07,1.21,4.99,4.91,10.75,1.78l1.3-.71-.29,1.46c-.13.65-1.34,6.42-4.49,7.38-.33.1-.64.14-.95.14ZM201.31,117.92s1.79,3.76,3.95,3.11c1.54-.47,2.62-3.05,3.17-4.92-2.98,1.18-5.7.84-7.88-.24l.75,2.06h0Z"/>
  </g>
  <path class="cls-2" d="M241.07,113.15c2.75,1.09,4.88,3.29,5.87,6.08-2.51-1.6-4.36-3.52-5.87-6.08h0Z"/>
  <path class="cls-2" d="M185.66,118.22c-2.66,1.56-4.13,3.58-5.87,5.98-.26-3.09,2.64-6.47,5.87-5.98h0Z"/>
  <rect class="cls-2" x="207.6" y="133.32" width="1.4" height="18.27" transform="translate(-4.87 7.39) rotate(-2.01)"/>
  <rect class="cls-2" x="227.83" y="127.31" width="1.4" height="16.93" transform="translate(-37.29 136) rotate(-30.76)"/>
  <rect class="cls-2" x="184.76" y="135.33" width="13.04" height="1.4" transform="translate(24.73 301.41) rotate(-80.22)"/>
  <g>
    <path class="cls-2" d="M168.51,97.88s5.62,3.74,5.51,9.39c0,0-.39,3.31-2.76,6.3,0,0,.17,2.66,2.76,5.23l-1.28,1.39s-2.66-.84-2.07-6c0,0,8.55-8.09-2.16-16.31Z"/>
    <path class="cls-2" d="M172.96,120.99l-.42-.13c-.13-.04-3.2-1.08-2.55-6.75l.03-.25.18-.18s.47-.45,1.02-1.22c.95-1.39,1.49-2.79,1.78-3.8.16-.69.24-1.44.2-2.22-.15-2.84-1.87-5.54-5.11-8.02l.81-1.14c.24.16,5.94,4.02,5.82,9.99,0,.09-.09.71-.34,1.63-.44,1.98-1.42,3.57-2.18,4.58-.06.09-.13.18-.2.27.12.67.6,2.64,2.52,4.54l.48.48-2.04,2.21ZM171.3,116.14c.11,1.96.85,2.83,1.3,3.18l.47-.5c-.84-.94-1.4-1.87-1.77-2.67Z"/>
  </g>
  <g>
    <path class="cls-2" d="M263.27,121.79c-1.93,11.63-9.18,4.92-9.18,4.92,8.32.1,5.92-7.47,5.92-7.47-2.18-5.66-1.55-8.91-1.55-8.91.04-.06.1-.14.17-.24,2.2-2.93,7.24-6.37,11.25-4.57,3.66,1.64,4.29,6.65,4.32,6.94.28,2.47-.57,5.2-.75,5.76-.21.69-.37,1.02-.37,1.01-.01,0,1.2-2.35,1.22-5.28,0-1.09-.15-1.92-.21-2.18-.2-.95-1-4.9-4.21-6.25-2.33-.98-4.72-.1-5.67.25-1.74.64-2.94,1.71-4.1,2.74-1.04.93-1.56,1.39-1.66,1.82-.43,2.01,3.42,3.01,4.68,6.84.59,1.78.34,3.32.13,4.62Z"/>
    <path class="cls-2" d="M258.41,129.34c-2.47,0-4.68-2.02-4.79-2.12l-1.33-1.23,1.81.02c2.3.05,3.88-.55,4.74-1.71,1.41-1.89.51-4.82.5-4.85-1.87-4.86-1.72-8.03-1.61-8.97,0-.1.02-.19.04-.29l.04-.17c.15-.47.54-.87,1.25-1.52.83-.86,1.83-1.7,2.94-2.4.31-.2.65-.4,1-.57,2.27-1.17,4.84-1.68,7.15-.65,1.61.68,3.72,2.4,4.62,6.73.15.75.23,1.55.23,2.34-.01,2.35-.74,4.35-1.16,5.29-.19.48-.29.54-.44.61l-.66.34-.42-.97.15-.33s.03-.05.04-.08c.06-.14.16-.4.28-.79.63-2.03.89-3.98.72-5.48,0-.05-.59-4.88-3.91-6.38-2.07-.87-4.23-.07-5.15.27-.24.09-.47.19-.69.29-.41.21-.81.44-1.19.69-.73.5-1.37,1.06-1.99,1.62-.18.16-.36.32-.52.47-.32.34-.61.68-.86,1.01l-.07.09c-.02.52.52,1.04,1.43,1.88,1.13,1.04,2.54,2.34,3.25,4.48.65,1.96.36,3.69.15,4.96-.67,4.06-2.08,6.49-4.2,7.21-.45.15-.91.22-1.36.22ZM256.11,127.27c.92.5,2.11.9,3.21.53,1.56-.54,2.69-2.65,3.27-6.11h0c.21-1.24.44-2.65-.1-4.29-.59-1.79-1.8-2.91-2.87-3.89-.15-.14-.3-.28-.45-.42.15,1.44.55,3.43,1.5,5.9.06.19,1.13,3.67-.7,6.14-.84,1.14-2.14,1.86-3.87,2.14Z"/>
  </g>
  <path class="cls-2" d="M257.42,141.93c-.64,0-1.15-.15-1.4-.22-.59-.16-1.35-.37-1.92-1.04-.45-.51-.61-1.11-.7-2.58-.07-1-.07-2.05,0-3.13l.06-.91,1.02.35c.37.14.73.28,1.09.41,0,0,0-.02,0-.03l-.03-.25c-.07-.59-.14-1.26.06-2.11.11-.43.26-1.01.75-1.49.99-.94,2.66-.8,3.64-.13.77.52,1.1,1.32,1.32,2.03.23.78.36,1.58.39,2.39.13,2.97-1.12,5.6-2.04,6.11-.77.44-1.59.55-1.63.56-.23.03-.44.05-.64.05ZM254.75,135.99c-.02.69,0,1.36.04,2.01.08,1.34.21,1.58.36,1.75.3.35.76.48,1.25.61.28.08.79.24,1.46.14,0,0,.6-.09,1.14-.39.35-.23,1.44-2.2,1.32-4.84h0c-.03-.7-.14-1.38-.34-2.04-.22-.69-.43-1.05-.77-1.28-.57-.39-1.49-.4-1.89-.02-.19.18-.27.43-.37.82-.15.6-.09,1.07-.03,1.62l.02.19c.03.38.06.66.07.92.08,1.62,0,2.57-.23,2.82l-1.08,1.13-.13-1.56s-.02-.29-.08-1.6c-.26-.09-.51-.19-.76-.28Z"/>
  <path class="cls-2" d="M174.12,132.7c-.14,0-.3-.01-.45-.03-.11-.01-.74-.1-1.36-.45-1-.56-2.22-3.67-1.32-6.65.14-.45.35-1.03.85-1.44.09-.1.17-.15.22-.19.81-.55,2.18-.66,2.98.12.39.35.51.79.6,1.15.18.7.13,1.22.07,1.68l.22-.07.29.21c.3.22.58.42.85.59l.32.21v.38c0,.57-.01,1.04-.04,1.43-.08,1.13-.21,1.61-.57,2.03-.47.55-1.06.72-1.54.86-.37.11-.75.17-1.12.17ZM173.53,124.9c-.24,0-.49.07-.69.2-.26.22-.39.47-.52.88-.75,2.46.33,4.76.69,5.04.37.21.79.27.79.27.36.03.68.02,1.01-.09.44-.13.7-.21.89-.43.07-.08.17-.2.24-1.23.02-.28.03-.6.04-.97-.09-.06-.17-.12-.26-.18-.07,1.57-.14,1.71-.76,1.71h-.63l-.07-.62s-.12-1.14.03-2.56c.06-.55.1-.88,0-1.32-.08-.3-.12-.44-.21-.52-.13-.12-.33-.18-.55-.18Z"/>
  <path class="cls-2" d="M215.31,174.8c-2.99,0-5.46-.55-7.33-1.63l-.1-.06h0c-2.73-1.61-3.18-3.8-3.19-3.89l-.2-1.22c-.06-.26-.11-.54-.15-.81l-1.3-7.57,1.5.43c.16.05.32.09.5.12l.14.03c.15.05.3.08.44.1.33.08.6.15.87.2.31.07.61.12.92.18.38.07.76.14,1.14.19.28.04.58.08.87.11.41.06.78.1,1.16.12l.25.02c.16.02.27.03.39.03.4.05.69.06.98.07,1.38.04,2.36.02,3.46-.03,1.18-.06,2.41-.2,3.75-.41,1.16-.19,2.16-.4,3.05-.63,1.72-.43,3.42-.97,5.07-1.62l.77-.34.95-.37v9.52l-.08.16c-.06.1-1.42,2.58-4.53,4.64-.11.09-.28.19-.47.3l-.41.24c-.32.18-.64.36-.98.52-.98.47-2.01.84-3.05,1.1-.14.04-.32.08-.49.12l-.24.05c-1.1.22-2.19.33-3.36.34-.1,0-.2,0-.3,0ZM208.69,171.98c1.82,1,4.14,1.46,6.91,1.42,1.09-.01,2.1-.11,3.09-.31l.25-.05c.14-.03.28-.06.42-.1.98-.24,1.92-.58,2.81-1.01.3-.15.6-.31.88-.47l.42-.24c.14-.08.25-.14.35-.22,2.44-1.61,3.71-3.5,4.03-4.02v-7.08c-1.65.64-3.35,1.18-5.05,1.6-.93.24-1.97.45-3.17.65-1.39.22-2.67.36-3.91.43-1.14.05-2.29.06-3.47.03-.44-.02-.77-.03-1.11-.08-.09,0-.23,0-.38-.02-.11,0-.22,0-.34-.03-.34-.02-.75-.06-1.15-.12-.28-.03-.6-.07-.91-.11-.4-.06-.8-.13-1.19-.2-.32-.06-.64-.12-.96-.19-.27-.05-.56-.13-.85-.2-.13-.02-.3-.05-.48-.1h-.07s.92,5.34.92,5.34c.05.29.08.54.15.82l.2,1.24s.38,1.66,2.53,2.93l.1.07Z"/>
  <path class="cls-2" d="M180.76,238.5l-.15-.04c-1.04-.3-25.56-7.34-32.89-14.67l-.31-.31.14-.41c3.97-11.33,13.48-37.75,16.23-38.25,4.03-.73,33.99-8.32,40.64-18.18l1.03-1.52.24,1.82c.18,1.36.66,2.56,1.42,3.56,2.96,3.89,8.92,2.93,8.98,2.92,2.17-.1,4.18-.59,6.05-1.49,2.78-1.33,4.6-3.24,5.68-4.68v-4.75l1.16,1.01s4.33,3.72,10.29,4.64c.83.13,2.04.3,3.54.51,10.35,1.47,31.88,4.52,36.26,8.04l.13.14c.15.21,15.36,21.44,24.25,42.09l.36.83-123.07,18.73ZM149.02,223.1c7.17,6.7,29.79,13.38,31.83,13.97l120.97-18.42c-8.6-19.6-22.67-39.49-23.69-40.91-4.27-3.26-26.14-6.36-35.51-7.69-1.51-.21-2.73-.39-3.56-.51-4.54-.7-8.1-2.84-9.84-4.08v2.25l-.13.18c-1.15,1.58-3.18,3.79-6.34,5.3-2.04.98-4.23,1.52-6.51,1.61-.19.04-6.77,1.09-10.24-3.46-.61-.8-1.07-1.7-1.37-2.7-9.08,10.54-40.29,17.48-40.61,17.54-1.67.99-8.97,19.68-15.01,36.91Z"/>
  <path class="cls-2" d="M198.24,172.98c3.38,6,10.21,10.25,17.24,9.16-1.73.27-3.52.48-5.29.21-5.43-.65-10.14-4.2-13.16-8.67,0,0,1.21-.69,1.21-.69h0Z"/>
  <path class="cls-2" d="M236.96,168.9c-2.71,6.83-9.14,11.74-16.36,12.76,1.72-.43,3.43-.93,5-1.75,4.67-2.25,8.41-6.55,10.03-11.43,0,0,1.33.42,1.33.42h0Z"/>
  <path class="cls-2" d="M159.85,194.89c4.34,7.25,8.69,14.52,12.31,22.16-4.03-7.41-8.76-14.42-13.48-21.4,0,0,1.17-.76,1.17-.76h0Z"/>
  <polygon class="cls-2" points="180.34 237.61 174.32 223.45 181.6 237 180.34 237.61 180.34 237.61"/>
  <path class="cls-2" d="M274.11,223.1c-.16-5.97-.07-11.93.85-17.83,1.02-5.88,3.27-11.46,6.01-16.72-3.93,7.97-6.06,16.73-5.79,25.64,0,2.95.11,5.91.32,8.83l-1.39.08h0Z"/>
  <path class="cls-2" d="M207.42,129.86c-2.18-1.94-2.15-5.52-2.14-5.67h.7s-.02,3.42,1.91,5.15l-.47.52Z"/>
  <path class="cls-2" d="M209.53,129.39c-3.02-2.24-2.25-6.97-2.22-7.17l.69.12s-.73,4.51,1.95,6.49l-.42.56Z"/>
  <path class="cls-2" d="M210.77,128.35c-1.49-1.49-2.43-5.19-2.47-5.35l.68-.17s.93,3.67,2.28,5.02l-.49.5Z"/>
  <path class="cls-2" d="M213.95,127.95c-3.05-.96-3.79-4.8-3.82-4.97l.69-.13s.69,3.6,3.34,4.43l-.21.67Z"/>
  <path class="cls-2" d="M216,127.25c-2.9-.25-3.51-3.38-3.52-3.41l.69-.13c.02.11.52,2.64,2.89,2.84l-.06.7Z"/>
  <rect class="cls-2" x="214.7" y="122.56" width=".7" height="3.12" transform="translate(-30.03 164.02) rotate(-39.24)"/>
  <path class="cls-2" d="M219.4,125.99c-2.24,0-3.61-2.79-3.68-2.92l.63-.3s1.55,3.14,3.74,2.41l.22.66c-.32.11-.62.15-.91.15Z"/>
  <path class="cls-2" d="M218.09,124.02c-.36-.35-2.15-2.11-2.38-2.68l.65-.26c.12.29,1.22,1.47,2.22,2.44l-.49.5Z"/>
  <rect class="cls-2" x="219.96" y="121.5" width=".7" height="4.54" transform="translate(-17.91 208.06) rotate(-48.81)"/>
  <path class="cls-2" d="M223.37,124.16c-2,0-3.43-3.04-3.49-3.18l.63-.29c.4.86,1.72,3.04,3.13,2.74l.15.68c-.14.03-.29.05-.42.05Z"/>
  <rect class="cls-2" x="222.65" y="120.97" width=".7" height="2.44" transform="translate(-7.15 230.32) rotate(-53.88)"/>
  <path class="cls-2" d="M226.72,123.26c-2.74-.34-3.71-2.84-3.75-2.94l.65-.25c.03.09.87,2.21,3.19,2.5l-.09.69Z"/>
  <rect class="cls-2" x="225.07" y="119.84" width=".7" height="1.8" transform="translate(-30.01 108.5) rotate(-25.43)"/>
  <path class="cls-2" d="M228.6,122.15c-.89,0-1.59-.26-2.08-.79-.87-.93-.7-2.33-.69-2.39l.69.09s-.13,1.14.52,1.83c.39.41.99.6,1.79.56l.04.7c-.09,0-.17,0-.26,0Z"/>
  <rect class="cls-2" x="228.04" y="119.74" width=".7" height="1.28" transform="translate(-18.26 196.66) rotate(-44.98)"/>
  <path class="cls-2" d="M232.41,121.18c-2.57,0-3.23-1.76-3.25-1.84l.66-.23-.33.12.33-.12c.02.06.58,1.42,2.71,1.37l.02.7s-.08,0-.12,0Z"/>
  <path class="cls-2" d="M232.51,119.85c-1.43-.06-2.26-1.1-2.29-1.15l.55-.43s.67.84,1.77.88l-.03.7Z"/>
  <path class="cls-2" d="M233.83,119.9c-1.68,0-1.96-1.33-1.97-1.34l.68-.14c.02.1.27,1,1.79.74l.11.69c-.23.04-.43.05-.62.05Z"/>
  <rect class="cls-2" x="234.05" y="118.06" width=".7" height="1.33" transform="translate(-21.4 178.79) rotate(-40.08)"/>
  <path class="cls-2" d="M236.5,118.62c-1.26,0-1.91-.72-1.94-.76l.53-.46-.26.23.26-.23s.66.7,1.92.48l.12.69c-.22.04-.43.06-.63.06Z"/>
  <path class="cls-2" d="M238.11,117.19c-.81,0-1.79-.41-2.04-.52l.28-.64c.68.3,1.83.62,2.16.38l.43.55c-.21.17-.51.23-.82.23Z"/>
  <rect class="cls-2" x="201.69" y="126.09" width="3.84" height=".7" transform="translate(-8.42 238.19) rotate(-59.63)"/>
  <path class="cls-2" d="M201.39,128.75l-.49-.5c1.21-1.18,2.37-4.22,2.38-4.25l.65.25c-.05.13-1.23,3.21-2.55,4.5Z"/>
  <path class="cls-2" d="M198.9,128.41l-.32-.62c1.64-.84,3.46-4.66,3.48-4.7l.63.3c-.08.17-1.95,4.08-3.79,5.03Z"/>
  <path class="cls-2" d="M197.33,127.25l-.38-.58c2.8-1.84,3.61-3.36,3.62-3.38l.62.32c-.03.07-.88,1.69-3.86,3.65Z"/>
  <path class="cls-2" d="M194.63,127.58l-.19-.67c2.84-.81,5-4.14,5.02-4.18l.59.38c-.09.15-2.32,3.59-5.42,4.47Z"/>
  <path class="cls-2" d="M192.97,126.79l-.1-.69s2.43-.41,4.87-3.1l.52.47c-2.62,2.89-5.17,3.3-5.28,3.32Z"/>
  <path class="cls-2" d="M191.38,125.84l-.21-.67c2.23-.69,4.94-2.53,4.97-2.55l.39.58c-.11.08-2.82,1.91-5.15,2.64Z"/>
  <path class="cls-2" d="M190.06,124.56c-.14,0-.28,0-.42-.02l.05-.7c2.67.21,6-1.92,6.03-1.95l.38.59c-.14.09-3.23,2.07-6.04,2.07Z"/>
  <path class="cls-2" d="M188.73,123.8l-.05-.7c2.79-.2,4.66-1.57,4.67-1.58l.42.56c-.08.06-2.04,1.5-5.04,1.72Z"/>
  <path class="cls-2" d="M188.39,122.61c-.41,0-.83-.06-1.25-.22l.25-.65c1.52.57,3.31-.47,3.33-.48l.36.6c-.07.04-1.28.75-2.68.75Z"/>
  <rect class="cls-2" x="188.03" y="120.49" width="3.01" height=".7" transform="translate(-33.42 92.25) rotate(-25.21)"/>
  <rect class="cls-2" x="188.13" y="119.12" width="1.44" height=".7" transform="translate(-28.95 69.48) rotate(-19.39)"/>
  <rect class="cls-2" x="251.46" y="108.79" width=".7" height="1.34" transform="translate(27.78 268.21) rotate(-58.82)"/>
  <rect class="cls-2" x="251.32" y="105.65" width=".7" height="3.39" transform="translate(5.87 227.52) rotate(-49.16)"/>
  <polygon class="cls-2" points="253.53 107.05 251.29 104.86 251.78 104.36 254.02 106.55 253.53 107.05"/>
  <polygon class="cls-2" points="254.47 105.39 250.36 101.47 250.84 100.97 254.95 104.88 254.47 105.39"/>
  <rect class="cls-2" x="252.54" y="98.43" width=".7" height="6.89" transform="translate(5.36 216.16) rotate(-46.72)"/>
  <rect class="cls-2" x="254.66" y="100.96" width=".7" height="3.2" transform="translate(2.53 211.2) rotate(-45.19)"/>
  <polygon class="cls-2" points="252.82 100.8 249.87 97.89 250.36 97.39 253.31 100.3 252.82 100.8"/>
  <rect class="cls-2" x="251.17" y="95.94" width=".7" height="3.06" transform="translate(-2.88 187.14) rotate(-40.6)"/>
  <rect class="cls-2" x="254.66" y="98.4" width=".7" height="5.32" transform="translate(.24 202.74) rotate(-43.38)"/>
  <rect class="cls-2" x="253.65" y="93.45" width=".7" height="10.17" transform="translate(-.66 195.36) rotate(-42.02)"/>
  <rect class="cls-2" x="254.2" y="91.73" width=".7" height="11.83" transform="translate(-.14 194.93) rotate(-41.89)"/>
  <rect class="cls-2" x="254.54" y="90.34" width=".7" height="12.75" transform="translate(1.39 197.03) rotate(-42.37)"/>
  <g>
    <path class="cls-2" d="M204.45,161.4s7.79,4.75,12.7,4.48,10.84-4.8,10.84-4.8v-2.01s-9.39,5.11-23.54,2.33Z"/>
    <path class="cls-2" d="M216.75,166.25c-4.96,0-12.16-4.36-12.48-4.55l-1.67-1.02,1.92.38c13.84,2.72,23.21-2.25,23.31-2.3l.52-.28v2.77l-.14.11c-.25.19-6.07,4.6-11.03,4.87-.14,0-.28.01-.43.01ZM206.4,162.09c2.57,1.36,7.39,3.62,10.74,3.44,4.34-.24,9.6-3.96,10.51-4.63v-1.28c-2.05.94-10.04,4.14-21.24,2.46Z"/>
  </g>
  <rect class="cls-2" x="187.85" y="150.11" width=".7" height="3.57" transform="translate(-22.42 33.01) rotate(-9.46)"/>
  <rect class="cls-2" x="189.68" y="150.83" width=".7" height="4.07" transform="translate(-10.46 14) rotate(-4.11)"/>
  <rect class="cls-2" x="189.88" y="152.99" width="4.33" height=".7" transform="translate(9.9 318.32) rotate(-80.78)"/>
  <path class="cls-2" d="M194.22,158.74c-.88-1.65-1.15-4.91-1.16-5.05l.7-.06s.27,3.26,1.08,4.77l-.62.33Z"/>
  <path class="cls-2" d="M192.97,158.34c-.92-1.14-.6-3.79-.55-4.08l.69.09c-.1.73-.22,2.78.41,3.55l-.54.44Z"/>
  <path class="cls-2" d="M196.81,160.16c-1.51-1.28-1.35-2.93-1.06-3.61l.64.27c-.03.06-.62,1.55.87,2.81l-.45.53Z"/>
  <path class="cls-2" d="M198.75,161.24c-.39-.19-.81-1.44-1.26-3.72l.68-.14c.55,2.82.93,3.25.95,3.27l-.37.58Z"/>
  <path class="cls-2" d="M200.99,161.88c-.99-1.07-1.8-3.09-1.83-3.18l.65-.26s.79,1.98,1.69,2.96l-.51.47Z"/>
  <path class="cls-2" d="M201.92,161.94s-.07-.37-.54-1.99l.67-.2c.49,1.67.56,2.04.56,2.08l-.69.11Z"/>
  <path class="cls-2" d="M195.33,157.93c-.14,0-.3-.08-.39-.38l-.05-.21c-.03-.18-.04-.38-.02-.62.01-.12.03-.24.06-.36-.17-1.4-.48-3.46-.48-3.46l.69-.1s.16,1.07.32,2.19c.34-.67.71-1.18.73-1.22l.57.41s-.84,1.18-1.12,2.23l.04.37c.02.15.03.29.03.39.02.31.05.69-.3.75-.02,0-.05,0-.08,0Z"/>
  <path class="cls-2" d="M196.99,157.75c-.87-1.57-.32-3.47-.3-3.55l.67.2s-.49,1.7.24,3.01l-.61.34Z"/>
  <path class="cls-2" d="M199.18,158.04c-.75-1.43-.63-4.27-.63-4.39l.7.03s-.11,2.77.55,4.04l-.62.32Z"/>
  <path class="cls-2" d="M198.93,159.3c-.85-.98-1.41-3.35-1.43-3.45l.68-.16s.54,2.3,1.28,3.15l-.53.46Z"/>
  <path class="cls-2" d="M200.61,160.12c-1.19-.95-.91-4.3-.88-4.68l.7.07c-.12,1.29-.06,3.53.62,4.07l-.43.55Z"/>
  <path class="cls-2" d="M201.79,159.93c-1.12-.75-.94-4.52-.89-5.27l.7.05c-.11,1.7,0,4.26.58,4.65l-.39.58Z"/>
  <path class="cls-2" d="M203.05,159.94c-.03-.11-.71-2.63-.87-5.89l.7-.03c.16,3.18.84,5.72.84,5.74l-.67.18Z"/>
  <path class="cls-2" d="M206.1,159.37c-1.9-1.51-1.38-4.98-1.36-5.12l.69.11s-.48,3.21,1.1,4.47l-.43.55Z"/>
  <path class="cls-2" d="M205.5,162.4c-1.36-.72-1.31-4.31-1.3-4.71l.7.02c-.04,1.37.18,3.68.92,4.08l-.33.62Z"/>
  <path class="cls-2" d="M206.85,158.31c-.8-.97-.87-3.94-.88-4.27h.7c.01.83.17,3.16.72,3.83l-.54.44Z"/>
  <path class="cls-2" d="M206.46,162.33c-1.01-1.15-.1-3.51-.06-3.61l.65.26c-.22.57-.67,2.2-.06,2.89l-.53.46Z"/>
  <path class="cls-2" d="M207.99,158.27c-.29-.5-.31-1.48-.31-2.62,0-.33,0-.74-.02-.83l.23-.06.33-.33c.16.16.16.37.16,1.22,0,.71,0,1.89.21,2.27l-.61.35Z"/>
  <rect class="cls-2" x="206.88" y="158.57" width=".7" height="3.92" transform="translate(-8.47 11.57) rotate(-3.13)"/>
  <rect class="cls-2" x="208.03" y="158.83" width=".7" height="4.34" transform="translate(-16.52 24.02) rotate(-6.35)"/>
  <rect class="cls-2" x="209.44" y="154.3" width=".7" height="3.79"/>
  <rect class="cls-2" x="207.76" y="160.43" width="3.46" height=".7" transform="translate(15.49 339.94) rotate(-80.23)"/>
  <rect class="cls-2" x="210.19" y="159.05" width=".7" height="2.78" transform="translate(-22.12 34.19) rotate(-8.82)"/>
  <rect class="cls-2" x="211.17" y="155.75" width=".7" height="5.04" transform="translate(-17 25.72) rotate(-6.69)"/>
  <path class="cls-2" d="M211.47,162.44c-1.04-.15-1.12-2.68-1.07-4.18l.7.02c-.05,1.68.18,3.34.48,3.47l-.11.69Z"/>
  <rect class="cls-2" x="212.27" y="154.28" width=".7" height="2.12" transform="translate(-26.88 45.89) rotate(-11.59)"/>
  <path class="cls-2" d="M213.86,163.4c-.79-.85-1.1-5.09-1.15-5.93l.7-.04c.12,1.99.5,5.01.96,5.5l-.51.48Z"/>
  <path class="cls-2" d="M212.82,164.64c-.5-1.16-.27-5.39-.24-5.87l.7.04c-.07,1.25-.18,4.7.19,5.55l-.64.28Z"/>
  <path class="cls-2" d="M214.29,159.57c-.58-.58-.95-3.86-1.05-4.86l.69-.07c.2,1.91.58,4.15.85,4.43l-.49.49Z"/>
  <rect class="cls-2" x="215.13" y="157.85" width=".7" height="5.35" transform="translate(-21.61 34.09) rotate(-8.61)"/>
  <path class="cls-2" d="M216.9,160.42c-1.84-1.99-1.78-5.4-1.77-5.54l.7.02s-.05,3.27,1.59,5.05l-.51.47Z"/>
  <rect class="cls-2" x="216.15" y="153.64" width=".7" height="1.85" transform="translate(-25.94 45.09) rotate(-11.22)"/>
  <path class="cls-2" d="M217.6,159.88c-1.17-1.23-.8-4.03-.79-4.15l.69.09c-.1.72-.18,2.76.6,3.58l-.51.48Z"/>
  <rect class="cls-2" x="217.31" y="154.01" width=".7" height="1.49" transform="translate(-32.17 60.37) rotate(-14.72)"/>
  <rect class="cls-2" x="219.02" y="158.25" width=".7" height="4.5" transform="translate(-19.06 29.99) rotate(-7.5)"/>
  <path class="cls-2" d="M220.3,159.27c-.51-.87-1.5-2.97-1.54-3.06l.63-.3s1.01,2.17,1.51,3l-.6.35Z"/>
  <path class="cls-2" d="M220.97,158.85c-.03-2-1.43-4.62-1.44-4.65l.62-.33c.06.11,1.49,2.8,1.52,4.97h-.7Z"/>
  <path class="cls-2" d="M222.3,161.07c-.06-.35-.61-4.15-.63-4.32l.69-.1s.57,3.96.63,4.29l-.69.12Z"/>
  <rect class="cls-2" x="223.21" y="154.13" width=".7" height="4.9" transform="translate(-42.19 94.35) rotate(-21.83)"/>
  <rect class="cls-2" x="220.49" y="159.64" width=".7" height="1.37"/>
  <polygon class="cls-2" points="225.19 159.73 224.13 156.04 224.8 155.85 225.86 159.54 225.19 159.73"/>
  <path class="cls-2" d="M227.1,158.86c-.75-.54-1.42-1.95-1.45-2.01l.63-.3c.17.36.73,1.38,1.23,1.74l-.41.57Z"/>
  <path class="cls-2" d="M228.34,158.38c-1.13-.74-2.17-3.89-2.28-4.24l.66-.21c.29.9,1.22,3.36,2,3.87l-.38.58Z"/>
  <path class="cls-2" d="M229.91,160.31c-.16-.44-1.53-3.25-2.23-4.68l.63-.31c.08.17,2.04,4.16,2.26,4.74l-.65.24Z"/>
  <rect class="cls-2" x="229.88" y="155.83" width=".7" height="3.73" transform="translate(-47.64 132.02) rotate(-29.13)"/>
  <rect class="cls-2" x="230.58" y="155.08" width=".7" height="3.63" transform="translate(-42.46 100.29) rotate(-22.5)"/>
  <rect class="cls-2" x="231.83" y="154.53" width=".7" height="4.68" transform="translate(-47.91 148.73) rotate(-32.38)"/>
  <polygon class="cls-2" points="234.24 157.84 232.9 154.82 233.54 154.53 234.88 157.56 234.24 157.84"/>
  <polygon class="cls-2" points="235.34 155.69 234.7 153.78 235.36 153.55 236.02 155.58 235.65 155.59 235.34 155.69"/>
  <path class="cls-2" d="M132.7,176.55l-2.83-3.49c-1.56.31-3.15.59-4.72.84-2.49.4-5.02.73-7.53.99l-.14-1.39c2.48-.26,4.99-.59,7.45-.98,1.7-.27,3.41-.58,5.08-.92l.41-.08,3.36,4.14-1.08.88Z"/>
  <path class="cls-2" d="M136.68,246.4l-.26-.35c-21.06-28.89-23.89-36.06-24-36.35l-.04-.15c-.02-.15-2.15-14.86-2.78-24.07-.54-7.88,1.45-10.72,2.31-11.57l-3.09-30.48.23-.23c3.69-3.81,10.08-1.5,10.35-1.4l.17.09c1.45,1.06,3.39,2.93,4.46,5.88.5,1.39.75,2.85.74,4.36l-1.55,21.52-1.39-.1,1.55-21.48c.01-1.29-.21-2.59-.65-3.82-.93-2.56-2.61-4.21-3.89-5.16-.72-.24-5.66-1.76-8.55.87l3.11,30.61-.36.23s-2.63,1.98-2.03,10.59c.61,8.79,2.58,22.66,2.76,23.88.33.77,3.94,8.69,23.54,35.61l40.83-7.29c-3.72-.98-7.38-2.14-10.93-3.46-2.41-.89-6.04-2.24-10.57-4.59-2.69-1.39-4.58-2.56-6.41-3.69-7.5-4.63-12.91-7.97-17.51-13.72-.86-1.08-1.68-2.21-2.43-3.38-.53-.51-.92-1.16-1.12-1.89l-1.39-5.19,2.67,4.66c.29.51.6,1.02.92,1.52.36.31.8.52,1.28.59.77.12,1.64-.25,2.61-1.11.22-.17,4.11-3.2,1.92-11.88l-.16-.63.62-.2c.19-.06,4.61-1.55,5.26-6.74-.43-1.07-2.96-7.29-5.84-11.95-1.72.21-3.42.62-5.04,1.23-2.3.86-4.42,2.1-6.32,3.69l-.89-1.07c2.02-1.68,4.28-3,6.73-3.92,1.87-.7,3.83-1.16,5.82-1.36l.43-.04.23.36c3.31,5.23,6.22,12.64,6.25,12.72l.06.16-.02.17c-.55,5.07-4.17,7.19-5.64,7.85,2.1,9.21-2.35,12.57-2.54,12.71-1.13,1.01-2.28,1.52-3.39,1.44.35.48.7.95,1.07,1.4,4.45,5.56,9.5,8.68,17.15,13.4,1.81,1.12,3.67,2.27,6.32,3.64,4.45,2.31,8.04,3.64,10.42,4.52,4.5,1.67,9.19,3.08,13.94,4.2l3.29.77-48.23,8.62Z"/>
  <path class="cls-2" d="M137.62,194.71c-.41-.22-.75-.48-1.09-.73-.27-.64-1.03-2.38-1.31-3.05-.29-.67-1.04-2.4-1.32-3.04.05-.42.09-.84.2-1.29.4.23.74.48,1.08.74.28.64,1.03,2.38,1.32,3.04.29.67,1.04,2.4,1.33,3.04-.04.42-.09.84-.21,1.3h0Z"/>
  <path class="cls-2" d="M134.38,187.92c1.63-1.33,2.82-3.3,3.24-5.53.05,2.26-.72,4.62-2.24,6.5l-1-.97h0Z"/>
  <path class="cls-2" d="M109.55,184.41s-.01-.05-.02-.08l-4.47-19.03.77-.1c4.01-.52,5.64.52,6.3,1.49h0c.4.59.46,1.09.64,2.73l.12,1.1c.18,1.54.34,2.78.45,3.57l.05.32-.21.24c-.74.83-1.33,1.76-1.76,2.76-1.09,2.55-.88,4.98-.51,6.59l.02.07-1.36.32ZM106.78,166.51l2.81,11.93c.14-.51.31-1.03.54-1.56.44-1.04,1.05-2.02,1.79-2.9-.11-.8-.26-1.93-.41-3.29l-.12-1.11c-.16-1.48-.2-1.81-.4-2.1-.27-.39-1.2-1.22-4.19-.97Z"/>
  <path class="cls-2" d="M117.61,154.55l-.87-.22s-3.48-.86-5.53-.32l-.74.19-1.52-9.16.43-.24c.19-.1,4.64-2.5,7.95.06l.27.21v9.47ZM112.87,152.45c1.26,0,2.53.2,3.35.35v-7.01c-2.04-1.33-4.69-.41-5.72.04l1.11,6.7c.4-.05.83-.08,1.25-.08Z"/>
  <g>
    <path class="cls-2" d="M160.74,230.66c1.73,1.03,3.98,2.69,3.88,4.59-.29,6.07-24.01,9.43-23.95,9.76.07.36,18.3-3.04,40.12-7.23-2.89-.61-6.1-1.46-9.53-2.64-4.02-1.39-7.54-2.95-10.53-4.49Z"/>
    <path class="cls-2" d="M140.99,245.63h0c-.93.04-.94-.21-.99-.47l-.06-.28.16-.25q.21-.31,2.71-.82c13.88-2.81,20.98-5.7,21.12-8.59.06-1.18-1.17-2.54-3.54-3.96l.68-1.22c3.36,1.72,6.87,3.22,10.44,4.45,3.08,1.06,6.26,1.94,9.45,2.62l3.38.72-3.39.65c-29.33,5.63-37.54,7.12-39.92,7.15-.01,0-.02,0-.03,0ZM164.83,233.37c.36.63.52,1.27.49,1.91-.12,2.56-3.5,4.6-8.16,6.27,5.12-.95,11.75-2.2,20.29-3.84-2.16-.55-4.3-1.19-6.4-1.91-2.1-.72-4.18-1.54-6.22-2.43Z"/>
  </g>
  <g>
    <path class="cls-2" d="M107.55,172.85c.13.13.91.86,2.04.77,1.05-.08,1.98-.82,2.36-1.89.23.82.46,1.65.69,2.47-.53.6-1.12,1.39-1.62,2.39-1.3,2.62-1.18,5.13-1.03,6.35-.81-3.36-1.63-6.73-2.44-10.09Z"/>
    <path class="cls-2" d="M109.32,183.11l-3.01-12.43,1.73,1.67c.16.15.74.63,1.5.58.78-.06,1.46-.62,1.75-1.43l.73-2.08,1.39,4.96-.26.29c-.61.68-1.12,1.43-1.51,2.23-1.12,2.26-1.14,4.49-.96,5.96l-1.37.25ZM108.6,174.22l1.01,4.15c.18-.68.44-1.39.79-2.1.4-.8.89-1.56,1.47-2.25l-.18-.63c-.56.54-1.28.87-2.05.93-.38.03-.73-.02-1.04-.1Z"/>
  </g>
  <g>
    <path class="cls-2" d="M130.76,206.96s3.93,1.36,5.49-4,.68-9.28.68-9.28c0,0,2.04,3.92,1.38,9.08-.66,5.16-4.21,6.14-4.21,6.14,0,0-3.1,1.26-3.34-1.94Z"/>
    <path class="cls-2" d="M132.81,209.85c-.48,0-1.01-.09-1.49-.39-.75-.46-1.17-1.29-1.26-2.44l-.08-1.06,1,.35s1.19.37,2.35-.24c1.01-.53,1.77-1.64,2.25-3.3,1.48-5.11.67-8.9.66-8.93l-1.15-5.18,2.45,4.71c.09.17,2.13,4.17,1.45,9.49-.71,5.56-4.55,6.68-4.71,6.73-.06.03-.7.28-1.47.28ZM131.67,207.81c.1.2.23.36.39.46.56.35,1.47.11,1.78-.02.2-.06,3.19-.98,3.78-5.58.14-1.14.15-2.21.08-3.19-.14,1.12-.38,2.35-.77,3.67-.59,2.05-1.59,3.45-2.97,4.16-.84.43-1.66.52-2.29.5Z"/>
  </g>
  <path class="cls-2" d="M113.32,142.4c-22.79,0-41.33-18.54-41.33-41.33s18.54-41.34,41.33-41.34,41.33,18.54,41.33,41.34-18.54,41.33-41.33,41.33ZM113.32,61.13c-22.02,0-39.94,17.92-39.94,39.94s17.92,39.94,39.94,39.94,39.94-17.92,39.94-39.94-17.92-39.94-39.94-39.94Z"/>
  <path class="cls-2" d="M210.02,219.58c-1.86,0-3.44-1.41-3.61-3.24-.66-2.72-1.07-5.52-1.2-8.31-.12-2.63,0-5.29.34-7.91,0-.52.12-1.55.94-2.44.65-.7,1.53-1.12,2.5-1.17,3.69-.5,7.56-.87,11.39-1.11,4.75-.29,9.56-.38,14.3-.25.35-.02,1.5.02,2.5.9.73.64,1.16,1.52,1.21,2.48l.84,15.93c.1,1.97-1.44,3.66-3.44,3.77h0l-25.58,1.36c-.07,0-.13,0-.2,0ZM230.47,197.88c-3.33,0-6.64.1-9.92.3-3.76.23-7.56.6-11.3,1.1-.34.02-.55.12-.7.28-.21.23-.21.51-.21.56v.13s-.01.13-.01.13c-.34,2.49-.45,5.01-.33,7.51.13,2.65.51,5.31,1.15,7.89l.04.26c.02.43.41.76.88.74l25.58-1.36c.46-.02.82-.4.8-.83l-.84-15.93c-.02-.27-.17-.45-.26-.53-.25-.22-.56-.21-.62-.21-1.42-.04-2.83-.05-4.24-.05Z"/>
  <g>
    <path class="cls-2" d="M220.48,218.45c-.01.97-.03,1.95-.04,2.92-1.72.13-3.44.25-5.16.38-.43.99-.85,1.99-1.28,2.98,5.34-.4,10.68-.8,16.01-1.2.24-.92.48-1.84.72-2.76-2.16.16-4.32.32-6.49.48l.04-3.07c-1.27.09-2.54.18-3.8.26Z"/>
    <path class="cls-2" d="M212.9,225.52l1.9-4.43,4.95-.36.04-2.93,5.2-.36-.04,3.06,6.7-.5-1.09,4.19-17.66,1.32ZM215.75,222.42l-.66,1.54,14.37-1.08.35-1.34-6.27.47.04-3.07-2.41.17-.04,2.92-5.38.4Z"/>
  </g>
  <polygon class="cls-2" points="217.65 213.19 217.62 212.49 228.33 212.03 228.14 200.8 214.82 201.56 216.02 212.81 215.33 212.88 214.05 200.91 228.83 200.06 229.04 212.7 217.65 213.19"/>
  <path class="cls-2" d="M226.39,211.51c-1.08-3.42-2.06-4.11-2.56-4.21-.38-.08-.66.15-.74.23-.14.27-.46.67-.95.69-.77,0-1.51-.81-2.34-2.55-.45-.93-.99-1.44-1.6-1.5-1.26-.12-2.56,1.55-2.57,1.56l-.56-.42c.06-.08,1.55-1.99,3.2-1.84.87.09,1.6.73,2.16,1.9.96,2.01,1.53,2.18,1.69,2.15.21,0,.36-.32.36-.32l.05-.09s.57-.67,1.43-.5c1.15.23,2.19,1.8,3.09,4.69l-.67.21Z"/>
  <path class="cls-2" d="M225.6,204.57c-.49,0-.9-.4-.9-.9s.4-.9.9-.9.89.4.89.9-.4.9-.89.9ZM225.6,203.13c-.3,0-.55.24-.55.55s.24.55.55.55.55-.24.55-.55-.24-.55-.55-.55Z"/>
  <path class="cls-2" d="M72.73,99.59l-.02-.35c25.09-1.3,40.1-6.99,44.62-16.91,4.7-10.31-4.06-21.68-4.15-21.79l.27-.22c.09.12,8.98,11.64,4.19,22.15-4.58,10.05-19.69,15.81-44.92,17.12Z"/>
  <path class="cls-2" d="M119.97,140.44l-.35-.04c2.49-22.47,11.41-34.41,18.46-40.47,7.65-6.57,14.81-7.84,14.88-7.85l.06.34c-.07.01-7.15,1.27-14.73,7.79-6.99,6.02-15.85,17.89-18.32,40.23Z"/>
  <path class="cls-2" d="M81.88,125.86l-.08-.34c22.94-5.28,37.73-19.8,46.09-31.04,9.06-12.19,12.74-23.26,12.78-23.37l.33.11c-.04.11-3.73,11.24-12.83,23.47-8.4,11.29-23.24,25.87-46.29,31.17Z"/>
  <path class="cls-2" d="M138.7,132.94l-.35-.02c1.65-27.03-12.73-42.33-25.07-50.4-13.39-8.76-27.36-11.16-27.5-11.18l.06-.35c.14.02,14.17,2.43,27.63,11.23,7.91,5.17,14.07,11.51,18.33,18.83,5.32,9.16,7.64,19.89,6.91,31.89Z"/>
  <path class="cls-2" d="M82.69,126.61l-.08-.34c26.41-6.63,40.59-21.26,47.85-32.37,7.86-12.04,9.5-22.65,9.51-22.76l.35.05c-.02.11-1.66,10.78-9.55,22.89-7.29,11.17-21.54,25.88-48.06,32.54Z"/>
  <path class="cls-2" d="M141.01,130.96h-.35c.37-25.27-14.57-39.89-27.16-47.71-13.66-8.48-27.59-11.02-27.73-11.04l.06-.34c.14.02,14.13,2.57,27.85,11.09,8.06,5.01,14.46,11.06,19.01,18.01,5.69,8.68,8.49,18.78,8.33,30.01Z"/>
  <path class="cls-2" d="M118.37,141.73l-.35-.05c3.32-23.55,12.53-36.17,19.68-42.62,7.76-7,14.83-8.43,14.9-8.45l.07.34c-.07.01-7.07,1.44-14.76,8.38-7.1,6.41-16.25,18.97-19.55,42.4Z"/>
  <path class="cls-2" d="M72.69,100.41v-.35c25.19-.92,40.21-6.38,44.65-16.23,4.86-10.78-5.14-23.17-5.25-23.29l.27-.22c.1.13,10.24,12.68,5.29,23.66-4.5,9.98-19.63,15.51-44.97,16.43Z"/>
  <path class="cls-2" d="M71.75,101.06c-1.61.88-3.71,1.63-4.92,2.93,0-.03,0-.06,0-.11-.04-.05-.04-.04,0-.03,0,.02.15.05.25.08,6.95.39,13.98-1.11,21.01-1.09-4.61,1.19-9.3,1.92-14.04,2.32-2.53.04-5.44.63-7.84-.48-1.92-1.91,4.36-3.31,5.55-3.62h0Z"/>
  <path class="cls-2" d="M106.82,98.8c8.87-2.85,17.95-4.77,27.22-5.74-8.87,2.86-17.96,4.76-27.22,5.74h0Z"/>
  <path class="cls-2" d="M142.07,90.82c4.9-2.7,10.82-4.43,15.35-7.22-.75-.37-2.69-.47-3.86-.57,1.47-.25,2.84-.69,4.35-.18,3.31,2.7-13.86,7.87-15.84,7.97h0Z"/>
  <path class="cls-2" d="M69.83,109.04c-1.87,1.02-6.05,2.74-7.61,4.1-.09.1-.04.19-.08-.13,3.32.53,7.8.11,11.53.36-3.66.86-7.23,1.49-11.05,1.12-.77-.11-1.87-.45-1.81-1.44.09-.61.62-1.05,1.09-1.35,2.47-1.44,5.17-2.13,7.93-2.66h0Z"/>
  <path class="cls-2" d="M71.27,115.44c8.03-2.17,16.22-3.4,24.53-3.67-8.03,2.17-16.22,3.39-24.53,3.67h0Z"/>
  <path class="cls-2" d="M97.38,109.45c13.58-3.36,28.39-6.69,41.9-10.11,1.48-.46,35.89-8.38,24.44-9.55-3.51-.53-7.13-.51-10.72-.61,3.59-.22,7.18-.38,10.81-.07,20.42,3.75-63.72,20.42-66.43,20.34h0Z"/>
  <path class="cls-2" d="M91.45,115.44c10.27-2.02,24.6-4.67,34.66-6.87,11.49-2.48,23.07-4.85,34.04-9.16-1.32.64-2.64,1.31-4,1.91-9.53,3.97-19.7,6.4-29.75,8.61-11.56,2.35-23.2,4.34-34.95,5.51h0Z"/>
  <g>
    <line class="cls-1" x1="200.03" y1="198.77" x2="220.58" y2="193.67"/>
    <path class="cls-2" d="M200.03,198.77c6.8-1.91,13.65-3.61,20.55-5.09-6.8,1.91-13.65,3.6-20.55,5.09h0Z"/>
  </g>
  <path class="cls-2" d="M206.32,200.91c-.23-3.13-.24-6.27,0-9.41.24,3.13.23,6.27,0,9.41h0Z"/>
  <g>
    <path class="cls-1" d="M165.71,185.39c-.33-.29-12.61,1.63-12.61,1.63"/>
    <path class="cls-2" d="M165.71,185.39c-4.13.39-8.46,1.31-12.61,1.63,4.15-.8,8.38-1.68,12.61-1.63h0Z"/>
  </g>
  <g>
    <line class="cls-1" x1="163.14" y1="187.02" x2="162.07" y2="174.2"/>
    <path class="cls-2" d="M163.14,187.02c-.59-4.25-.95-8.53-1.07-12.82.59,4.25.95,8.53,1.07,12.82h0Z"/>
  </g>
  <g>
    <line class="cls-1" x1="107.55" y1="165.18" x2="91.86" y2="166.35"/>
    <path class="cls-2" d="M107.55,165.18c-5.21.63-10.45,1.02-15.69,1.18,5.21-.63,10.45-1.02,15.69-1.18h0Z"/>
  </g>
  <g>
    <line class="cls-1" x1="105.26" y1="166.13" x2="104.4" y2="156.73"/>
    <path class="cls-2" d="M105.26,166.13c-.52-3.11-.81-6.24-.85-9.39.52,3.11.8,6.24.85,9.39h0Z"/>
  </g>
  <g>
    <path class="cls-1" d="M71.27,41.41l1.33,82.1"/>
    <path class="cls-2" d="M71.27,41.41c.66,27.36,1.11,54.73,1.33,82.1-.66-27.36-1.11-54.73-1.33-82.1h0Z"/>
  </g>
  <g>
    <line class="cls-1" x1="115.95" y1="60.43" x2="63.32" y2="61.69"/>
    <path class="cls-2" d="M115.95,60.43c-17.54.64-35.08,1.06-52.63,1.26,17.54-.64,35.08-1.06,52.63-1.26h0Z"/>
  </g>
  <g>
    <line class="cls-1" x1="163.53" y1="98.19" x2="164.99" y2="135"/>
    <path class="cls-2" d="M163.53,98.19c.7,12.26,1.19,24.53,1.45,36.81-.7-12.26-1.19-24.53-1.45-36.81h0Z"/>
  </g>
  <g>
    <path class="cls-1" d="M250.6,141.23c7.98-.19,9.43,0,9.43,0"/>
    <path class="cls-2" d="M250.6,141.23c3.13-.29,6.3-.41,9.43,0-2.79.05-6.68.19-9.43,0h0Z"/>
  </g>
  <path class="cls-2" d="M253.77,140.42c.23,3.9.24,7.79,0,11.69-.24-3.9-.23-7.79,0-11.69h0Z"/>
  <path class="cls-2" d="M208.3,44.42c-5.17.23-10.34.24-15.51,0,5.17-.24,10.34-.23,15.51,0h0Z"/>
</svg>