<?xml version="1.0" encoding="UTF-8"?>
<svg id="Calque_2" data-name="Calque 2" xmlns="http://www.w3.org/2000/svg" viewBox="0 0 410.48 290.24">
  <defs>
    <style>
      .cls-1 {
        fill: #1d1d1b;
      }

      .cls-2 {
        fill: #202248;
      }
    </style>
  </defs>
  <path class="cls-2" d="M145.37,203.8l-.93-1.04,29.09-26.26c.28-.25.53-.46.76-.68l.13-.12,30.62-27.63c.19-.17.39-.34.57-.52l.6.4-.49-.5c.12-.1.15-.13.19-.17l1.07.9c-.09.11-.18.19-.29.28-.06.06-.13.13-.21.17-.1.11-.3.29-.51.47l-30.75,27.74c-.22.2-.45.4-.67.6l-.05.06-29.12,26.28Z"/>
  <path class="cls-2" d="M96.86,245.7l12.32-11.12c7.64-6.9,15.29-13.79,22.93-20.7l.94,1.04c-7.64,6.9-15.29,13.8-22.93,20.7l-8.81,7.95,36.5-5.92c55.17-8.95,110.35-17.9,165.51-26.86l1.5-.24c2.87-.46,5.73-.92,8.6-1.39,7.79-1.25,15.59-2.52,23.38-3.79l-45.37-133.34-3.43,3.1c-2.63,2.38-5.27,4.75-7.91,7.14h0c0-.09,0-.17,0-.26.03-.25.07-.5.1-.76-.03-.3-.06-.59-.09-.89h0c.96-.86,2.04-1.85,3-2.71,1.32-1.19,2.64-2.38,3.95-3.57l5-4.51,46.59,136.9-.81.13c-8.06,1.31-16.13,2.62-24.19,3.92-2.87.47-5.73.93-8.61,1.4l-1.49.24c-55.16,8.96-110.34,17.91-165.5,26.86l-41.17,6.68Z"/>
  <path class="cls-2" d="M194.12,71.84c.14,1.02.04,1.89-.2,2.88,0,0-.54,2.82-.54,2.82l-.54,2.82c-.15,1.02-.38,1.83-.88,2.75-.13-1.04-.04-1.87.2-2.88,0,0,.54-2.82.54-2.82l.54-2.82c.15-1.01.38-1.85.88-2.75h0Z"/>
  <g>
    <path class="cls-2" d="M213.97,82.61c-.08.38-.24,1.02-.8,1.38-.28.18-.57.22-.75.24-3.36.04-7.16-.13-11.27-.67-2.51-.32-4.87-.74-7.04-1.21.6-3.04,1.2-6.07,1.8-9.1,5.94,2.68,11.89,5.37,17.83,8.05.01-.2.04-.38.07-.57.08.21.2.52.22.89.03.25.04.6-.06.99Z"/>
    <path class="cls-2" d="M211.45,84.93c-3.49,0-6.97-.23-10.38-.68-2.39-.31-4.78-.72-7.1-1.22l-.67-.15,2.1-10.63,17.77,8.02.31-2.16.98,2.35c.11.27.24.64.27,1.1.05.42.02.82-.07,1.2-.09.39-.29,1.28-1.09,1.81-.31.2-.67.32-1.08.35-.34,0-.69,0-1.03,0ZM194.93,81.81c2.07.43,4.19.79,6.32,1.06,3.69.49,7.45.71,11.17.66.13-.01.27-.05.38-.12.31-.2.42-.59.49-.95v-.02c.06-.2.06-.39.06-.55l-16.93-7.64-1.5,7.56Z"/>
  </g>
  <g>
    <path class="cls-2" d="M245.46,81.8c-2.92.25-5.82.5-8.72.75-5.06.46-10.11.91-15.16,1.37-.32-.04-.56-.14-.74-.25-.98-.67-1.16-2.48-.5-4.55.22.27.46.53.68.8,3.47-1.35,7.04-2.68,10.7-4,4.3-1.55,8.51-3,12.64-4.34.2,1.56.36,3.14.54,4.74.2,1.84.38,3.67.56,5.48Z"/>
    <path class="cls-2" d="M221.56,84.63h-.08c-.38-.06-.72-.18-1.01-.36-1.28-.88-1.57-2.92-.8-5.35l.38-1.21,1.17,1.39c3.01-1.17,6.28-2.39,10.25-3.83,4.42-1.59,8.68-3.05,12.66-4.35l.8-.26.1.84c.14,1.15.27,2.31.4,3.49l.14,1.26c.18,1.75.36,3.47.53,5.19l.1,1.01-24.66,2.19ZM220.7,80.63c-.17,1.27.09,2.17.53,2.47.09.05.21.1.37.12l23.1-2.05c-.16-1.58-.32-3.17-.49-4.77l-.14-1.26c-.1-.88-.2-1.76-.3-2.63-3.74,1.22-7.71,2.59-11.81,4.07-4.16,1.51-7.56,2.78-10.68,4l-.47.18-.1-.12Z"/>
  </g>
  <path class="cls-2" d="M246.4,70.86c.44.93.6,1.76.67,2.77,0,0,.32,2.81.32,2.81l.32,2.81c.16,1.02.18,1.83-.02,2.85-.43-.95-.59-1.74-.67-2.77,0,0-.32-2.81-.32-2.81l-.32-2.81c-.16-1-.19-1.84.02-2.85h0Z"/>
  <rect class="cls-2" x="260.27" y="81.35" width="1.4" height="13.27"/>
  <path class="cls-2" d="M263.84,101.38l-1.32-.44c.66-2,1.68-3.82,3.03-5.43s3.18-3.07,5.12-4.06l.63,1.24c-1.78.91-3.4,2.19-4.69,3.72-1.24,1.47-2.17,3.14-2.78,4.97Z"/>
  <path class="cls-2" d="M271.97,126.73l-.33-1.36c6.39-1.54,11.06-7.75,12.78-10.35,3.27-5.08,4.48-10.03,3.59-14.7-.32-1.71-.93-4.9-3.77-7.07-1.5-1.15-3.3-1.8-5.37-1.92-.67-.04-1.32-.02-1.99.05l-.15-1.39c.74-.08,1.46-.1,2.21-.06,2.36.14,4.42.89,6.15,2.21,3.27,2.49,3.96,6.15,4.29,7.91.96,5.04-.32,10.33-3.8,15.73-1.81,2.74-6.75,9.29-13.62,10.94Z"/>
  <path class="cls-2" d="M223.72,153.29c-.25,0-.5,0-.74-.01l-1.46-.07c-.44-.03-.92-.07-1.38-.11l-.95-.12c-.4-.06-.8-.12-1.19-.19-.29-.04-.64-.1-.96-.17-.15-.02-.35-.06-.55-.11l-.27-.06c-.15-.02-.33-.06-.51-.11l-.16-.04c-.2-.04-.39-.09-.57-.15l-.41-.11c-.69-.22-1.94-.62-3.53-1.3l-.77-.32c-.28-.12-.54-.24-.81-.37l-.28-.13c-.21-.1-.43-.2-.64-.31-.65-.3-1.33-.67-2.06-1.07-.11-.04-.27-.13-.43-.24-.04-.02-.15-.07-.25-.14-.57-.33-1.08-.63-1.61-.97-.34-.21-.68-.43-1.03-.67-.28-.17-.59-.39-.88-.61-.58-.4-1.19-.86-1.79-1.34-.66-.51-1.29-1.05-1.93-1.63-2.96-2.68-5.39-5.75-7.22-9.11-2.17-4.02-3.42-8.48-4.06-14.46-.61-5.79-.66-13.01-.73-22.16-.02-4.34.08-7.51.14-9.02l1.39.05c-.06,1.5-.15,4.65-.14,8.95.07,9.11.12,16.31.72,22.03.62,5.87,1.79,10.04,3.9,13.94,1.75,3.23,4.08,6.17,6.93,8.74.61.56,1.22,1.07,1.86,1.57.58.47,1.17.91,1.74,1.3.28.21.56.41.84.58.36.25.68.45,1.01.66.51.33,1.01.62,1.48.89l.15.1c.06.04.11.07.17.09.17.1.26.16.35.2.75.41,1.41.76,2.05,1.06.22.11.43.21.63.3l.28.13c.26.12.5.23.75.34l.75.31c1.55.66,2.77,1.05,3.42,1.26l.41.11c.16.05.32.09.5.12l.14.03c.15.05.3.08.44.1l.32.07c.17.04.34.07.51.1.34.07.64.13.93.17.4.07.78.13,1.16.18l.92.11c.41.04.88.08,1.33.11l1.4.07c.45.01.93.01,1.4,0,.68,0,1.35-.03,2.03-.07,1.31-.09,2.54-.23,3.73-.44.96-.14,1.96-.34,3.07-.6,1.96-.47,3.93-1.07,5.86-1.8l.35-.14c.19-.07.38-.15.56-.22l.37-.16c.19-.08.38-.15.57-.24.32-.11.57-.23.83-.35l1.13-.52c.51-.23,1.03-.48,1.57-.76.43-.21.86-.42,1.29-.65h0s.38-.21.38-.21c.77-.4,1.57-.84,2.37-1.31.1-.06,10.31-6.22,12.68-20.09l.17-.99.87.51c.97.57,1.9.99,2.85,1.29l.14.04c.6.19,1.26.34,1.97.43l-.18,1.38c-.79-.1-1.54-.27-2.22-.49l.08-.7-.21.66c-.76-.24-1.5-.55-2.26-.94-2.76,13.85-12.74,19.85-13.17,20.1-.72.43-1.45.83-2.16,1.2l-.27.15c-.58.31-1.15.59-1.7.86-.54.28-1.08.53-1.6.77l-1.13.52c-.31.14-.61.27-.9.37-.15.07-.35.16-.56.24l-1.32.52c-1.98.75-4.01,1.37-6.03,1.85-1.15.27-2.19.48-3.17.63-1.23.21-2.5.36-3.86.45-.72.04-1.41.07-2.1.07-.24,0-.48.01-.73.01Z"/>
  <path class="cls-2" d="M187.6,119.89c-.14-.09-.3-.2-.45-.33-.23-.15-.54-.36-.85-.59l-.83-.65.87-1.09.8.62c.28.2.56.4.83.58.18.14.3.22.41.3l-.78,1.16Z"/>
  <path class="cls-2" d="M182.75,115.96c-1.41-1.35-3.48-3.48-5.15-6.46-.95-1.69-3.84-6.83-2.97-13.34.27-1.99.76-5.68,3.79-8.45,1.27-1.15,2.82-1.98,4.61-2.47l.37,1.34c-1.58.44-2.94,1.16-4.04,2.16-2.65,2.42-3.09,5.66-3.35,7.6-.81,6.05,1.91,10.88,2.81,12.47,1.57,2.81,3.55,4.84,4.89,6.13l-.96,1.01Z"/>
  <path class="cls-2" d="M219.95,143.6c-.49,0-11.66-.31-19.45-9.91-4.33-5.33-6.71-12.48-7.09-21.25l-.11-2.54,1.39,2.13c.06.09,5.72,8.56,17.51,10.42,11.94,1.87,25.76-3.44,41.05-15.81l1.11-.9.02,1.43c.01.67.14,16.5-10.2,27.17h0c-5.93,6.11-14.09,9.23-24.24,9.27ZM194.95,114.61c.64,7.45,2.87,13.56,6.63,18.2,7.37,9.08,18.26,9.39,18.37,9.4,9.75-.04,17.57-3.01,23.23-8.84h0c8.14-8.41,9.53-20.53,9.76-24.7-15.16,11.96-28.94,17.06-40.99,15.15-9.06-1.43-14.59-6.46-17-9.21Z"/>
  <path class="cls-2" d="M198.56,105.8l-.3-.15c-1.1-.54-2.09-1.22-2.94-2.01-2.48-2.27-3.38-5.02-4.16-7.44-.61-1.9-1-3.89-1.17-5.92l-.05-.62.61-.12s1.75-.36,4.74-.81c.11-.01.19-.02.27-.04.34-.06.62-.1.91-.14l.73-.11c2.92-.42,5.86-.78,8.77-1.08,1-.1,1.99-.2,2.97-.28.8-.08,1.6-.15,2.39-.21h.14c.95-.08,1.88-.15,2.81-.19.08-.01.24-.02.38-.03l.75-.04c.52-.04,1.08-.07,1.62-.1,9.74-.51,18.94-.3,27.41.63.38.04.76.08,1.14.13l2.81.35c1.03.14,2.01.28,2.98.44,1.03.15,2.08.34,3.12.53l.76.14-.22.74c-.83,2.82-2.14,5.45-3.9,7.82-3.54,4.74-8,7.17-11.12,8.38l-.22.05c-1.88.09-3.76-.12-5.57-.61-6.1-1.64-9.66-6.01-12.26-9.2-1.78-2.21-3.32-4.61-4.58-7.15l-1.04.13c-.41.82-.87,1.65-1.37,2.49-.77,1.28-1.58,2.47-2.44,3.56-.02.04-.08.12-.14.17-.2.27-.47.61-.76.94-1.45,1.7-3.02,3.25-4.66,4.58-2.42,1.99-5.13,3.68-8.07,5.04l-.3.14ZM218.45,87.83c1.25,2.56,2.78,4.98,4.56,7.19,2.48,3.04,5.87,7.21,11.54,8.73,1.64.44,3.33.64,5.03.57,2.94-1.16,7.1-3.46,10.4-7.87,1.51-2.03,2.67-4.26,3.45-6.64-.77-.14-1.53-.27-2.3-.38-.97-.15-1.94-.29-2.95-.43l-2.79-.35c-.37-.04-.74-.09-1.12-.12-8.02-.88-16.7-1.11-25.82-.69ZM191.43,90.79c.19,1.71.54,3.38,1.05,4.99.77,2.36,1.57,4.81,3.78,6.84.68.64,1.46,1.18,2.32,1.64,2.71-1.29,5.22-2.87,7.47-4.72,1.58-1.28,3.09-2.76,4.49-4.4.28-.32.53-.64.78-.96l.08-.11c.82-1.04,1.6-2.18,2.31-3.37.56-.93,1.05-1.82,1.47-2.69l-.46.03c-.1,0-.21,0-.32.02-.98.05-1.91.12-2.83.19-.92.08-1.71.14-2.51.22-.98.08-1.97.18-2.96.28-2.89.29-5.82.65-8.7,1.07l-1.56.24c-.08.02-.21.04-.34.06-1.91.29-3.3.54-4.05.68Z"/>
  <g>
    <path class="cls-2" d="M215.44,87.29h0c-.53,1.83-1.55,4.45-3.49,7.21-.03.04-.06.08-.08.11-1.86,2.62-3.88,4.37-5.34,5.47h-.03c-.92.01-2.5-.08-4.25-.84-2.32-1-3.65-2.59-4.23-3.38.27-.04.67-.11,1.14-.28.68-.22,1.16-.39,1.37-.82.17-.36.08-.74,0-1.07,0,0-.15-.63-.57-1.1-.64-.73-2.09-.93-3.59-.38-.33-.93-.67-1.87-.99-2.79.11-.01.22-.03.33-.06.52-.08,1.05-.15,1.58-.24,2.8-.4,5.72-.77,8.73-1.07.99-.1,1.98-.2,2.96-.28.85-.08,1.69-.15,2.52-.22.93-.07,1.87-.14,2.79-.18.2-.03.39-.03.57-.04.2-.01.38-.03.57-.04Z"/>
    <path class="cls-2" d="M206.35,100.78c-1.51,0-3.02-.31-4.39-.89-2.27-.99-3.71-2.5-4.52-3.61l-.68-.92,1.13-.18c.19-.03.57-.09,1.02-.25.54-.18.89-.3.97-.47.06-.13.01-.35-.05-.6,0,0-.12-.48-.42-.81-.4-.45-1.52-.67-2.82-.19l-.66.25-.24-.67c-.34-.94-.67-1.87-.99-2.8l-.28-.81.85-.11c.09-.01.17-.02.25-.04.34-.06.62-.1.91-.14l.73-.11c2.92-.42,5.86-.78,8.77-1.08,1-.1,1.99-.2,2.97-.28.8-.08,1.6-.15,2.39-.21h.14c.95-.08,1.88-.15,2.81-.19.08-.01.24-.02.38-.03l1.49-.11-.03.96c-.52,1.79-1.57,4.53-3.59,7.4-.04.07-.11.15-.16.2-1.44,2.06-3.24,3.89-5.42,5.53l-.19.14h-.23c-.06,0-.11,0-.17,0ZM199.26,96.29c.74.8,1.8,1.68,3.26,2.31,1.18.5,2.48.77,3.77.78,1.98-1.51,3.62-3.21,5.01-5.17,1.65-2.34,2.61-4.52,3.17-6.16-.03,0-.05,0-.08,0-.98.05-1.91.12-2.83.19-.92.08-1.71.14-2.51.22-.98.08-1.97.18-2.96.28-2.89.29-5.82.65-8.7,1.07l-1.08.16c.16.45.32.91.49,1.37,1.5-.36,2.92-.08,3.68.78.52.59.71,1.32.73,1.4.09.35.23.93-.04,1.53-.35.73-1.08.96-1.78,1.19-.04.01-.07.03-.11.04Z"/>
  </g>
  <g>
    <path class="cls-2" d="M251.23,88.74c-.14,1.12-.45,2.55-1.1,4.14-.52,1.27-1.12,2.3-1.66,3.11-.56.73-2.71,3.45-6.49,4.14-3.81.7-7.8-.92-10.39-4.14.27.01.64.04,1.1,0,.78-.08,1.34-.14,1.7-.53.52-.59.36-1.63-.03-2.29-.42-.68-1.1-.93-1.53-1.1-1.3-.47-2.5-.18-3.03,0-.33-.5-.86-1.45-1-2.76-.1-.85,0-1.56.11-2.06,3.45-.08,7.21-.03,11.26.24,1.44.1,2.82.22,4.17.35.68.07,1.34.15,1.99.22.66.08,1.3.17,1.94.25,1.02.14,1.99.28,2.96.43Z"/>
    <path class="cls-2" d="M240.21,100.99c-3.43,0-6.81-1.65-9.16-4.56l-.98-1.21,1.56.08c.32.02.63.04,1,0,.69-.07,1.08-.12,1.25-.31.25-.29.15-1.01-.12-1.46-.28-.46-.76-.65-1.15-.8-1.13-.41-2.18-.14-2.58,0l-.51.17-.3-.45c-.62-.92-1-1.99-1.12-3.08-.09-.75-.05-1.53.12-2.29l.12-.53h.55c3.72-.1,7.53-.02,11.32.22,1.44.1,2.83.22,4.19.35.39.04.77.08,1.15.13l2.81.35c1.03.14,2.01.28,2.98.44l.67.11-.08.67c-.18,1.46-.57,2.92-1.15,4.32-.46,1.12-1.04,2.21-1.73,3.23-1.86,2.42-4.25,3.94-6.94,4.44-.63.12-1.27.17-1.9.17ZM233.14,96.64c2.4,2.31,5.64,3.37,8.72,2.8,2.34-.43,4.44-1.78,6.06-3.88.61-.91,1.15-1.92,1.57-2.95.44-1.08.77-2.19.96-3.3-.74-.11-1.49-.22-2.26-.32l-2.79-.35c-.37-.04-.74-.09-1.12-.12-1.34-.12-2.72-.25-4.15-.35-3.56-.23-7.13-.32-10.62-.25-.05.44-.06.87,0,1.3.07.71.29,1.4.63,2.03.73-.17,1.8-.26,2.94.16.54.21,1.36.53,1.89,1.39.54.91.7,2.27-.04,3.11-.47.51-1.08.64-1.78.72Z"/>
  </g>
  <rect class="cls-2" x="206.2" y="93.82" width="12.86" height="1.39" transform="translate(34.75 244.54) rotate(-64.11)"/>
  <g>
    <path class="cls-2" d="M220.32,105.69s-1.17,5.97-4,6.84c-2.82.85-4.8-3.53-4.8-3.53l-1.17-3.19-1.62-2.04c1.05,1.19,5.33,5.33,11.59,1.93Z"/>
    <path class="cls-2" d="M215.58,113.33c-2.82,0-4.61-3.87-4.69-4.05l-1.15-3.14-1.55-1.95,1.07-.9c1.06,1.21,4.98,4.9,10.74,1.77l1.3-.71-.29,1.45c-.13.65-1.34,6.41-4.48,7.37-.33.1-.64.14-.94.14ZM212.17,108.75s1.78,3.75,3.94,3.1c1.54-.47,2.62-3.05,3.17-4.91-2.98,1.18-5.69.84-7.87-.24l.75,2.05h0Z"/>
  </g>
  <path class="cls-2" d="M251.88,103.99c2.75,1.09,4.88,3.29,5.86,6.08-2.51-1.6-4.35-3.52-5.86-6.08h0Z"/>
  <path class="cls-2" d="M196.54,109.05c-2.65,1.56-4.13,3.58-5.86,5.97-.26-3.08,2.64-6.46,5.86-5.97h0Z"/>
  <rect class="cls-2" x="218.45" y="124.13" width="1.39" height="18.24" transform="translate(-4.54 7.76) rotate(-2.01)"/>
  <rect class="cls-2" x="238.66" y="118.13" width="1.4" height="16.91" transform="translate(-31.07 140.24) rotate(-30.76)"/>
  <rect class="cls-2" x="195.64" y="126.14" width="13.03" height="1.39" transform="translate(42.81 304.49) rotate(-80.22)"/>
  <g>
    <path class="cls-2" d="M179.41,88.74s5.61,3.73,5.5,9.38c0,0-.39,3.31-2.75,6.29,0,0,.17,2.66,2.75,5.22l-1.28,1.39s-2.66-.84-2.07-5.99c0,0,8.54-8.08-2.16-16.29Z"/>
    <path class="cls-2" d="M183.85,111.82l-.42-.13c-.13-.04-3.2-1.08-2.55-6.74l.03-.25.18-.18s.47-.45,1.02-1.22c.95-1.39,1.49-2.79,1.78-3.79.16-.69.24-1.43.2-2.21-.15-2.83-1.87-5.53-5.1-8.01l.81-1.13c.24.16,5.93,4.01,5.82,9.98,0,.09-.09.71-.34,1.63-.44,1.98-1.42,3.57-2.18,4.58-.06.09-.13.18-.2.26.12.67.6,2.63,2.52,4.53l.48.47-2.04,2.21ZM182.2,106.97c.11,1.96.84,2.82,1.3,3.18l.47-.5c-.84-.94-1.4-1.86-1.77-2.67Z"/>
  </g>
  <g>
    <path class="cls-2" d="M274.06,112.62c-1.93,11.62-9.17,4.91-9.17,4.91,8.31.1,5.91-7.46,5.91-7.46-2.18-5.65-1.55-8.9-1.55-8.9.04-.06.1-.14.17-.24,2.2-2.92,7.23-6.36,11.24-4.57,3.65,1.64,4.29,6.64,4.32,6.93.28,2.47-.57,5.2-.75,5.76-.21.69-.37,1.01-.37,1.01-.01,0,1.2-2.34,1.22-5.28,0-1.09-.15-1.92-.21-2.18-.2-.95-1-4.9-4.21-6.25-2.33-.98-4.72-.1-5.66.25-1.74.64-2.94,1.71-4.09,2.73-1.04.93-1.56,1.39-1.65,1.82-.43,2.01,3.41,3.01,4.67,6.84.59,1.78.34,3.32.13,4.62Z"/>
    <path class="cls-2" d="M269.2,120.15c-2.47,0-4.67-2.01-4.78-2.11l-1.33-1.23,1.81.02c2.3.05,3.87-.55,4.74-1.71,1.41-1.89.51-4.82.5-4.85-1.87-4.86-1.72-8.02-1.61-8.96,0-.1.02-.19.04-.29l.04-.17c.15-.47.54-.87,1.25-1.52.82-.86,1.83-1.7,2.94-2.4.31-.2.65-.4,1-.57,2.26-1.17,4.83-1.68,7.14-.65,1.61.68,3.71,2.4,4.61,6.73.15.75.23,1.55.23,2.34-.01,2.34-.74,4.34-1.15,5.28-.19.48-.29.53-.44.61l-.66.34-.42-.97.15-.33s.03-.05.04-.08c.06-.14.16-.4.28-.79.63-2.03.89-3.97.72-5.47,0-.05-.59-4.88-3.9-6.37-2.07-.87-4.23-.07-5.14.27-.24.09-.47.19-.69.29-.41.21-.81.44-1.19.69-.73.5-1.37,1.06-1.99,1.62-.18.16-.36.32-.52.47-.32.34-.61.68-.86,1.01l-.07.09c-.02.52.52,1.04,1.43,1.88,1.13,1.04,2.54,2.33,3.24,4.47.65,1.96.36,3.69.15,4.95-.67,4.06-2.08,6.48-4.19,7.2-.45.15-.91.22-1.35.22ZM266.9,118.09c.92.5,2.11.9,3.2.53,1.56-.54,2.69-2.65,3.26-6.11h0c.21-1.24.44-2.65-.1-4.29-.59-1.79-1.8-2.9-2.86-3.88-.15-.14-.3-.28-.45-.41.15,1.44.55,3.43,1.5,5.89.06.19,1.13,3.66-.7,6.13-.84,1.14-2.14,1.85-3.86,2.14Z"/>
  </g>
  <path class="cls-2" d="M268.21,132.73c-.64,0-1.15-.15-1.4-.22-.59-.16-1.35-.37-1.92-1.04-.44-.51-.61-1.11-.7-2.57-.07-1-.07-2.05,0-3.13l.06-.91,1.02.35c.37.14.73.28,1.09.41,0,0,0-.02,0-.03l-.03-.25c-.07-.59-.14-1.26.06-2.11.11-.43.26-1.01.75-1.48.98-.94,2.66-.8,3.64-.13.76.52,1.1,1.32,1.32,2.03.23.78.36,1.58.39,2.38.13,2.97-1.12,5.6-2.03,6.11-.77.43-1.59.55-1.62.56-.23.03-.44.05-.64.05ZM265.54,126.8c-.02.69,0,1.36.04,2.01.08,1.34.21,1.58.36,1.75.3.35.76.48,1.25.61.28.08.79.23,1.46.14,0,0,.6-.09,1.14-.39.34-.23,1.44-2.2,1.32-4.83h0c-.03-.7-.14-1.38-.34-2.04-.22-.69-.43-1.05-.77-1.28-.57-.39-1.48-.4-1.89-.02-.19.18-.27.43-.37.82-.15.6-.09,1.07-.03,1.62l.02.19c.03.38.06.66.07.92.08,1.62,0,2.57-.23,2.82l-1.07,1.13-.13-1.56s-.02-.29-.08-1.6c-.26-.09-.51-.19-.76-.28Z"/>
  <path class="cls-2" d="M185.01,123.51c-.14,0-.3-.01-.45-.03-.11-.01-.74-.1-1.36-.45-1-.56-2.22-3.67-1.31-6.64.14-.45.35-1.03.85-1.44.09-.1.17-.15.22-.19.81-.55,2.18-.66,2.97.12.39.35.5.79.6,1.15.18.69.13,1.22.07,1.67l.22-.07.29.21c.3.22.58.42.85.59l.32.21v.38c0,.56-.01,1.04-.04,1.43-.07,1.13-.21,1.6-.57,2.03-.47.55-1.06.72-1.54.86-.37.11-.74.17-1.12.17ZM184.43,115.72c-.24,0-.49.07-.68.2-.26.22-.39.47-.52.88-.75,2.46.33,4.76.68,5.04.37.21.79.27.79.27.36.03.68.02,1.01-.09.44-.13.7-.21.89-.43.07-.08.17-.2.24-1.22.02-.28.03-.6.04-.97-.09-.06-.17-.12-.26-.18-.07,1.57-.14,1.71-.76,1.71h-.63l-.07-.62s-.12-1.14.03-2.56c.06-.55.1-.88,0-1.32-.08-.3-.12-.44-.21-.52-.13-.12-.33-.18-.55-.18Z"/>
  <path class="cls-2" d="M226.15,165.56c-2.99,0-5.45-.55-7.32-1.63l-.1-.06h0c-2.72-1.6-3.17-3.79-3.19-3.88l-.2-1.22c-.06-.26-.1-.54-.15-.81l-1.3-7.56,1.5.43c.16.05.32.09.5.12l.14.03c.15.05.3.08.44.1.33.08.6.15.87.2.31.07.61.12.92.18.38.07.76.14,1.14.19.28.04.58.08.87.11.41.06.78.1,1.16.12h.25c.16.03.27.04.38.04.4.04.69.06.98.07,1.38.04,2.36.02,3.46-.03,1.18-.06,2.4-.2,3.74-.41,1.16-.19,2.15-.4,3.05-.63,1.71-.43,3.42-.97,5.06-1.62l.77-.34.95-.37v9.51l-.08.16c-.06.1-1.42,2.58-4.53,4.63-.11.09-.28.19-.47.3l-.41.24c-.32.18-.64.36-.98.52-.98.47-2.01.84-3.05,1.09-.14.04-.32.08-.49.12l-.24.05c-1.1.22-2.19.32-3.36.34-.1,0-.2,0-.3,0ZM219.54,162.74c1.82,1,4.13,1.46,6.9,1.42,1.09-.01,2.1-.11,3.08-.31l.25-.05c.14-.03.28-.06.42-.1.98-.24,1.92-.58,2.81-1.01.3-.15.6-.31.88-.46l.42-.24c.14-.08.25-.14.35-.22,2.43-1.61,3.7-3.49,4.03-4.02v-7.07c-1.65.64-3.34,1.18-5.05,1.6-.93.24-1.97.45-3.17.65-1.39.22-2.67.36-3.9.43-1.14.05-2.29.06-3.47.03-.44-.02-.77-.03-1.11-.08-.09,0-.23,0-.38-.02-.11,0-.22,0-.34-.03-.34-.02-.75-.06-1.15-.12-.28-.03-.6-.07-.91-.11-.4-.06-.8-.13-1.19-.2-.32-.06-.64-.12-.96-.19-.27-.05-.56-.13-.85-.2-.13-.02-.3-.05-.47-.1h-.07s.92,5.34.92,5.34c.05.29.08.54.15.81l.2,1.24s.37,1.66,2.53,2.93l.1.07Z"/>
  <path class="cls-2" d="M191.65,229.18l-.15-.04c-1.04-.3-25.53-7.33-32.85-14.65l-.31-.31.14-.41c3.96-11.32,13.47-37.7,16.21-38.2,4.02-.73,33.94-8.31,40.59-18.15l1.03-1.52.24,1.81c.18,1.36.66,2.56,1.42,3.56,2.96,3.88,8.91,2.93,8.97,2.92,2.17-.1,4.17-.59,6.04-1.48,2.77-1.32,4.6-3.24,5.67-4.67v-4.74l1.16,1.01s4.33,3.72,10.28,4.63c.83.13,2.04.3,3.54.51,10.34,1.47,31.84,4.51,36.22,8.03l.13.14c.15.21,15.34,21.41,24.22,42.04l.36.83-122.92,18.71ZM159.95,213.8c7.16,6.69,29.76,13.36,31.79,13.95l120.82-18.39c-8.59-19.58-22.64-39.44-23.66-40.86-4.26-3.26-26.11-6.35-35.47-7.68-1.5-.21-2.72-.39-3.55-.51-4.54-.7-8.09-2.84-9.83-4.07v2.25l-.13.18c-1.15,1.58-3.17,3.78-6.33,5.29-2.04.97-4.23,1.52-6.5,1.61-.19.04-6.77,1.09-10.23-3.46-.61-.8-1.07-1.7-1.37-2.69-9.07,10.53-40.24,17.46-40.56,17.52-1.67.99-8.96,19.66-14.99,36.87Z"/>
  <path class="cls-2" d="M209.1,163.74c3.38,6,10.2,10.24,17.21,9.15-1.73.27-3.52.48-5.28.21-5.43-.64-10.12-4.19-13.14-8.66,0,0,1.21-.69,1.21-.69h0Z"/>
  <path class="cls-2" d="M247.77,159.67c-2.7,6.82-9.13,11.73-16.34,12.75,1.72-.43,3.43-.93,4.99-1.75,4.66-2.25,8.4-6.54,10.02-11.42,0,0,1.33.42,1.33.42h0Z"/>
  <path class="cls-2" d="M170.76,185.63c4.34,7.24,8.67,14.5,12.29,22.13-4.02-7.4-8.75-14.4-13.46-21.37,0,0,1.17-.76,1.17-.76h0Z"/>
  <polygon class="cls-2" points="191.22 228.29 185.21 214.16 192.48 227.69 191.22 228.29 191.22 228.29"/>
  <path class="cls-2" d="M284.88,213.8c-.16-5.96-.07-11.91.85-17.81,1.02-5.87,3.27-11.44,6-16.7-3.93,7.96-6.05,16.71-5.78,25.61,0,2.94.11,5.9.32,8.82l-1.39.08h0Z"/>
  <path class="cls-2" d="M218.27,120.68c-2.17-1.94-2.14-5.51-2.14-5.66h.7s-.02,3.42,1.91,5.14l-.46.52Z"/>
  <path class="cls-2" d="M220.38,120.21c-3.02-2.23-2.25-6.96-2.22-7.16l.69.12s-.73,4.51,1.94,6.49l-.42.56Z"/>
  <path class="cls-2" d="M221.62,119.17c-1.49-1.48-2.42-5.18-2.46-5.34l.68-.17s.92,3.67,2.28,5.02l-.49.49Z"/>
  <path class="cls-2" d="M224.8,118.77c-3.04-.96-3.78-4.8-3.81-4.96l.69-.13s.69,3.59,3.33,4.42l-.21.66Z"/>
  <path class="cls-2" d="M226.85,118.07c-2.9-.25-3.51-3.38-3.51-3.41l.69-.13c.02.11.52,2.63,2.89,2.84l-.06.69Z"/>
  <rect class="cls-2" x="225.54" y="113.39" width=".7" height="3.12" transform="translate(-21.78 168.8) rotate(-39.24)"/>
  <path class="cls-2" d="M230.24,116.81c-2.23,0-3.61-2.79-3.67-2.92l.63-.3s1.54,3.13,3.73,2.41l.22.66c-.32.1-.62.15-.91.15Z"/>
  <path class="cls-2" d="M228.93,114.84c-.36-.35-2.14-2.11-2.37-2.68l.65-.26c.12.29,1.22,1.47,2.21,2.44l-.49.5Z"/>
  <rect class="cls-2" x="230.79" y="112.33" width=".7" height="4.53" transform="translate(-7.31 213.08) rotate(-48.81)"/>
  <path class="cls-2" d="M234.2,114.98c-2,0-3.42-3.03-3.49-3.17l.63-.29c.4.86,1.72,3.03,3.13,2.74l.15.68c-.14.03-.29.05-.42.05Z"/>
  <rect class="cls-2" x="233.48" y="111.8" width=".7" height="2.44" transform="translate(4.71 235.3) rotate(-53.88)"/>
  <path class="cls-2" d="M237.55,114.09c-2.74-.34-3.71-2.84-3.75-2.94l.65-.25c.03.09.87,2.21,3.18,2.5l-.09.69Z"/>
  <rect class="cls-2" x="235.9" y="110.67" width=".7" height="1.8" transform="translate(-25.02 112.26) rotate(-25.43)"/>
  <path class="cls-2" d="M239.43,112.98c-.89,0-1.59-.26-2.08-.79-.87-.93-.7-2.33-.69-2.39l.69.09s-.13,1.14.51,1.83c.38.41.99.6,1.79.56l.04.7c-.09,0-.17,0-.26,0Z"/>
  <rect class="cls-2" x="238.87" y="110.57" width=".7" height="1.28" transform="translate(-8.61 201.63) rotate(-44.98)"/>
  <path class="cls-2" d="M243.23,112.01c-2.57,0-3.22-1.76-3.25-1.83l.66-.23-.33.12.33-.12c.02.06.58,1.42,2.7,1.37v.7s-.07,0-.11,0Z"/>
  <path class="cls-2" d="M243.34,110.68c-1.42-.06-2.25-1.1-2.29-1.15l.55-.43s.67.83,1.77.88l-.03.7Z"/>
  <path class="cls-2" d="M244.65,110.73c-1.67,0-1.96-1.33-1.96-1.34l.68-.14c.02.1.27.99,1.79.74l.11.69c-.23.04-.43.05-.62.05Z"/>
  <rect class="cls-2" x="244.87" y="108.89" width=".7" height="1.32" transform="translate(-12.95 183.6) rotate(-40.08)"/>
  <path class="cls-2" d="M247.31,109.45c-1.26,0-1.9-.72-1.94-.76l.52-.46-.26.23.26-.23s.66.7,1.92.47l.12.69c-.22.04-.43.06-.63.06Z"/>
  <path class="cls-2" d="M248.92,108.02c-.81,0-1.79-.41-2.04-.52l.28-.64c.68.3,1.83.62,2.15.37l.43.55c-.21.16-.51.23-.82.23Z"/>
  <rect class="cls-2" x="212.55" y="116.91" width="3.84" height=".7" transform="translate(4.87 243.02) rotate(-59.63)"/>
  <path class="cls-2" d="M212.25,119.57l-.49-.5c1.21-1.18,2.37-4.21,2.38-4.24l.65.25c-.05.13-1.23,3.21-2.55,4.49Z"/>
  <path class="cls-2" d="M209.76,119.23l-.32-.62c1.63-.84,3.46-4.66,3.48-4.7l.63.3c-.08.17-1.94,4.08-3.79,5.02Z"/>
  <path class="cls-2" d="M208.19,118.08l-.38-.58c2.8-1.84,3.61-3.36,3.61-3.38l.62.32c-.03.07-.88,1.69-3.85,3.64Z"/>
  <path class="cls-2" d="M205.5,118.4l-.19-.67c2.84-.81,4.99-4.14,5.01-4.17l.59.37c-.09.15-2.32,3.59-5.41,4.47Z"/>
  <path class="cls-2" d="M203.84,117.61l-.1-.69s2.43-.4,4.86-3.09l.52.47c-2.61,2.88-5.16,3.3-5.27,3.31Z"/>
  <path class="cls-2" d="M202.25,116.66l-.21-.67c2.23-.69,4.93-2.53,4.96-2.54l.39.58c-.11.08-2.82,1.91-5.14,2.63Z"/>
  <path class="cls-2" d="M200.93,115.38c-.14,0-.28,0-.42-.01l.05-.7c2.67.21,5.99-1.92,6.02-1.94l.38.59c-.14.09-3.23,2.07-6.03,2.07Z"/>
  <path class="cls-2" d="M199.61,114.62l-.05-.7c2.79-.2,4.65-1.57,4.67-1.58l.42.56c-.08.06-2.04,1.5-5.04,1.72Z"/>
  <path class="cls-2" d="M199.27,113.43c-.41,0-.83-.06-1.25-.22l.25-.65c1.52.57,3.31-.47,3.32-.48l.36.6c-.07.04-1.28.75-2.68.75Z"/>
  <rect class="cls-2" x="198.9" y="111.31" width="3" height=".7" transform="translate(-28.47 96.01) rotate(-25.21)"/>
  <rect class="cls-2" x="199.01" y="109.95" width="1.44" height=".7" transform="translate(-25.29 72.57) rotate(-19.39)"/>
  <rect class="cls-2" x="262.26" y="99.64" width=".7" height="1.34" transform="translate(40.82 273.03) rotate(-58.82)"/>
  <rect class="cls-2" x="262.11" y="96.5" width=".7" height="3.38" transform="translate(16.53 232.52) rotate(-49.16)"/>
  <polygon class="cls-2" points="264.32 97.89 262.09 95.71 262.57 95.21 264.81 97.39 264.32 97.89"/>
  <polygon class="cls-2" points="265.26 96.24 261.16 92.32 261.64 91.82 265.74 95.73 265.26 96.24"/>
  <rect class="cls-2" x="263.34" y="89.28" width=".7" height="6.88" transform="translate(15.42 221.14) rotate(-46.72)"/>
  <rect class="cls-2" x="265.46" y="91.81" width=".7" height="3.19" transform="translate(12.21 216.16) rotate(-45.19)"/>
  <polygon class="cls-2" points="263.62 91.65 260.67 88.75 261.16 88.25 264.11 91.15 263.62 91.65"/>
  <rect class="cls-2" x="261.97" y="86.8" width=".7" height="3.06" transform="translate(5.67 191.97) rotate(-40.6)"/>
  <rect class="cls-2" x="265.46" y="89.26" width=".7" height="5.32" transform="translate(9.47 207.66) rotate(-43.38)"/>
  <rect class="cls-2" x="264.45" y="84.31" width=".7" height="10.15" transform="translate(8.24 200.23) rotate(-42.02)"/>
  <rect class="cls-2" x="264.99" y="82.59" width=".7" height="11.82" transform="translate(8.73 199.8) rotate(-41.89)"/>
  <rect class="cls-2" x="265.34" y="81.21" width=".7" height="12.74" transform="translate(10.37 201.92) rotate(-42.37)"/>
  <g>
    <path class="cls-2" d="M215.31,152.18s7.78,4.74,12.69,4.48,10.82-4.8,10.82-4.8v-2.01s-9.38,5.1-23.51,2.33Z"/>
    <path class="cls-2" d="M227.59,157.02c-4.95,0-12.15-4.35-12.46-4.54l-1.67-1.02,1.92.38c13.83,2.71,23.18-2.24,23.28-2.29l.51-.28v2.77l-.14.1c-.25.19-6.06,4.6-11.02,4.87-.14,0-.28.01-.43.01ZM217.25,152.87c2.56,1.36,7.38,3.62,10.72,3.44,4.33-.24,9.58-3.96,10.49-4.63v-1.28c-2.05.94-10.03,4.13-21.22,2.46Z"/>
  </g>
  <rect class="cls-2" x="198.72" y="140.91" width=".7" height="3.57" transform="translate(-20.75 34.68) rotate(-9.46)"/>
  <rect class="cls-2" x="200.55" y="141.62" width=".7" height="4.06" transform="translate(-9.77 14.75) rotate(-4.11)"/>
  <rect class="cls-2" x="200.75" y="143.78" width="4.32" height=".7" transform="translate(28.12 321.32) rotate(-80.78)"/>
  <path class="cls-2" d="M205.08,149.52c-.88-1.64-1.15-4.9-1.16-5.04l.69-.06s.27,3.25,1.08,4.77l-.62.33Z"/>
  <path class="cls-2" d="M203.84,149.12c-.92-1.14-.59-3.78-.55-4.08l.69.09c-.1.73-.22,2.78.41,3.55l-.54.44Z"/>
  <path class="cls-2" d="M207.67,150.94c-1.5-1.28-1.35-2.92-1.05-3.61l.64.27c-.03.06-.62,1.54.86,2.81l-.45.53Z"/>
  <path class="cls-2" d="M209.61,152.01c-.39-.19-.81-1.44-1.26-3.71l.68-.13c.55,2.81.93,3.25.95,3.27l-.37.58Z"/>
  <path class="cls-2" d="M211.85,152.66c-.99-1.07-1.79-3.09-1.83-3.17l.65-.26s.79,1.98,1.69,2.96l-.51.47Z"/>
  <path class="cls-2" d="M212.78,152.71s-.07-.37-.54-1.98l.67-.2c.49,1.66.56,2.04.56,2.07l-.69.11Z"/>
  <path class="cls-2" d="M206.19,148.72c-.14,0-.3-.08-.39-.38l-.05-.21c-.03-.18-.04-.38-.02-.62.01-.12.03-.24.06-.36-.17-1.4-.48-3.46-.48-3.46l.69-.1s.16,1.07.31,2.19c.34-.67.71-1.18.73-1.21l.57.41s-.84,1.18-1.12,2.22l.04.37c.02.15.03.29.03.39.02.31.05.69-.3.75-.02,0-.05,0-.08,0Z"/>
  <path class="cls-2" d="M207.86,148.53c-.87-1.57-.32-3.46-.3-3.54l.67.2s-.48,1.7.24,3.01l-.61.34Z"/>
  <path class="cls-2" d="M210.04,148.82c-.74-1.43-.63-4.27-.63-4.39l.7.03s-.11,2.77.55,4.04l-.62.32Z"/>
  <path class="cls-2" d="M209.79,150.08c-.85-.98-1.41-3.34-1.43-3.45l.68-.16s.54,2.3,1.28,3.15l-.53.46Z"/>
  <path class="cls-2" d="M211.47,150.9c-1.19-.94-.91-4.3-.88-4.67l.69.07c-.12,1.29-.06,3.53.62,4.06l-.43.55Z"/>
  <path class="cls-2" d="M212.65,150.71c-1.12-.75-.94-4.52-.89-5.27l.7.04c-.11,1.69,0,4.25.58,4.64l-.39.58Z"/>
  <path class="cls-2" d="M213.9,150.72c-.03-.11-.7-2.63-.87-5.88l.7-.03c.16,3.17.84,5.71.84,5.73l-.67.18Z"/>
  <path class="cls-2" d="M216.96,150.15c-1.9-1.5-1.38-4.97-1.35-5.12l.69.11s-.48,3.21,1.1,4.46l-.43.55Z"/>
  <path class="cls-2" d="M216.36,153.18c-1.36-.72-1.3-4.3-1.29-4.71l.7.02c-.04,1.37.18,3.68.92,4.07l-.33.62Z"/>
  <path class="cls-2" d="M217.7,149.1c-.8-.97-.87-3.93-.88-4.27h.7c.01.83.17,3.16.72,3.82l-.54.44Z"/>
  <path class="cls-2" d="M217.31,153.1c-1.01-1.15-.1-3.51-.06-3.61l.65.26c-.22.57-.67,2.2-.06,2.89l-.52.46Z"/>
  <path class="cls-2" d="M218.84,149.05c-.29-.5-.31-1.48-.31-2.61,0-.33,0-.73-.02-.83l.23-.06.33-.33c.16.16.16.37.16,1.22,0,.7,0,1.88.21,2.27l-.61.35Z"/>
  <rect class="cls-2" x="217.73" y="149.35" width=".7" height="3.91" transform="translate(-7.95 12.15) rotate(-3.13)"/>
  <rect class="cls-2" x="218.88" y="149.61" width=".7" height="4.34" transform="translate(-15.43 25.16) rotate(-6.35)"/>
  <rect class="cls-2" x="220.29" y="145.09" width=".7" height="3.79"/>
  <rect class="cls-2" x="218.62" y="151.21" width="3.46" height=".7" transform="translate(33.58 342.97) rotate(-80.23)"/>
  <rect class="cls-2" x="221.04" y="149.83" width=".7" height="2.78" transform="translate(-20.58 35.75) rotate(-8.82)"/>
  <rect class="cls-2" x="222.02" y="146.54" width=".7" height="5.03" transform="translate(-15.85 26.92) rotate(-6.69)"/>
  <path class="cls-2" d="M222.32,153.22c-1.03-.15-1.12-2.68-1.07-4.17l.7.02c-.05,1.68.18,3.33.48,3.46l-.1.69Z"/>
  <rect class="cls-2" x="223.12" y="145.07" width=".7" height="2.12" transform="translate(-24.8 47.88) rotate(-11.59)"/>
  <path class="cls-2" d="M224.7,154.18c-.79-.85-1.09-5.08-1.15-5.92l.7-.04c.12,1.98.5,5,.96,5.49l-.51.48Z"/>
  <path class="cls-2" d="M223.66,155.41c-.5-1.16-.27-5.38-.24-5.86l.7.04c-.07,1.25-.18,4.69.19,5.55l-.64.28Z"/>
  <path class="cls-2" d="M225.14,150.35c-.58-.58-.95-3.86-1.05-4.85l.69-.07c.19,1.91.58,4.14.85,4.43l-.49.49Z"/>
  <rect class="cls-2" x="225.97" y="148.63" width=".7" height="5.34" transform="translate(-20.11 35.61) rotate(-8.61)"/>
  <path class="cls-2" d="M227.74,151.2c-1.83-1.99-1.78-5.39-1.77-5.53l.7.02s-.05,3.26,1.59,5.04l-.51.47Z"/>
  <rect class="cls-2" x="226.99" y="144.43" width=".7" height="1.85" transform="translate(-23.94 47.03) rotate(-11.22)"/>
  <path class="cls-2" d="M228.44,150.66c-1.17-1.23-.8-4.03-.79-4.15l.69.09c-.1.72-.18,2.75.6,3.57l-.51.48Z"/>
  <rect class="cls-2" x="228.15" y="144.8" width=".7" height="1.49" transform="translate(-29.48 62.82) rotate(-14.72)"/>
  <rect class="cls-2" x="229.86" y="149.04" width=".7" height="4.5" transform="translate(-17.77 31.32) rotate(-7.5)"/>
  <path class="cls-2" d="M231.13,150.05c-.51-.87-1.49-2.97-1.54-3.06l.63-.3s1.01,2.16,1.5,3l-.6.35Z"/>
  <path class="cls-2" d="M231.81,149.63c-.03-1.99-1.42-4.62-1.44-4.64l.61-.33c.06.11,1.49,2.8,1.52,4.96h-.7Z"/>
  <path class="cls-2" d="M233.14,151.84c-.06-.35-.61-4.15-.63-4.31l.69-.1s.57,3.95.63,4.29l-.69.12Z"/>
  <rect class="cls-2" x="234.04" y="144.91" width=".7" height="4.89" transform="translate(-37.99 97.72) rotate(-21.83)"/>
  <rect class="cls-2" x="231.33" y="150.42" width=".7" height="1.37"/>
  <polygon class="cls-2" points="236.02 150.51 234.96 146.82 235.63 146.63 236.69 150.32 236.02 150.51"/>
  <path class="cls-2" d="M237.93,149.64c-.75-.54-1.42-1.94-1.45-2l.63-.3c.17.36.72,1.37,1.23,1.74l-.41.57Z"/>
  <path class="cls-2" d="M239.17,149.17c-1.13-.74-2.17-3.88-2.28-4.24l.66-.21c.29.9,1.21,3.35,2,3.87l-.38.58Z"/>
  <path class="cls-2" d="M240.73,151.09c-.16-.44-1.53-3.25-2.23-4.67l.63-.31c.08.17,2.04,4.15,2.25,4.74l-.65.24Z"/>
  <rect class="cls-2" x="240.71" y="146.61" width=".7" height="3.72" transform="translate(-41.79 136.12) rotate(-29.13)"/>
  <rect class="cls-2" x="241.4" y="145.87" width=".7" height="3.62" transform="translate(-38.11 103.73) rotate(-22.5)"/>
  <rect class="cls-2" x="242.65" y="145.31" width=".7" height="4.68" transform="translate(-41.29 153.1) rotate(-32.38)"/>
  <polygon class="cls-2" points="245.06 148.63 243.72 145.6 244.36 145.32 245.69 148.35 245.06 148.63"/>
  <polygon class="cls-2" points="246.16 146.48 245.52 144.56 246.18 144.34 246.84 146.36 246.47 146.37 246.16 146.48"/>
  <path class="cls-2" d="M143.65,167.31l-2.83-3.48c-1.56.31-3.15.59-4.72.84-2.48.4-5.01.73-7.52.99l-.14-1.39c2.48-.26,4.98-.59,7.44-.98,1.69-.27,3.4-.58,5.08-.91l.41-.08,3.36,4.14-1.08.88Z"/>
  <path class="cls-2" d="M147.61,237.07l-.26-.35c-21.03-28.85-23.86-36.02-23.97-36.31l-.04-.15c-.02-.15-2.14-14.85-2.78-24.04-.54-7.87,1.45-10.71,2.31-11.55l-3.09-30.44.23-.23c3.69-3.8,10.07-1.49,10.34-1.39l.17.09c1.44,1.06,3.39,2.93,4.45,5.87.5,1.39.75,2.85.73,4.35l-1.55,21.49-1.39-.1,1.54-21.45c.01-1.29-.21-2.59-.65-3.82-.93-2.55-2.61-4.21-3.88-5.16-.72-.24-5.66-1.76-8.54.87l3.1,30.57-.36.23s-2.62,1.98-2.03,10.58c.6,8.78,2.58,22.63,2.75,23.85.33.77,3.93,8.68,23.51,35.57l40.78-7.28c-3.71-.98-7.37-2.14-10.91-3.45-2.4-.89-6.04-2.24-10.56-4.58-2.69-1.39-4.57-2.56-6.4-3.69-7.49-4.62-12.9-7.96-17.49-13.7-.86-1.08-1.67-2.21-2.42-3.37-.53-.51-.92-1.15-1.12-1.89l-1.39-5.18,2.67,4.65c.29.51.6,1.02.92,1.51.36.31.8.52,1.27.59.77.12,1.64-.25,2.61-1.11.22-.17,4.11-3.19,1.92-11.86l-.16-.63.62-.2c.19-.06,4.6-1.55,5.26-6.73-.43-1.07-2.96-7.28-5.83-11.93-1.72.21-3.41.62-5.03,1.23-2.29.86-4.42,2.1-6.32,3.68l-.89-1.07c2.02-1.68,4.28-3,6.72-3.92,1.87-.7,3.82-1.16,5.81-1.36l.43-.04.23.36c3.3,5.22,6.22,12.63,6.24,12.7l.06.16-.02.17c-.55,5.07-4.17,7.18-5.63,7.84,2.1,9.2-2.35,12.55-2.54,12.7-1.13,1.01-2.27,1.52-3.39,1.44.35.48.7.94,1.07,1.4,4.44,5.55,9.49,8.67,17.13,13.38,1.8,1.11,3.67,2.27,6.31,3.63,4.45,2.31,8.03,3.64,10.4,4.52,4.49,1.67,9.18,3.08,13.92,4.19l3.28.77-48.17,8.61Z"/>
  <path class="cls-2" d="M148.56,185.45c-.41-.22-.75-.48-1.09-.73-.27-.64-1.02-2.38-1.31-3.04-.29-.67-1.04-2.39-1.32-3.04.05-.42.09-.84.2-1.29.4.23.74.48,1.08.74.28.64,1.03,2.38,1.32,3.04.29.67,1.04,2.39,1.33,3.04-.04.42-.09.84-.21,1.29h0Z"/>
  <path class="cls-2" d="M145.32,178.66c1.63-1.33,2.82-3.3,3.23-5.52.05,2.26-.72,4.61-2.24,6.5l-1-.97h0Z"/>
  <path class="cls-2" d="M120.52,175.16s-.01-.05-.02-.07l-4.47-19.01.77-.1c4-.52,5.63.52,6.29,1.49h0c.4.59.46,1.09.63,2.73l.12,1.1c.18,1.54.34,2.78.45,3.57l.04.32-.21.24c-.74.83-1.33,1.76-1.76,2.76-1.08,2.55-.88,4.97-.51,6.58l.02.07-1.36.32ZM117.75,157.28l2.8,11.92c.13-.51.31-1.03.53-1.56.44-1.04,1.04-2.02,1.79-2.9-.11-.79-.26-1.93-.41-3.29l-.12-1.11c-.16-1.48-.2-1.8-.4-2.09-.27-.39-1.2-1.22-4.19-.97Z"/>
  <path class="cls-2" d="M128.57,145.34l-.87-.22s-3.48-.86-5.52-.32l-.74.19-1.52-9.15.43-.24c.19-.1,4.63-2.5,7.94.06l.27.21v9.46ZM123.83,143.24c1.26,0,2.53.2,3.34.35v-7c-2.04-1.33-4.68-.41-5.71.04l1.11,6.69c.4-.05.83-.08,1.25-.08Z"/>
  <g>
    <path class="cls-2" d="M171.65,221.35c1.72,1.03,3.97,2.68,3.88,4.59-.29,6.06-23.98,9.42-23.92,9.75.07.36,18.28-3.03,40.07-7.22-2.89-.61-6.09-1.46-9.52-2.64-4.02-1.38-7.53-2.95-10.52-4.48Z"/>
    <path class="cls-2" d="M151.92,236.3h0c-.93.04-.93-.21-.99-.47l-.06-.28.16-.25q.21-.31,2.7-.82c13.86-2.8,20.96-5.69,21.1-8.58.06-1.17-1.17-2.54-3.54-3.96l.68-1.22c3.35,1.72,6.86,3.21,10.43,4.44,3.07,1.06,6.25,1.94,9.43,2.62l3.37.72-3.39.65c-29.29,5.63-37.5,7.11-39.87,7.14-.01,0-.02,0-.03,0ZM175.74,224.06c.36.63.52,1.27.49,1.91-.12,2.56-3.49,4.6-8.15,6.26,5.12-.95,11.73-2.2,20.26-3.83-2.16-.55-4.3-1.19-6.39-1.91-2.1-.72-4.17-1.53-6.21-2.43Z"/>
  </g>
  <g>
    <path class="cls-2" d="M118.52,163.61c.13.13.91.85,2.04.77,1.05-.08,1.98-.82,2.36-1.89.23.82.46,1.64.69,2.47-.53.59-1.12,1.38-1.62,2.39-1.3,2.62-1.17,5.12-1.02,6.35-.81-3.36-1.63-6.72-2.44-10.08Z"/>
    <path class="cls-2" d="M120.29,173.86l-3.01-12.41,1.73,1.66c.16.15.74.63,1.5.58.77-.06,1.46-.62,1.75-1.43l.73-2.07,1.39,4.95-.26.29c-.61.68-1.12,1.43-1.51,2.23-1.12,2.26-1.14,4.48-.96,5.95l-1.37.25ZM119.57,164.98l1,4.15c.18-.68.44-1.39.79-2.09.4-.8.89-1.56,1.47-2.25l-.18-.63c-.56.54-1.28.87-2.05.93-.38.03-.73-.02-1.04-.1Z"/>
  </g>
  <g>
    <path class="cls-2" d="M141.71,197.68s3.93,1.36,5.48-4c1.55-5.36.67-9.27.67-9.27,0,0,2.03,3.91,1.38,9.07-.66,5.16-4.2,6.13-4.2,6.13,0,0-3.09,1.26-3.33-1.94Z"/>
    <path class="cls-2" d="M143.76,200.57c-.48,0-1.01-.09-1.48-.39-.75-.46-1.17-1.28-1.26-2.44l-.08-1.06,1,.35s1.19.37,2.34-.24c1.01-.53,1.76-1.64,2.25-3.29,1.48-5.1.67-8.89.66-8.92l-1.15-5.18,2.45,4.7c.09.17,2.13,4.17,1.45,9.48-.71,5.56-4.55,6.67-4.71,6.72-.06.03-.7.28-1.47.28ZM142.61,198.53c.1.2.23.36.39.46.56.35,1.47.11,1.78-.02.2-.06,3.19-.98,3.77-5.58.14-1.13.15-2.21.08-3.19-.14,1.11-.38,2.35-.77,3.67-.59,2.05-1.59,3.44-2.96,4.15-.84.43-1.66.52-2.29.5Z"/>
  </g>
  <path class="cls-2" d="M124.28,133.2c-22.76,0-41.28-18.52-41.28-41.28s18.52-41.29,41.28-41.29,41.28,18.52,41.28,41.29-18.52,41.28-41.28,41.28ZM124.28,52.03c-22,0-39.89,17.89-39.89,39.89s17.89,39.89,39.89,39.89,39.89-17.89,39.89-39.89-17.89-39.89-39.89-39.89Z"/>
  <path class="cls-2" d="M220.87,210.29c-1.86,0-3.43-1.4-3.6-3.24-.66-2.72-1.07-5.51-1.2-8.3-.12-2.63,0-5.29.34-7.9,0-.52.12-1.54.94-2.44.65-.7,1.53-1.12,2.49-1.17,3.69-.5,7.55-.87,11.37-1.11,4.74-.29,9.55-.38,14.29-.25.35-.02,1.49.02,2.49.9.73.64,1.16,1.52,1.21,2.48l.84,15.91c.1,1.97-1.44,3.66-3.43,3.76h0l-25.55,1.35c-.07,0-.13,0-.2,0ZM241.29,188.62c-3.33,0-6.64.1-9.91.3-3.76.23-7.55.6-11.29,1.1-.34.02-.55.12-.7.28-.21.23-.21.51-.21.56v.13s-.01.13-.01.13c-.34,2.48-.45,5.01-.33,7.5.13,2.65.51,5.3,1.15,7.88l.04.26c.02.43.41.76.88.74l25.55-1.35c.46-.02.82-.4.8-.83l-.84-15.91c-.01-.27-.17-.45-.26-.53-.25-.22-.56-.21-.62-.21-1.42-.04-2.83-.05-4.24-.05Z"/>
  <g>
    <path class="cls-2" d="M231.31,209.16c-.01.97-.03,1.95-.04,2.92-1.72.13-3.44.25-5.16.38-.43.99-.85,1.99-1.28,2.98,5.33-.4,10.66-.8,15.99-1.2.24-.92.48-1.84.72-2.76-2.16.16-4.32.32-6.48.48l.04-3.06c-1.27.09-2.53.18-3.8.26Z"/>
    <path class="cls-2" d="M223.74,216.22l1.9-4.43,4.94-.36.04-2.92,5.2-.36-.04,3.06,6.69-.5-1.09,4.19-17.64,1.32ZM226.59,213.12l-.66,1.53,14.35-1.08.35-1.33-6.26.46.04-3.07-2.4.17-.04,2.92-5.37.4Z"/>
  </g>
  <polygon class="cls-2" points="228.49 203.91 228.46 203.21 239.16 202.75 238.97 191.53 225.66 192.29 226.86 203.52 226.17 203.6 224.89 191.64 239.65 190.8 239.87 203.41 228.49 203.91"/>
  <path class="cls-2" d="M237.22,202.23c-1.08-3.42-2.06-4.1-2.55-4.21-.38-.08-.65.15-.74.23-.13.27-.46.67-.95.69-.77,0-1.5-.81-2.33-2.55-.45-.93-.98-1.44-1.6-1.5-1.26-.12-2.56,1.54-2.57,1.56l-.56-.42c.06-.08,1.55-1.98,3.19-1.83.87.09,1.6.73,2.16,1.89.96,2.01,1.52,2.18,1.69,2.15.21,0,.35-.32.36-.32l.05-.09s.57-.67,1.43-.5c1.14.23,2.18,1.8,3.09,4.68l-.66.21Z"/>
  <path class="cls-2" d="M236.43,195.3c-.49,0-.89-.4-.89-.89s.4-.89.89-.89.89.4.89.89-.4.89-.89.89ZM236.43,193.86c-.3,0-.55.24-.55.55s.24.55.55.55.54-.24.54-.55-.24-.55-.54-.55Z"/>
  <path class="cls-2" d="M83.74,90.44l-.02-.35c25.06-1.3,40.05-6.98,44.57-16.89,4.69-10.3-4.06-21.65-4.14-21.77l.27-.22c.09.12,8.96,11.63,4.19,22.12-4.57,10.04-19.67,15.79-44.87,17.1Z"/>
  <path class="cls-2" d="M130.93,131.25l-.35-.04c2.48-22.45,11.4-34.37,18.44-40.42,7.64-6.57,14.79-7.83,14.86-7.84l.06.34c-.07.01-7.15,1.27-14.71,7.78-6.99,6.01-15.83,17.86-18.3,40.18Z"/>
  <path class="cls-2" d="M92.89,116.68l-.08-.34c22.92-5.28,37.68-19.77,46.03-31,9.05-12.17,12.73-23.23,12.76-23.34l.33.11c-.04.11-3.73,11.22-12.81,23.44-8.39,11.28-23.22,25.83-46.24,31.13Z"/>
  <path class="cls-2" d="M149.63,123.76l-.35-.02c1.64-26.99-12.71-42.27-25.04-50.34-13.38-8.75-27.33-11.14-27.47-11.17l.06-.34c.14.02,14.15,2.42,27.59,11.21,7.9,5.17,14.06,11.49,18.31,18.81,5.31,9.14,7.63,19.86,6.9,31.85Z"/>
  <path class="cls-2" d="M93.69,117.43l-.08-.34c26.37-6.62,40.55-21.24,47.79-32.33,7.85-12.03,9.48-22.63,9.5-22.73l.34.05c-.02.11-1.66,10.77-9.54,22.86-7.28,11.15-21.51,25.85-48,32.5Z"/>
  <path class="cls-2" d="M151.94,121.78h-.35c.37-25.24-14.55-39.84-27.13-47.65-13.64-8.47-27.56-11.01-27.7-11.03l.06-.34c.14.02,14.11,2.57,27.81,11.07,8.05,5,14.44,11.05,18.98,17.99,5.68,8.67,8.48,18.76,8.32,29.97Z"/>
  <path class="cls-2" d="M129.33,132.53l-.35-.05c3.31-23.52,12.52-36.13,19.66-42.57,7.75-6.99,14.82-8.42,14.89-8.44l.07.34c-.07.01-7.06,1.44-14.74,8.37-7.09,6.4-16.23,18.94-19.53,42.34Z"/>
  <path class="cls-2" d="M83.7,91.26v-.35c25.16-.92,40.16-6.37,44.6-16.21,4.86-10.77-5.14-23.14-5.24-23.26l.27-.22c.1.13,10.23,12.67,5.29,23.63-4.49,9.96-19.6,15.49-44.92,16.41Z"/>
  <path class="cls-2" d="M82.77,91.92c-1.61.88-3.71,1.62-4.92,2.92,0-.03,0-.06,0-.11-.04-.05-.04-.04,0-.03,0,.02.15.05.25.08,6.94.38,13.97-1.11,20.98-1.09-4.61,1.18-9.29,1.92-14.03,2.32-2.53.04-5.43.63-7.83-.48-1.92-1.91,4.35-3.31,5.55-3.61h0Z"/>
  <path class="cls-2" d="M117.8,89.66c8.86-2.84,17.93-4.76,27.19-5.73-8.86,2.85-17.93,4.76-27.19,5.73h0Z"/>
  <path class="cls-2" d="M153,81.68c4.9-2.7,10.8-4.43,15.33-7.21-.75-.37-2.68-.47-3.85-.57,1.46-.25,2.84-.69,4.35-.18,3.3,2.7-13.84,7.86-15.82,7.96h0Z"/>
  <path class="cls-2" d="M80.85,99.88c-1.87,1.02-6.04,2.74-7.6,4.09-.09.1-.04.19-.08-.13,3.31.53,7.8.11,11.52.36-3.65.86-7.23,1.49-11.04,1.12-.77-.11-1.87-.45-1.81-1.44.09-.61.62-1.05,1.09-1.34,2.47-1.44,5.16-2.13,7.92-2.65h0Z"/>
  <path class="cls-2" d="M82.29,106.28c8.02-2.16,16.2-3.39,24.5-3.66-8.02,2.17-16.2,3.39-24.5,3.66h0Z"/>
  <path class="cls-2" d="M108.36,100.3c13.56-3.36,28.36-6.68,41.84-10.1,1.48-.46,35.84-8.37,24.41-9.54-3.51-.53-7.12-.51-10.71-.61,3.59-.22,7.17-.38,10.8-.07,20.4,3.74-63.64,20.39-66.35,20.32h0Z"/>
  <path class="cls-2" d="M102.44,106.28c10.26-2.02,24.57-4.67,34.62-6.86,11.47-2.47,23.04-4.84,33.99-9.15-1.32.64-2.64,1.31-3.99,1.91-9.52,3.97-19.67,6.39-29.71,8.6-11.55,2.35-23.18,4.33-34.91,5.5h0Z"/>
  <g>
    <line class="cls-1" x1="210.89" y1="189.5" x2="231.41" y2="184.41"/>
    <path class="cls-2" d="M210.89,189.5c6.79-1.9,13.63-3.6,20.53-5.09-6.79,1.91-13.63,3.6-20.53,5.09h0Z"/>
  </g>
  <path class="cls-2" d="M217.17,191.64c-.23-3.13-.24-6.27,0-9.4.24,3.13.23,6.27,0,9.4h0Z"/>
  <g>
    <path class="cls-1" d="M176.62,176.14c-.33-.29-12.6,1.63-12.6,1.63"/>
    <path class="cls-2" d="M176.62,176.14c-4.13.39-8.45,1.31-12.6,1.63,4.15-.8,8.37-1.68,12.6-1.63h0Z"/>
  </g>
  <g>
    <line class="cls-1" x1="174.04" y1="177.77" x2="172.98" y2="164.96"/>
    <path class="cls-2" d="M174.04,177.77c-.59-4.25-.95-8.52-1.07-12.81.59,4.25.94,8.52,1.07,12.81h0Z"/>
  </g>
  <g>
    <line class="cls-1" x1="118.52" y1="155.95" x2="102.85" y2="157.12"/>
    <path class="cls-2" d="M118.52,155.95c-5.21.63-10.43,1.02-15.67,1.18,5.21-.63,10.43-1.02,15.67-1.18h0Z"/>
  </g>
  <g>
    <line class="cls-1" x1="116.24" y1="156.9" x2="115.38" y2="147.52"/>
    <path class="cls-2" d="M116.24,156.9c-.52-3.11-.8-6.24-.85-9.38.52,3.11.8,6.24.85,9.38h0Z"/>
  </g>
  <g>
    <path class="cls-1" d="M82.29,32.33l1.33,81.99"/>
    <path class="cls-2" d="M82.29,32.33c.66,27.33,1.11,54.66,1.33,81.99-.66-27.33-1.1-54.66-1.33-81.99h0Z"/>
  </g>
  <g>
    <line class="cls-1" x1="126.91" y1="51.33" x2="74.35" y2="52.59"/>
    <path class="cls-2" d="M126.91,51.33c-17.52.64-35.04,1.06-52.57,1.26,17.52-.64,35.04-1.06,52.57-1.26h0Z"/>
  </g>
  <g>
    <line class="cls-1" x1="174.44" y1="89.04" x2="175.89" y2="125.81"/>
    <path class="cls-2" d="M174.44,89.04c.7,12.25,1.19,24.5,1.45,36.77-.7-12.25-1.18-24.5-1.45-36.77h0Z"/>
  </g>
  <g>
    <path class="cls-1" d="M261.4,132.04c7.97-.19,9.42,0,9.42,0"/>
    <path class="cls-2" d="M261.4,132.04c3.13-.29,6.29-.41,9.42,0-2.78.05-6.67.18-9.42,0h0Z"/>
  </g>
  <path class="cls-2" d="M264.57,131.23c.23,3.89.24,7.79,0,11.68-.24-3.89-.23-7.79,0-11.68h0Z"/>
  <path class="cls-2" d="M217.23,33.88c-5.16.23-10.33.24-15.49,0,5.16-.24,10.33-.23,15.49,0h0Z"/>
  <g>
    <path class="cls-2" d="M187.34,88.74c-.02-.31-.12-1.14-.78-1.77-.51-.49-1.09-.6-1.77-.73-.5-.1-1.32-.19-2.35,0,.27-1.04.54-2.08.81-3.12-.3-.05-.68-.09-1.11-.07-.64.03-1.16.19-1.51.32.43-.51.87-1.03,1.3-1.54-.24-.19-2.02-1.69-1.99-4.11.02-1.61.83-2.73,1.14-3.11.36.66.71,1.32,1.07,1.99.55-.92,1.1-1.84,1.65-2.76-2.05-2.81-1.91-3.69-1.65-4.02.21-.26.56-.25,1.43-.37,1.08-.14,2.12-.49,3.18-.7,1.18-.23,3.36-.7,7.72-1.75-.14,1.06-.28,2.12-.42,3.18-1.05.82-2.11,1.65-3.16,2.47l.08,5.35c-1.21,3.57-2.41,7.15-3.62,10.72Z"/>
    <path class="cls-2" d="M186.89,92.29l-.25-3.5c-.02-.31-.13-.89-.57-1.31-.34-.33-.72-.41-1.42-.55-.67-.13-1.38-.13-2.09,0l-1.09.2.87-3.39c-.06,0-.12,0-.18,0-.44.02-.88.12-1.3.28l-2.57.99,2.64-3.13c-.7-.73-1.75-2.17-1.72-4.18.02-1.71.82-2.95,1.29-3.54l.67-.84.98,1.83.77-1.29c-1.59-2.27-2.01-3.66-1.36-4.49.35-.44.82-.5,1.46-.58l.43-.05c.6-.08,1.19-.23,1.82-.38.44-.11.88-.22,1.32-.31,1.54-.3,4.12-.89,7.69-1.74l1-.24-.59,4.48-3.11,2.44.08,5.12-4.78,14.16ZM183.63,85.42c.44,0,.87.04,1.29.12.72.14,1.47.28,2.13.91.08.08.16.17.23.25l2.97-8.8-.08-5.58,3.21-2.51.25-1.87c-3.07.73-5.34,1.24-6.75,1.52-.42.08-.83.19-1.25.29-.64.16-1.29.32-1.97.41l-.45.06c-.23.03-.48.06-.56.09.04.02-.03.73,1.71,3.12l.27.38-2.53,4.23-1.08-2c-.21.46-.38,1.04-.39,1.7-.03,2.03,1.43,3.31,1.72,3.55l.56.45-.51.6c.32,0,.64.03.95.09l.75.13-.74,2.87c.08,0,.17,0,.25,0Z"/>
  </g>
  <path class="cls-2" d="M303.95,105.31l-4.51-3.46c-9.42-7.24-15.16-11.67-17.05-13.17l-.15-.12c-.63-.5-2.54-2.01-5.07-3.94l-.55-.42c-18.05-13.57-34.68-17.54-34.85-17.58-8.63-2-17.57-2.54-26.59-1.61-5.78.37-11.58,1.05-17.25,2.02-5.23.9-10.48,2.07-15.62,3.47l-.98.27.08-1.01c.02-.25.54-6.12,4.03-13.25,6.31-12.86,17.67-18.53,22.26-20.37,6.94-2.79,12.7-2.94,16.9-3.05,5.2-.13,23.32.42,39.08,13.22,1.61,1.31,4.31,3.5,7.17,7.02,6.06,7.45,9.68,16.9,10.48,27.36,2.73,2.4,5.4,4.92,7.93,7.5,3.93,3.99,7.68,8.24,11.15,12.65l3.52,4.46ZM223.73,63.15c6.22,0,12.37.7,18.38,2.09.17.04,17.07,4.06,35.38,17.83l.56.43c2.53,1.94,4.45,3.46,5.08,3.96l.15.12c1.53,1.21,5.6,4.36,12.12,9.37-2.29-2.67-4.67-5.26-7.12-7.75-2.58-2.62-5.29-5.18-8.07-7.62l-.22-.19-.02-.29c-.51-7.17-2.69-17.64-10.19-26.85-2.77-3.41-5.4-5.54-6.97-6.82-15.38-12.5-33.08-13.04-38.15-12.91-4.1.11-9.71.26-16.41,2.95-4.44,1.78-15.42,7.26-21.52,19.68-2.54,5.19-3.46,9.76-3.76,11.72,4.85-1.3,9.8-2.38,14.73-3.23,5.73-.98,11.58-1.67,17.38-2.04,2.89-.3,5.78-.45,8.65-.45Z"/>
  <g>
    <path class="cls-2" d="M270.69,92.28c-1.35-1.73-2.82-3.52-4.43-5.34-1.79-2.03-3.57-3.89-5.29-5.58-.15-.79-.52-2.2-1.56-3.64-1.16-1.61-2.56-2.44-3.3-2.81v-2.6s-5.62,2.27-5.95-2.81c2.46.8,6.25,2.13,10.68,4.2,10.36,4.84,17.35,10.45,27.09,18.38,3.79,3.08,8.95,7.45,14.9,12.99-.97.69-2.18,1.41-3.64,2-4.4,1.77-8.46,1.27-10.52.85,1.57-6.08.07-12.05-3.83-14.95-2.53-1.88-5.72-2.21-6.98-2.27-3.42-.17-6.01.96-7.19,1.57Z"/>
    <path class="cls-2" d="M292.62,109.04c-1.55,0-2.94-.18-4.08-.41l-.73-.15.19-.72c1.49-5.8.06-11.51-3.56-14.2-2.35-1.75-5.39-2.07-6.59-2.13-2.97-.15-5.35.73-6.83,1.49l-.52.27-.36-.46c-1.4-1.8-2.89-3.59-4.41-5.31-1.68-1.9-3.45-3.77-5.25-5.55l-.16-.16-.04-.22c-.23-1.21-.72-2.36-1.44-3.35-.99-1.38-2.2-2.17-3.04-2.59l-.39-.2v-2.07c-1.09.27-2.87.51-4.22-.34-1.04-.66-1.62-1.79-1.72-3.38l-.07-1.04.99.32c3.65,1.18,7.27,2.6,10.76,4.24,10.65,4.98,17.97,10.93,27.24,18.48,5.07,4.13,10.1,8.51,14.94,13.03l.63.59-.7.5c-1.18.85-2.46,1.55-3.78,2.08-2.42.97-4.78,1.3-6.84,1.3ZM289.54,107.37c2.43.4,5.84.48,9.39-.94.96-.38,1.89-.87,2.77-1.43-4.62-4.28-9.4-8.44-14.21-12.36-9.19-7.48-16.45-13.39-26.94-18.29-1.23-.57-2.47-1.12-3.72-1.64v1.78c.94.53,2.15,1.42,3.17,2.82.79,1.09,1.35,2.37,1.63,3.7,1.77,1.75,3.51,3.59,5.17,5.47,1.41,1.6,2.79,3.25,4.11,4.92,1.65-.77,4.08-1.53,7.02-1.39,1.65.08,4.8.5,7.36,2.41,3.99,2.96,5.62,8.78,4.26,14.95ZM251.07,70.54c.18.54.47.93.87,1.19.83.53,2.07.42,2.98.21-1.27-.5-2.56-.96-3.85-1.4Z"/>
  </g>
  <g>
    <path class="cls-2" d="M234.48,65.12s1.14,1.95,2.16,2.16c0,0,.32,4.9-5.19.76,0,0,.92,7.3,7.9,1.89,0,0,2.52-1.77.91-4.37,0,0-4.69-.28-5.78-.44Z"/>
    <path class="cls-2" d="M234.92,72.63c-.5,0-.96-.09-1.4-.27-2.33-.96-2.75-4.1-2.76-4.24l-.21-1.66,1.34,1c2.32,1.75,3.23,1.59,3.51,1.43.36-.19.49-.74.53-1.16-1.03-.58-1.87-1.96-2.05-2.27l-.74-1.28,1.46.22c1.04.16,5.67.43,5.71.43l.37.02.19.31c1.55,2.51-.04,4.58-1.1,5.32-1.82,1.41-3.44,2.12-4.84,2.12ZM232.73,69.72c.29.55.72,1.09,1.33,1.34,1.14.47,2.82-.11,4.85-1.69.21-.15,1.77-1.34.91-3.13-.76-.05-2.49-.16-3.84-.26.29.32.59.57.8.61l.53.11.04.54c.01.22.1,2.17-1.29,2.92-.85.46-1.95.32-3.34-.44Z"/>
  </g>
  <path class="cls-2" d="M201.71,65.95l-1.39-.26c1.48-7.98,7.06-14.45,14.23-16.49,2.05-.58,9.24-2.12,15.84,2.53,5.98,4.21,7.33,10.66,7.6,12.53l-1.4.2c-.25-1.73-1.5-7.69-7.02-11.58-6.09-4.29-12.74-2.86-14.63-2.32-6.65,1.89-11.85,7.93-13.23,15.39Z"/>
  <path class="cls-2" d="M202.97,61.01l-.34-1.37c5.19-1.3,10.54-2.06,15.88-2.26,5.84-.22,11.7.23,17.43,1.33l-.27,1.39c-5.63-1.08-11.38-1.52-17.12-1.3-5.25.2-10.49.94-15.59,2.22Z"/>
  <g>
    <path class="cls-2" d="M205.51,56.31c1.41-.77,2.9-1.53,4.48-2.28,2.18-1.03,4.27-1.93,6.27-2.7-.02.11-.35,2.07,1.14,3.41,1.31,1.18,2.95.9,3.14.87.48-.05,1.42-.22,2.38-.87,1.09-.73,1.62-1.66,1.84-2.1l6.06,2.53c-.19.42-.4,1.11-.16,1.78.42,1.19,2.13,1.97,4.11,1.54,0,0-3.3-9.8-16.38-9.57-1.44.06-4,.36-6.76,1.8-3.4,1.77-5.29,4.32-6.1,5.58Z"/>
    <path class="cls-2" d="M233.68,59.32c-1.74,0-3.23-.81-3.7-2.13-.21-.57-.17-1.14-.06-1.63l-4.86-2.04c-.37.58-.93,1.25-1.75,1.8s-1.73.87-2.69.98c-.31.06-2.17.33-3.69-1.04-1-.9-1.31-2.04-1.39-2.89-1.77.71-3.53,1.48-5.24,2.3-1.5.71-2.99,1.47-4.44,2.26l-2.43,1.32,1.5-2.33c1.11-1.72,3.11-4.12,6.36-5.82,2.16-1.13,4.6-1.78,7.06-1.88,13.49-.2,17.05,9.94,17.09,10.05l.25.75-.78.17c-.41.09-.83.13-1.22.13ZM231.71,54.88l-.26.58c-.15.33-.3.82-.14,1.26.23.65,1.15,1.19,2.37,1.19.02,0,.04,0,.06,0-.35-.72-.99-1.84-2.02-3.03ZM217.18,50.21l-.23,1.24c-.01.07-.29,1.67.91,2.75,1.04.94,2.38.72,2.53.7.79-.09,1.5-.35,2.12-.76.86-.57,1.34-1.31,1.6-1.83l.29-.6,7.16,3c-2.26-2.5-6.29-5.21-13.19-5.08-2.23.09-4.46.69-6.44,1.72-1.55.81-2.78,1.79-3.76,2.77.5-.25,1-.49,1.51-.73,2.06-.98,4.19-1.9,6.32-2.72l1.18-.46Z"/>
  </g>
  <rect class="cls-2" x="277.91" y="82.84" width="5.02" height="1.42" transform="translate(170.71 354.8) rotate(-84.57)"/>
  <path class="cls-2" d="M186.92,68.86l-1.4-.19c.03-.19,2.69-18.68,16.84-29.95l.88,1.11c-13.71,10.92-16.29,28.85-16.32,29.03Z"/>
  <path class="cls-2" d="M243.7,43.89c-3.84-7.67-6.09-8.21-6.11-8.21l.15-1.41c.47.03,3.05.63,7.23,8.99l-1.27.63Z"/>
  <path class="cls-2" d="M253.18,67.16c-2.22-10.06-7.11-19.55-7.16-19.65l1.26-.65c.05.1,5.02,9.74,7.28,19.99l-1.38.31Z"/>
  <path class="cls-2" d="M241.82,36.75c-.16-.77-.63-2.25-1.94-3.48-.68-.64-2.11-1.71-4.09-1.76-3.11-.12-5.06,2.5-5.27,2.8l-1.15-.82c.25-.36,2.54-3.46,6.46-3.39,2.45.06,4.2,1.36,5.02,2.14,1.6,1.5,2.16,3.29,2.36,4.22l-1.38.29Z"/>
</svg>