<?xml version="1.0" encoding="UTF-8"?>
<svg id="Calque_2" data-name="Calque 2" xmlns="http://www.w3.org/2000/svg" viewBox="0 0 111.44 94.01">
  <defs>
    <style>
      .cls-1 {
        stroke: #000;
      }

      .cls-1, .cls-2, .cls-3 {
        stroke-miterlimit: 10;
      }

      .cls-1, .cls-3 {
        fill: none;
      }

      .cls-2 {
        fill: #020304;
      }

      .cls-2, .cls-3 {
        stroke: #020304;
      }
    </style>
  </defs>
  <path d="M27.17,74.98c-4.94,0-9.11-3.73-9.57-8.59-1.76-7.22-2.83-14.63-3.19-22.04-.33-6.98-.03-14.04.91-20.98,0-1.38.31-4.1,2.5-6.48,1.71-1.86,4.07-2.97,6.62-3.1,9.79-1.31,20.04-2.31,30.19-2.93,12.58-.77,25.34-1,37.92-.67.93-.06,3.97.06,6.62,2.39,1.93,1.7,3.07,4.03,3.21,6.58l2.24,42.22c.27,5.23-3.81,9.71-9.11,9.99h0l-67.82,3.59c-.18,0-.35.01-.52.01ZM81.39,17.45c-8.84,0-17.62.27-26.3.8-9.97.61-20.05,1.59-29.96,2.91-.9.06-1.46.32-1.86.75-.56.61-.55,1.34-.55,1.48l.02.35-.05.35c-.9,6.59-1.2,13.29-.89,19.92.33,7.03,1.36,14.07,3.05,20.91l.1.69c.06,1.15,1.09,2.02,2.33,1.97l67.82-3.59c1.22-.07,2.17-1.05,2.11-2.2l-2.24-42.22c-.04-.73-.45-1.2-.7-1.41-.65-.57-1.47-.55-1.65-.56-3.76-.1-7.51-.14-11.25-.14Z"/>
  <path d="M59.21,78.54c-.04,2.58-.07,5.17-.11,7.75-5.5-.29-10.99-.58-16.49-.87-.04,1.8-.08,3.59-.11,5.39,14.48-.5,28.95-.99,43.43-1.49.15-1.87.3-3.75.45-5.62-5.73.76-11.46,1.51-17.19,2.27-.41-2.71-.82-5.42-1.24-8.13-2.91.23-5.83.46-8.74.7Z"/>
  <path d="M42.5,90.8c.04-1.8.08-3.59.11-5.39,4.89-.28,9.78-.57,14.66-.85-.11-4-.22-7.99-.33-11.99,3.85-.1,7.7-.2,11.55-.3l.61,11.54c5.76-.04,11.52-.08,17.28-.11-.15,1.87-.3,3.75-.45,5.62-14.48.5-28.95.99-43.43,1.49ZM42.61,85.41c-.04,1.8-.08,3.59-.11,5.39,14.48-.5,28.95-.99,43.43-1.49.15-1.87.3-3.75.45-5.62-6.36,1.42-12.71,2.84-19.07,4.27-.4-2.82-.8-5.64-1.19-8.46-2.22-.02-4.44-.03-6.65-.05.49,2.85.98,5.7,1.47,8.55l-18.32-2.59Z"/>
  <g>
    <line x1=".68" y1="19.79" x2="55.17" y2="6.29"/>
    <path d="M.68,19.79c18.02-5.06,36.19-9.56,54.49-13.5C37.15,11.35,18.98,15.85.68,19.79h0Z"/>
  </g>
  <path d="M17.37,25.49c-.62-8.31-.63-16.63,0-24.94.63,8.31.62,16.63,0,24.94h0Z"/>
  <path class="cls-1" d="M21.17,72.27c2.37,1.85,4.74,3.71,7.11,5.56l30.15-.91,1.03,8.2c-5.37,1.8-10.74,3.59-16.1,5.39.75.9,1.49,1.8,2.24,2.7,14.41-.54,28.82-1.07,43.22-1.61.15-1.72.31-3.44.46-5.16-.96-.71-1.93-1.42-2.89-2.13-3.97-.08-7.93-.15-11.9-.23l-.23-8.43,29.46-1.61c1.38-.21,3.65-.78,5.16-2.64,1.19-1.47,1.4-3.11,1.49-3.86.47-4.02-.37-20.61-2.24-43.05-.32-.97-.83-2.29-1.61-3.79-1.68-3.21-3.55-5.11-4.18-5.72-1.41-1.38-2.64-2.54-4.59-2.87-.85-.14-1.58-.08-2.06,0-25.15,2.18-50.29,4.36-75.44,6.54l-2.42,36.57c1.11,5.67,2.22,11.34,3.33,17.01Z"/>
  <line class="cls-1" x1="88.82" y1="91.61" x2="84.92" y2="88.74"/>
  <path class="cls-1" d="M74.25,75.67c-2.4-1.41-4.81-2.83-7.21-4.24"/>
  <path class="cls-3" d="M42.27,55.56l-1.99-23s-.46-5.18,6.11-5.73,24,0,24,0c0,0,5.81-1.31,6.57,5.88s0,17.89,0,17.89c0,0,.54,5.96-4.93,5.81s-25.34,0-25.34,0"/>
  <line class="cls-3" x1="41.51" y1="36.99" x2="77.2" y2="35.6"/>
  <line class="cls-3" x1="60.77" y1="41.5" x2="57.25" y2="47.39"/>
  <polyline class="cls-3" points="51.29 42.5 47.32 45.25 51.29 47.39"/>
  <polyline class="cls-3" points="67.04 42.5 71.01 44.45 66.27 47.39"/>
  <circle class="cls-2" cx="45.14" cy="32.68" r=".73"/>
  <circle class="cls-2" cx="49.81" cy="32.28" r=".73"/>
  <circle class="cls-2" cx="54.92" cy="31.95" r=".73"/>
</svg>