<?xml version="1.0" encoding="UTF-8"?>
<svg id="Calque_2" data-name="Calque 2" xmlns="http://www.w3.org/2000/svg" viewBox="0 0 178.71 187.02">
  <defs>
    <style>
      .cls-1 {
        fill: currentColor;
      }

      .cls-2 {
        fill: currentColor;
      }
    </style>
  </defs>
  <path class="cls-2" d="M27.19,57.73c.19,1.41.05,2.61-.27,3.98,0,0-.74,3.89-.74,3.89l-.74,3.89c-.21,1.41-.52,2.53-1.22,3.8-.17-1.44-.06-2.58.27-3.98,0,0,.74-3.89.74-3.89l.74-3.89c.2-1.39.52-2.55,1.22-3.8h0Z"/>
  <g>
    <path class="cls-2" d="M54.58,72.59c-.12.52-.33,1.4-1.1,1.91-.38.25-.79.31-1.04.33-4.64.06-9.87-.17-15.55-.92-3.46-.44-6.72-1.02-9.72-1.67.83-4.2,1.66-8.37,2.48-12.55,8.2,3.69,16.4,7.41,24.59,11.1.02-.27.06-.52.1-.79.12.29.27.71.31,1.23.04.35.06.83-.08,1.37Z"/>
    <path class="cls-2" d="M51.1,75.79c-4.82,0-9.61-.32-14.32-.94-3.3-.42-6.59-.99-9.8-1.69l-.92-.2,2.9-14.66,24.52,11.07.43-2.98,1.35,3.24c.15.37.33.88.37,1.52.06.58.03,1.13-.1,1.66-.12.54-.4,1.77-1.51,2.49-.43.28-.93.44-1.49.48-.48,0-.95,0-1.42,0ZM28.31,71.48c2.86.6,5.78,1.09,8.71,1.46,5.09.67,10.27.98,15.42.92.18-.02.37-.07.53-.17.42-.27.57-.82.68-1.31v-.02c.08-.28.09-.54.08-.76l-23.35-10.54-2.06,10.43Z"/>
  </g>
  <g>
    <path class="cls-2" d="M98.02,71.48c-4.02.35-8.02.69-12.03,1.04-6.99.64-13.95,1.25-20.92,1.89-.44-.06-.77-.19-1.02-.35-1.35-.92-1.6-3.43-.69-6.27.31.37.64.73.94,1.1,4.79-1.87,9.72-3.69,14.76-5.52,5.93-2.14,11.74-4.14,17.44-5.99.27,2.16.5,4.33.75,6.54.27,2.54.52,5.06.77,7.56Z"/>
    <path class="cls-2" d="M65.05,75.37h-.11c-.52-.08-.99-.24-1.4-.5-1.76-1.21-2.17-4.03-1.11-7.38l.53-1.67,1.62,1.91c4.15-1.61,8.67-3.3,14.15-5.28,6.09-2.2,11.97-4.21,17.47-6l1.11-.36.14,1.15c.2,1.59.38,3.19.56,4.81l.2,1.74c.25,2.41.49,4.79.73,7.16l.14,1.39-34.02,3.02ZM63.87,69.85c-.24,1.75.12,2.99.73,3.41.12.07.29.14.5.17l31.86-2.83c-.22-2.18-.44-4.38-.67-6.59l-.19-1.74c-.14-1.22-.27-2.43-.41-3.63-5.16,1.69-10.63,3.57-16.3,5.61-5.75,2.08-10.43,3.84-14.74,5.51l-.64.25-.14-.17Z"/>
  </g>
  <path class="cls-2" d="M99.31,56.38c.6,1.28.82,2.42.92,3.82,0,0,.44,3.88.44,3.88l.44,3.88c.22,1.41.25,2.52-.03,3.93-.6-1.31-.82-2.4-.92-3.82,0,0-.44-3.88-.44-3.88l-.44-3.88c-.22-1.38-.26-2.54.03-3.93h0Z"/>
  <rect class="cls-2" x="118.45" y="70.86" width="1.92" height="18.31"/>
  <path class="cls-2" d="M123.38,98.48l-1.83-.61c.91-2.76,2.32-5.27,4.19-7.49,1.94-2.3,4.38-4.24,7.07-5.61l.87,1.72c-2.46,1.25-4.69,3.02-6.47,5.13-1.71,2.03-2.99,4.33-3.83,6.85Z"/>
  <path class="cls-2" d="M134.6,133.46l-.45-1.87c8.81-2.13,15.26-10.69,17.63-14.28,4.52-7,6.19-13.83,4.96-20.29-.45-2.36-1.28-6.75-5.2-9.75-2.07-1.59-4.56-2.48-7.4-2.65-.93-.05-1.82-.03-2.74.07l-.21-1.91c1.03-.11,2.02-.14,3.05-.08,3.26.2,6.1,1.22,8.48,3.05,4.5,3.44,5.46,8.49,5.92,10.92,1.32,6.95-.44,14.25-5.24,21.7-2.5,3.78-9.31,12.81-18.79,15.1Z"/>
  <path class="cls-2" d="M68.03,170.1c-.34,0-.69,0-1.02-.02l-2.01-.1c-.61-.04-1.28-.09-1.9-.15l-1.31-.16c-.56-.08-1.11-.16-1.64-.26-.41-.05-.88-.14-1.33-.24-.21-.03-.48-.09-.76-.15l-.37-.08c-.21-.03-.45-.08-.7-.15l-.22-.05c-.28-.06-.53-.12-.79-.2l-.57-.15c-.95-.3-2.68-.86-4.87-1.79l-1.06-.44c-.39-.17-.74-.33-1.11-.5l-.38-.18c-.29-.14-.59-.28-.89-.43-.9-.42-1.84-.93-2.84-1.48-.15-.06-.37-.18-.59-.33-.06-.02-.2-.1-.35-.2-.79-.45-1.49-.87-2.22-1.34-.46-.29-.94-.59-1.42-.93-.38-.23-.81-.54-1.22-.84-.8-.55-1.64-1.18-2.47-1.85-.91-.71-1.78-1.45-2.66-2.25-4.09-3.7-7.44-7.93-9.95-12.57-3-5.55-4.72-11.7-5.6-19.95-.84-7.98-.91-17.95-1.01-30.58-.02-5.98.11-10.36.19-12.44l1.92.08c-.08,2.06-.21,6.41-.19,12.35.09,12.57.17,22.5,1,30.39.86,8.1,2.46,13.85,5.37,19.23,2.41,4.45,5.63,8.51,9.56,12.06.85.77,1.68,1.48,2.57,2.17.8.65,1.61,1.25,2.4,1.79.39.29.77.57,1.15.8.5.35.94.63,1.39.9.71.46,1.39.86,2.05,1.23l.21.13c.08.05.16.09.24.13.23.14.36.22.49.27,1.03.56,1.94,1.05,2.83,1.47.31.15.59.29.86.42l.39.18c.36.17.7.32,1.04.47l1.03.42c2.14.91,3.82,1.44,4.72,1.73l.56.15c.23.07.45.12.68.17l.19.04c.2.06.41.11.61.14l.44.09c.24.05.47.1.71.14.47.1.88.17,1.28.23.55.1,1.08.17,1.6.25l1.27.15c.56.05,1.21.11,1.83.15l1.92.09c.63.02,1.28.02,1.93,0,.93,0,1.86-.04,2.8-.09,1.81-.12,3.5-.32,5.15-.6,1.32-.2,2.7-.47,4.23-.83,2.7-.65,5.42-1.48,8.08-2.49l.48-.19c.26-.1.52-.2.78-.3l.51-.22c.26-.11.52-.21.78-.33.44-.16.79-.32,1.15-.48l1.56-.71c.7-.32,1.42-.66,2.16-1.04.59-.29,1.18-.58,1.79-.9h0s.52-.29.52-.29c1.06-.55,2.17-1.16,3.27-1.8.14-.08,14.23-8.58,17.49-27.72l.23-1.37,1.2.7c1.34.78,2.62,1.36,3.93,1.78l.2.06c.82.27,1.73.47,2.71.59l-.25,1.91c-1.1-.14-2.13-.37-3.06-.68l.11-.97-.29.92c-1.05-.34-2.08-.76-3.12-1.3-3.81,19.11-17.58,27.38-18.17,27.73-1,.59-2,1.14-2.97,1.65l-.37.21c-.8.43-1.58.82-2.34,1.19-.75.38-1.49.73-2.21,1.07l-1.56.71c-.43.19-.84.37-1.24.52-.2.1-.49.22-.77.33l-1.82.72c-2.74,1.03-5.54,1.89-8.32,2.56-1.59.38-3.02.66-4.37.86-1.7.29-3.45.5-5.33.62-.99.06-1.95.1-2.89.1-.33.01-.67.02-1.01.02Z"/>
  <path class="cls-2" d="M18.2,124.02c-.19-.13-.41-.28-.62-.45-.32-.2-.74-.5-1.18-.82l-1.15-.89,1.2-1.51,1.11.86c.38.28.77.56,1.15.8.25.19.42.31.57.41l-1.07,1.6Z"/>
  <path class="cls-2" d="M11.51,118.59c-1.95-1.86-4.81-4.8-7.1-8.91-1.31-2.33-5.29-9.42-4.1-18.4.37-2.74,1.05-7.84,5.23-11.65,1.76-1.58,3.89-2.73,6.36-3.41l.51,1.85c-2.17.6-4.05,1.6-5.58,2.98-3.66,3.34-4.26,7.81-4.62,10.48-1.11,8.34,2.64,15.01,3.87,17.2,2.17,3.88,4.89,6.68,6.75,8.45l-1.33,1.39Z"/>
  <path class="cls-2" d="M62.82,156.73c-.67-.01-16.08-.43-26.83-13.67-5.97-7.36-9.26-17.22-9.78-29.32l-.15-3.5,1.92,2.93c.08.12,7.89,11.82,24.15,14.37,16.48,2.58,35.54-4.75,56.63-21.81l1.54-1.24.03,1.98c.01.92.19,22.76-14.07,37.48h0c-8.18,8.43-19.43,12.73-33.44,12.78ZM28.34,116.73c.89,10.27,3.96,18.71,9.15,25.11,10.16,12.53,25.2,12.96,25.35,12.96,13.45-.05,24.24-4.15,32.05-12.2h0c11.23-11.6,13.14-28.32,13.46-34.07-20.91,16.5-39.93,23.53-56.55,20.9-12.49-1.98-20.12-8.91-23.46-12.7Z"/>
  <path class="cls-2" d="M33.33,104.58l-.41-.2c-1.51-.74-2.88-1.68-4.06-2.78-3.42-3.13-4.66-6.92-5.74-10.26-.84-2.62-1.38-5.36-1.62-8.16l-.07-.85.84-.17s2.42-.49,6.53-1.12c.15-.02.26-.03.37-.06.46-.08.86-.14,1.25-.19l1.01-.15c4.02-.58,8.09-1.08,12.1-1.49,1.37-.14,2.74-.27,4.1-.39,1.1-.11,2.2-.2,3.3-.29l.19-.02c1.3-.1,2.6-.19,3.88-.25.12-.02.33-.03.53-.04l1.03-.05c.72-.06,1.49-.09,2.24-.13,13.43-.7,26.12-.41,37.81.87.53.05,1.05.11,1.57.17l3.88.48c1.42.19,2.77.39,4.11.6,1.43.21,2.86.46,4.3.74l1.04.2-.3,1.02c-1.14,3.89-2.96,7.52-5.39,10.79-4.88,6.53-11.04,9.89-15.34,11.56l-.31.06c-2.6.12-5.19-.17-7.68-.84-8.41-2.26-13.32-8.29-16.91-12.7-2.45-3.04-4.58-6.36-6.32-9.86l-1.44.18c-.56,1.13-1.19,2.28-1.89,3.43-1.06,1.77-2.18,3.41-3.36,4.91-.03.05-.11.16-.19.24-.28.37-.65.84-1.05,1.3-2,2.35-4.16,4.48-6.43,6.31-3.33,2.74-7.08,5.08-11.13,6.96l-.42.19ZM60.76,79.8c1.72,3.53,3.83,6.87,6.29,9.92,3.42,4.2,8.1,9.95,15.92,12.05,2.26.61,4.6.88,6.94.78,4.06-1.6,9.79-4.77,14.34-10.86,2.08-2.8,3.68-5.87,4.76-9.16-1.06-.19-2.11-.37-3.17-.53-1.33-.21-2.67-.4-4.07-.6l-3.85-.48c-.51-.06-1.02-.12-1.55-.17-11.07-1.21-23.04-1.53-35.62-.95ZM23.49,83.88c.26,2.36.75,4.67,1.45,6.88,1.06,3.26,2.16,6.64,5.22,9.44.94.88,2.01,1.63,3.2,2.26,3.74-1.77,7.21-3.96,10.3-6.51,2.18-1.76,4.26-3.81,6.19-6.08.38-.44.73-.89,1.07-1.32l.12-.16c1.13-1.44,2.2-3,3.18-4.65.78-1.29,1.45-2.52,2.02-3.7l-.64.03c-.14,0-.29.01-.44.03-1.35.07-2.63.16-3.91.26-1.27.11-2.36.2-3.47.31-1.36.12-2.72.25-4.08.39-3.98.41-8.02.9-12,1.48l-2.16.33c-.11.03-.29.06-.47.08-2.64.41-4.56.75-5.58.94Z"/>
  <g>
    <path class="cls-2" d="M56.6,79.04v.02c-.73,2.5-2.14,6.12-4.81,9.93-.04.06-.08.12-.12.15-2.56,3.62-5.35,6.02-7.37,7.54h-.04c-1.27.02-3.44-.12-5.87-1.15-3.19-1.39-5.04-3.58-5.83-4.66.37-.06.92-.15,1.58-.38.94-.31,1.6-.54,1.89-1.14.23-.5.12-1.02,0-1.48,0,0-.21-.87-.79-1.52-.89-1-2.89-1.29-4.95-.52-.46-1.29-.92-2.58-1.37-3.85.15-.02.31-.04.46-.08.71-.12,1.44-.21,2.17-.33,3.87-.56,7.89-1.06,12.05-1.48,1.37-.13,2.73-.27,4.08-.38,1.17-.12,2.33-.21,3.48-.31,1.29-.1,2.58-.19,3.85-.25.27-.04.54-.04.79-.06.27-.02.52-.04.79-.06Z"/>
    <path class="cls-2" d="M44.07,97.65c-2.08,0-4.16-.42-6.05-1.23-3.13-1.36-5.12-3.46-6.23-4.97l-.93-1.28,1.56-.24c.26-.04.79-.12,1.41-.34.75-.24,1.23-.42,1.34-.65.08-.18.02-.48-.07-.83,0,0-.17-.66-.58-1.12-.55-.62-2.1-.92-3.89-.26l-.91.34-.33-.92c-.46-1.29-.93-2.58-1.37-3.86l-.39-1.12,1.18-.15c.13-.02.24-.03.35-.06.46-.08.86-.14,1.25-.19l1.01-.15c4.02-.58,8.09-1.08,12.1-1.49,1.37-.14,2.74-.27,4.1-.39,1.1-.11,2.2-.2,3.3-.29l.19-.02c1.3-.1,2.6-.19,3.88-.25.12-.02.33-.03.53-.04l2.06-.15-.04,1.32c-.72,2.48-2.17,6.26-4.95,10.21-.06.09-.15.2-.22.28-1.99,2.84-4.47,5.37-7.47,7.63l-.26.19h-.32c-.08,0-.16,0-.23,0ZM34.29,91.46c1.02,1.11,2.49,2.32,4.49,3.19,1.62.7,3.42,1.07,5.2,1.08,2.73-2.09,4.99-4.43,6.91-7.14,2.27-3.23,3.6-6.23,4.37-8.49-.03,0-.07,0-.1.01-1.35.07-2.63.16-3.91.26-1.27.11-2.36.2-3.47.31-1.36.12-2.72.25-4.08.39-3.98.41-8.02.9-12,1.48l-1.48.22c.22.63.45,1.26.67,1.89,2.06-.5,4.02-.11,5.07,1.07.72.81.98,1.82,1,1.93.12.48.32,1.28-.06,2.11-.48,1-1.49,1.33-2.46,1.65-.05.02-.1.04-.15.05Z"/>
  </g>
  <g>
    <path class="cls-2" d="M105.99,81.04c-.19,1.54-.62,3.52-1.52,5.72-.71,1.75-1.54,3.18-2.29,4.29-.77,1-3.73,4.75-8.95,5.72-5.25.96-10.76-1.27-14.34-5.72.37.02.89.06,1.52,0,1.08-.12,1.85-.19,2.35-.73.71-.81.5-2.25-.04-3.16-.58-.94-1.52-1.29-2.12-1.52-1.79-.65-3.44-.25-4.18,0-.46-.69-1.19-2-1.39-3.81-.13-1.17,0-2.16.15-2.85,4.75-.12,9.95-.04,15.53.33,1.98.13,3.89.31,5.75.48.94.1,1.85.21,2.75.31.9.12,1.79.23,2.68.35,1.4.19,2.75.38,4.08.6Z"/>
    <path class="cls-2" d="M90.78,97.95c-4.73,0-9.4-2.28-12.63-6.3l-1.35-1.67,2.15.11c.44.03.87.05,1.38,0,.95-.1,1.49-.17,1.73-.43.35-.39.21-1.39-.16-2.01-.39-.63-1.06-.89-1.59-1.1-1.56-.57-3.01-.19-3.56,0l-.7.24-.41-.62c-.85-1.28-1.38-2.74-1.54-4.24-.12-1.04-.06-2.11.17-3.16l.16-.73.75-.02c5.13-.12,10.38-.01,15.62.33,1.99.14,3.91.31,5.78.48.54.06,1.07.12,1.58.18l3.88.48c1.42.19,2.77.39,4.11.6l.92.15-.12.92c-.25,2.01-.79,4.02-1.59,5.96-.63,1.54-1.43,3.05-2.38,4.46-2.57,3.34-5.86,5.44-9.57,6.12-.87.16-1.75.24-2.63.24ZM81.02,91.95c3.32,3.18,7.77,4.65,12.04,3.87,3.23-.6,6.12-2.45,8.36-5.36.84-1.26,1.58-2.64,2.16-4.07.61-1.49,1.06-3.01,1.32-4.55-1.02-.16-2.05-.3-3.12-.45l-3.85-.48c-.51-.06-1.02-.12-1.55-.17-1.85-.17-3.75-.34-5.72-.48-4.91-.32-9.83-.44-14.65-.34-.08.6-.08,1.2-.01,1.79.1.97.4,1.93.87,2.8,1.01-.23,2.48-.36,4.06.22.74.29,1.87.73,2.61,1.92.75,1.26.97,3.13-.06,4.29-.65.7-1.49.88-2.46,1Z"/>
  </g>
  <rect class="cls-2" x="43.86" y="88.06" width="17.74" height="1.92" transform="translate(-50.38 97.58) rotate(-64.11)"/>
  <g>
    <path class="cls-2" d="M63.34,104.42s-1.62,8.24-5.52,9.43c-3.89,1.17-6.62-4.87-6.62-4.87l-1.62-4.41-2.23-2.81c1.44,1.64,7.35,7.35,15.99,2.66Z"/>
    <path class="cls-2" d="M56.79,114.97c-3.9,0-6.36-5.34-6.47-5.59l-1.59-4.33-2.14-2.69,1.48-1.23c1.47,1.67,6.88,6.76,14.81,2.45l1.8-.98-.39,2.01c-.18.9-1.85,8.84-6.19,10.17-.45.14-.89.2-1.3.2ZM52.1,108.65s2.46,5.17,5.44,4.28c2.12-.65,3.61-4.21,4.37-6.78-4.11,1.63-7.85,1.15-10.85-.33l1.04,2.83h0Z"/>
  </g>
  <path class="cls-2" d="M106.88,102.08c3.79,1.51,6.73,4.53,8.09,8.38-3.46-2.2-6.01-4.86-8.09-8.38h0Z"/>
  <path class="cls-2" d="M30.54,109.06c-3.66,2.15-5.7,4.93-8.09,8.24-.36-4.25,3.64-8.91,8.09-8.24h0Z"/>
  <rect class="cls-2" x="60.76" y="129.87" width="1.92" height="25.17" transform="translate(-4.96 2.25) rotate(-2.01)"/>
  <rect class="cls-2" x="88.64" y="121.59" width="1.92" height="23.33" transform="translate(-55.55 64.58) rotate(-30.76)"/>
  <rect class="cls-2" x="29.29" y="132.64" width="17.97" height="1.92" transform="translate(-99.89 148.61) rotate(-80.22)"/>
  <g>
    <path class="cls-2" d="M6.91,81.04s7.74,5.15,7.59,12.94c0,0-.53,4.56-3.8,8.68,0,0,.23,3.67,3.8,7.21l-1.77,1.91s-3.67-1.16-2.85-8.27c0,0,11.79-11.15-2.98-22.48Z"/>
    <path class="cls-2" d="M13.03,112.89l-.58-.19c-.18-.06-4.42-1.49-3.52-9.29l.04-.35.25-.24s.65-.62,1.41-1.68c1.31-1.92,2.05-3.84,2.46-5.23.22-.95.33-1.98.27-3.05-.21-3.91-2.58-7.63-7.04-11.05l1.12-1.56c.33.22,8.18,5.54,8.02,13.76-.01.12-.12.98-.47,2.25-.6,2.73-1.95,4.92-3.01,6.31-.09.12-.18.24-.27.37.16.93.83,3.63,3.47,6.25l.66.65-2.81,3.04ZM10.75,106.2c.15,2.71,1.17,3.9,1.8,4.38l.64-.7c-1.16-1.29-1.93-2.57-2.44-3.69Z"/>
  </g>
  <g>
    <path class="cls-2" d="M137.47,113.99c-2.66,16.03-12.64,6.77-12.64,6.77,11.47.13,8.16-10.3,8.16-10.3-3-7.79-2.14-12.28-2.14-12.28.06-.09.14-.2.24-.33,3.04-4.03,9.97-8.78,15.5-6.3,5.04,2.26,5.91,9.16,5.96,9.56.38,3.4-.79,7.17-1.03,7.94-.29.95-.51,1.4-.51,1.4-.01,0,1.65-3.23,1.68-7.28,0-1.5-.21-2.64-.29-3-.27-1.3-1.38-6.76-5.81-8.62-3.21-1.35-6.51-.13-7.81.35-2.4.89-4.06,2.36-5.64,3.77-1.44,1.28-2.16,1.92-2.28,2.51-.59,2.77,4.71,4.15,6.45,9.43.81,2.45.47,4.58.17,6.37Z"/>
    <path class="cls-2" d="M130.77,124.38c-3.4,0-6.45-2.78-6.6-2.92l-1.83-1.7,2.5.03c3.18.07,5.34-.76,6.54-2.36,1.94-2.61.71-6.65.69-6.69-2.58-6.7-2.37-11.06-2.22-12.35.01-.13.03-.27.06-.4l.06-.23c.21-.64.74-1.2,1.72-2.09,1.14-1.19,2.52-2.35,4.05-3.31.43-.28.89-.55,1.38-.79,3.12-1.62,6.67-2.32,9.85-.9,2.22.94,5.12,3.31,6.36,9.28.21,1.03.32,2.14.31,3.23-.02,3.23-1.03,5.99-1.59,7.29-.26.67-.4.74-.61.84l-.91.47-.58-1.34.21-.46s.03-.08.05-.12c.08-.19.22-.56.38-1.09.87-2.8,1.23-5.48,1-7.55,0-.07-.81-6.73-5.38-8.79-2.86-1.2-5.83-.1-7.1.37-.33.12-.64.26-.95.4-.56.29-1.11.61-1.65.95-1,.68-1.88,1.46-2.75,2.23-.25.22-.49.44-.72.65-.45.47-.84.93-1.19,1.39l-.09.12c-.03.72.71,1.44,1.97,2.59,1.56,1.43,3.5,3.22,4.47,6.17.89,2.71.5,5.09.21,6.83-.93,5.6-2.87,8.94-5.78,9.93-.62.21-1.25.3-1.87.3ZM127.6,121.53c1.26.69,2.91,1.25,4.42.73,2.15-.74,3.71-3.65,4.5-8.43h0c.28-1.71.61-3.65-.14-5.91-.81-2.47-2.48-4-3.95-5.35-.21-.19-.42-.38-.62-.57.21,1.98.76,4.73,2.07,8.13.08.26,1.56,5.05-.96,8.46-1.16,1.57-2.95,2.56-5.33,2.95Z"/>
  </g>
  <path class="cls-2" d="M129.41,141.74c-.88,0-1.59-.21-1.93-.31-.82-.22-1.86-.51-2.65-1.43-.61-.7-.84-1.53-.96-3.55-.1-1.37-.1-2.83,0-4.32l.08-1.25,1.41.48c.51.19,1,.38,1.5.56,0-.01,0-.03,0-.04l-.04-.35c-.09-.81-.2-1.74.09-2.91.15-.6.36-1.4,1.04-2.05,1.36-1.3,3.66-1.1,5.02-.18,1.05.72,1.51,1.82,1.82,2.8.32,1.07.5,2.18.54,3.29.18,4.09-1.54,7.72-2.8,8.43-1.07.6-2.19.76-2.24.77-.31.05-.61.07-.88.07ZM125.73,133.55c-.02.95,0,1.88.06,2.77.11,1.84.29,2.18.49,2.42.42.48,1.05.66,1.73.84.38.11,1.09.32,2.01.19.01,0,.83-.12,1.57-.54.48-.32,1.98-3.03,1.82-6.66h0c-.04-.96-.19-1.9-.46-2.81-.3-.95-.6-1.45-1.06-1.77-.79-.54-2.05-.55-2.6-.02-.26.25-.37.59-.5,1.12-.2.83-.13,1.48-.04,2.23l.03.26c.05.53.08.91.1,1.27.12,2.23,0,3.54-.32,3.89l-1.48,1.56-.17-2.15s-.03-.4-.11-2.2c-.35-.13-.7-.26-1.05-.39Z"/>
  <path class="cls-2" d="M14.63,129.02c-.19,0-.41-.02-.62-.04-.15-.02-1.02-.14-1.87-.62-1.37-.77-3.06-5.06-1.81-9.16.19-.63.49-1.42,1.17-1.99.12-.13.24-.21.31-.26,1.12-.76,3-.91,4.1.16.54.48.7,1.09.82,1.59.25.96.18,1.68.1,2.31l.3-.1.4.29c.41.3.8.58,1.17.82l.44.28v.52c0,.78-.02,1.44-.06,1.98-.1,1.56-.29,2.21-.78,2.8-.65.76-1.47.99-2.12,1.18-.51.16-1.03.24-1.54.24ZM13.82,118.27c-.33,0-.68.09-.94.27-.36.3-.54.64-.71,1.21-1.03,3.4.46,6.56.94,6.95.5.28,1.09.37,1.09.37.49.05.93.02,1.4-.12.61-.18.97-.29,1.23-.59.09-.11.23-.28.33-1.69.03-.38.05-.83.05-1.33-.12-.08-.24-.16-.36-.25-.1,2.17-.19,2.36-1.05,2.36h-.86l-.09-.86c0-.06-.16-1.57.04-3.53.09-.76.14-1.22-.01-1.82-.11-.41-.16-.6-.29-.72-.17-.17-.46-.25-.76-.25Z"/>
  <path class="cls-2" d="M71.38,187.02c-4.12,0-7.52-.76-10.1-2.25l-.14-.09h0c-3.76-2.21-4.38-5.23-4.4-5.36l-.28-1.68c-.08-.36-.14-.75-.2-1.11l-1.79-10.43,2.07.6c.23.07.45.12.68.17l.19.04c.2.06.41.11.61.14.46.11.83.2,1.2.28.43.1.84.17,1.27.25.52.1,1.04.19,1.57.26.39.06.79.11,1.2.15.56.08,1.08.13,1.6.17l.34.02c.23.02.37.03.53.03.56.06.95.08,1.35.1,1.9.05,3.25.02,4.77-.04,1.63-.08,3.32-.27,5.16-.57,1.59-.27,2.97-.55,4.21-.87,2.36-.59,4.71-1.34,6.99-2.23l1.06-.46,1.31-.51v13.12l-.12.21c-.08.14-1.95,3.56-6.24,6.39-.15.12-.39.27-.65.41l-.56.33c-.44.25-.89.49-1.35.72-1.35.65-2.77,1.15-4.21,1.51-.19.06-.44.11-.68.16l-.33.07c-1.51.3-3.02.45-4.64.47-.14,0-.28,0-.42,0ZM62.26,183.13c2.51,1.37,5.7,2.02,9.52,1.96,1.5-.02,2.89-.16,4.25-.42l.34-.07c.19-.04.39-.08.58-.14,1.36-.33,2.65-.8,3.88-1.39.42-.2.82-.42,1.21-.64l.58-.34c.2-.11.35-.2.48-.3,3.36-2.22,5.11-4.82,5.56-5.55v-9.75c-2.27.88-4.61,1.62-6.96,2.21-1.28.33-2.71.62-4.37.9-1.92.31-3.68.5-5.38.59-1.58.07-3.15.09-4.78.04-.61-.02-1.06-.05-1.53-.11-.12,0-.32,0-.53-.03-.16,0-.3,0-.47-.04-.47-.03-1.03-.09-1.59-.17-.39-.03-.83-.09-1.25-.15-.55-.08-1.1-.18-1.64-.28-.45-.08-.89-.16-1.33-.26-.38-.08-.78-.17-1.18-.28-.17-.02-.41-.07-.65-.14h-.1s1.27,7.36,1.27,7.36c.06.41.12.75.2,1.12l.28,1.71c.01.06.52,2.29,3.48,4.04l.14.1Z"/>
  <path class="cls-2" d="M60.52,125.11c-3-2.67-2.96-7.6-2.96-7.81h.96c0,.06-.03,4.72,2.63,7.09l-.64.72Z"/>
  <path class="cls-2" d="M63.42,124.45c-4.16-3.08-3.1-9.6-3.06-9.88l.95.16c-.01.06-1,6.22,2.68,8.95l-.57.77Z"/>
  <path class="cls-2" d="M65.13,123.02c-2.06-2.05-3.34-7.15-3.4-7.37l.93-.23c.01.05,1.28,5.06,3.14,6.92l-.68.68Z"/>
  <path class="cls-2" d="M69.52,122.47c-4.2-1.32-5.22-6.62-5.26-6.84l.95-.17s.96,4.95,4.6,6.1l-.29.92Z"/>
  <path class="cls-2" d="M72.34,121.5c-4-.35-4.84-4.66-4.84-4.7l.95-.18c.03.15.72,3.63,3.98,3.92l-.08.96Z"/>
  <rect class="cls-2" x="70.54" y="115.05" width=".96" height="4.3" transform="translate(-58.12 71.35) rotate(-39.24)"/>
  <path class="cls-2" d="M77.02,119.77c-3.08,0-4.98-3.84-5.07-4.03l.87-.42s2.13,4.32,5.15,3.32l.3.91c-.44.14-.85.21-1.25.21Z"/>
  <path class="cls-2" d="M75.21,117.06c-.49-.48-2.96-2.91-3.27-3.7l.89-.36c.16.4,1.68,2.03,3.05,3.36l-.67.69Z"/>
  <rect class="cls-2" x="77.79" y="113.59" width=".96" height="6.25" transform="translate(-61.11 98.76) rotate(-48.81)"/>
  <path class="cls-2" d="M82.49,117.25c-2.76,0-4.72-4.19-4.81-4.38l.87-.4c.55,1.19,2.37,4.18,4.32,3.78l.2.94c-.2.04-.39.06-.58.06Z"/>
  <rect class="cls-2" x="81.5" y="112.86" width=".96" height="3.37" transform="translate(-58.87 113.26) rotate(-53.88)"/>
  <path class="cls-2" d="M87.11,116.01c-3.78-.47-5.12-3.91-5.17-4.06l.9-.34c.05.12,1.2,3.05,4.39,3.44l-.12.95Z"/>
  <rect class="cls-2" x="84.83" y="111.3" width=".96" height="2.48" transform="translate(-40.06 47.54) rotate(-25.43)"/>
  <path class="cls-2" d="M89.7,114.49c-1.23,0-2.2-.36-2.87-1.09-1.2-1.29-.97-3.21-.96-3.29l.95.12s-.18,1.57.71,2.52c.53.57,1.36.83,2.46.77l.05.96c-.12,0-.24.01-.36.01Z"/>
  <rect class="cls-2" x="88.93" y="111.16" width=".96" height="1.77" transform="translate(-53.03 95.99) rotate(-44.98)"/>
  <path class="cls-2" d="M94.95,113.15c-3.55,0-4.45-2.42-4.48-2.53l.91-.32-.45.16.45-.16c.03.08.8,1.95,3.73,1.89l.02.96c-.06,0-.12,0-.17,0Z"/>
  <path class="cls-2" d="M95.09,111.31c-1.97-.08-3.11-1.52-3.15-1.58l.76-.59s.93,1.15,2.44,1.21l-.04.96Z"/>
  <path class="cls-2" d="M96.91,111.38c-2.31,0-2.71-1.83-2.71-1.85l.94-.2c.03.14.38,1.37,2.47,1.02l.16.95c-.31.05-.6.08-.86.08Z"/>
  <rect class="cls-2" x="97.2" y="108.85" width=".96" height="1.83" transform="translate(-47.73 88.67) rotate(-40.08)"/>
  <path class="cls-2" d="M100.58,109.62c-1.73,0-2.63-1-2.67-1.04l.72-.63-.36.32.36-.32s.9.97,2.65.65l.17.95c-.31.06-.6.08-.87.08Z"/>
  <path class="cls-2" d="M102.8,107.64c-1.12,0-2.47-.56-2.81-.71l.39-.88c.93.41,2.52.86,2.97.52l.59.76c-.3.23-.7.31-1.13.31Z"/>
  <rect class="cls-2" x="52.62" y="119.91" width="5.3" height=".96" transform="translate(-76.55 107.21) rotate(-59.63)"/>
  <path class="cls-2" d="M52.2,123.57l-.67-.69c1.67-1.63,3.27-5.81,3.29-5.85l.9.34c-.07.18-1.69,4.43-3.51,6.2Z"/>
  <path class="cls-2" d="M48.77,123.11l-.44-.86c2.25-1.15,4.77-6.43,4.79-6.48l.87.41c-.11.23-2.68,5.62-5.23,6.92Z"/>
  <path class="cls-2" d="M46.61,121.51l-.53-.8c3.86-2.54,4.97-4.64,4.98-4.66l.86.44c-.05.09-1.21,2.32-5.31,5.03Z"/>
  <path class="cls-2" d="M42.9,121.96l-.26-.92c3.92-1.11,6.88-5.71,6.91-5.75l.81.52c-.13.2-3.19,4.95-7.46,6.16Z"/>
  <path class="cls-2" d="M40.61,120.87l-.14-.95s3.35-.56,6.7-4.27l.71.65c-3.6,3.98-7.12,4.55-7.27,4.57Z"/>
  <path class="cls-2" d="M38.42,119.57l-.29-.92c3.07-.95,6.8-3.48,6.84-3.51l.54.79c-.16.11-3.89,2.63-7.1,3.63Z"/>
  <path class="cls-2" d="M36.6,117.8c-.19,0-.39,0-.58-.02l.07-.96c3.68.29,8.26-2.65,8.31-2.68l.52.81c-.19.12-4.45,2.85-8.32,2.85Z"/>
  <path class="cls-2" d="M34.76,116.75l-.07-.96c3.84-.28,6.42-2.16,6.44-2.18l.58.77c-.11.08-2.81,2.07-6.95,2.37Z"/>
  <path class="cls-2" d="M34.3,115.11c-.56,0-1.15-.08-1.73-.3l.34-.9c2.1.79,4.56-.65,4.59-.66l.49.83c-.09.05-1.76,1.04-3.69,1.04Z"/>
  <rect class="cls-2" x="33.8" y="112.19" width="4.14" height=".96" transform="translate(-44.58 26.01) rotate(-25.21)"/>
  <rect class="cls-2" x="33.94" y="110.31" width="1.99" height=".96" transform="translate(-34.8 17.88) rotate(-19.39)"/>
  <rect class="cls-2" x="121.2" y="96.08" width=".96" height="1.85" transform="translate(-24.31 150.87) rotate(-58.82)"/>
  <rect class="cls-2" x="120.99" y="91.75" width=".96" height="4.67" transform="translate(-29.14 124.45) rotate(-49.16)"/>
  <polygon class="cls-2" points="124.04 93.67 120.96 90.65 121.63 89.97 124.72 92.98 124.04 93.67"/>
  <polygon class="cls-2" points="125.34 91.39 119.67 85.99 120.34 85.29 126 90.69 125.34 91.39"/>
  <rect class="cls-2" x="122.69" y="81.79" width=".96" height="9.5" transform="translate(-24.27 116.89) rotate(-46.72)"/>
  <rect class="cls-2" x="125.61" y="85.28" width=".96" height="4.41" transform="translate(-24.84 115.28) rotate(-45.19)"/>
  <polygon class="cls-2" points="123.07 85.06 119.01 81.06 119.68 80.37 123.74 84.38 123.07 85.06"/>
  <rect class="cls-2" x="120.79" y="78.36" width=".96" height="4.22" transform="translate(-23.18 98.29) rotate(-40.6)"/>
  <rect class="cls-2" x="125.61" y="81.76" width=".96" height="7.34" transform="translate(-24.23 109.93) rotate(-43.38)"/>
  <rect class="cls-2" x="124.21" y="74.94" width=".96" height="14.01" transform="translate(-22.8 104.54) rotate(-42.02)"/>
  <rect class="cls-2" x="124.97" y="72.56" width=".96" height="16.3" transform="translate(-21.83 104.4) rotate(-41.89)"/>
  <rect class="cls-2" x="125.44" y="70.66" width=".96" height="17.57" transform="translate(-20.65 105.61) rotate(-42.37)"/>
  <g>
    <path class="cls-2" d="M56.42,168.56s10.74,6.55,17.5,6.18c6.77-.37,14.93-6.62,14.93-6.62v-2.77s-12.94,7.04-32.43,3.21Z"/>
    <path class="cls-2" d="M73.36,175.24c-6.83,0-16.76-6-17.19-6.26l-2.3-1.4,2.64.52c19.07,3.74,31.98-3.09,32.11-3.16l.71-.39v3.82l-.19.14c-.34.26-8.36,6.34-15.2,6.72-.19.01-.39.02-.59.02ZM59.11,169.52c3.54,1.88,10.18,4.99,14.8,4.75,5.98-.33,13.22-5.46,14.47-6.38v-1.76c-2.82,1.3-13.83,5.7-29.27,3.4Z"/>
  </g>
  <rect class="cls-2" x="33.55" y="153.01" width=".96" height="4.92" transform="translate(-25.1 7.71) rotate(-9.46)"/>
  <rect class="cls-2" x="36.06" y="153.99" width=".96" height="5.6" transform="translate(-11.13 3.02) rotate(-4.11)"/>
  <rect class="cls-2" x="36.34" y="156.98" width="5.96" height=".96" transform="translate(-122.4 171.04) rotate(-80.78)"/>
  <path class="cls-2" d="M42.32,164.89c-1.21-2.27-1.58-6.76-1.6-6.95l.96-.08s.37,4.49,1.49,6.58l-.85.45Z"/>
  <path class="cls-2" d="M40.61,164.34c-1.27-1.57-.82-5.22-.76-5.63l.95.13c-.13,1-.3,3.83.56,4.89l-.75.61Z"/>
  <path class="cls-2" d="M45.89,166.86c-2.07-1.77-1.86-4.03-1.45-4.98l.89.37c-.04.09-.85,2.13,1.19,3.87l-.62.73Z"/>
  <path class="cls-2" d="M48.57,168.34c-.53-.26-1.12-1.98-1.73-5.12l.94-.19c.76,3.88,1.28,4.48,1.3,4.51l-.51.8Z"/>
  <path class="cls-2" d="M51.66,169.22c-1.37-1.48-2.48-4.26-2.52-4.38l.89-.35s1.09,2.73,2.33,4.08l-.7.65Z"/>
  <path class="cls-2" d="M52.93,169.3s-.09-.52-.75-2.74l.92-.27c.68,2.3.77,2.81.78,2.86l-.95.15Z"/>
  <path class="cls-2" d="M43.85,163.78c-.19,0-.41-.11-.54-.52l-.07-.3c-.04-.25-.05-.53-.02-.85.02-.16.04-.33.08-.49-.23-1.93-.66-4.77-.66-4.77l.95-.14s.22,1.48.43,3.02c.47-.92.98-1.63,1.01-1.68l.78.56s-1.16,1.62-1.54,3.07l.05.5c.02.21.04.39.04.54.03.43.07.95-.41,1.04-.03,0-.07.01-.1.01Z"/>
  <path class="cls-2" d="M46.15,163.53c-1.19-2.16-.44-4.78-.41-4.89l.92.27s-.67,2.34.33,4.15l-.84.46Z"/>
  <path class="cls-2" d="M49.16,163.93c-1.03-1.98-.87-5.89-.86-6.05l.96.04s-.15,3.82.75,5.57l-.85.44Z"/>
  <path class="cls-2" d="M48.81,165.67c-1.17-1.35-1.94-4.61-1.98-4.75l.94-.22s.75,3.17,1.76,4.34l-.73.63Z"/>
  <path class="cls-2" d="M51.12,166.8c-1.65-1.3-1.26-5.93-1.21-6.45l.96.09c-.17,1.77-.08,4.86.85,5.6l-.6.75Z"/>
  <path class="cls-2" d="M52.76,166.53c-1.55-1.03-1.3-6.23-1.23-7.27l.96.06c-.15,2.34,0,5.87.8,6.4l-.53.8Z"/>
  <path class="cls-2" d="M54.49,166.55c-.04-.15-.97-3.63-1.19-8.11l.96-.05c.22,4.38,1.15,7.87,1.16,7.91l-.93.25Z"/>
  <path class="cls-2" d="M58.7,165.77c-2.62-2.07-1.9-6.85-1.87-7.06l.95.15s-.66,4.43,1.51,6.15l-.6.75Z"/>
  <path class="cls-2" d="M57.87,169.95c-1.88-1-1.8-5.94-1.78-6.5l.96.03c-.05,1.89.25,5.08,1.27,5.62l-.45.85Z"/>
  <path class="cls-2" d="M59.73,164.31c-1.1-1.34-1.21-5.43-1.21-5.89l.96-.02c.02,1.16.24,4.37.99,5.29l-.74.61Z"/>
  <path class="cls-2" d="M59.19,169.84c-1.4-1.59-.14-4.84-.09-4.97l.9.35c-.31.79-.92,3.03-.09,3.99l-.72.64Z"/>
  <path class="cls-2" d="M61.3,164.24c-.4-.69-.43-2.04-.42-3.61,0-.45,0-1.01-.03-1.14l.32-.08.46-.46c.22.22.22.5.22,1.68,0,.97,0,2.6.3,3.13l-.84.48Z"/>
  <rect class="cls-2" x="59.77" y="164.66" width=".96" height="5.4" transform="translate(-9.06 3.54) rotate(-3.13)"/>
  <rect class="cls-2" x="61.35" y="165.02" width=".96" height="5.99" transform="translate(-18.19 7.86) rotate(-6.35)"/>
  <rect class="cls-2" x="63.3" y="158.78" width=".96" height="5.22"/>
  <rect class="cls-2" x="60.99" y="167.22" width="4.77" height=".96" transform="translate(-112.65 201.68) rotate(-80.23)"/>
  <rect class="cls-2" x="64.33" y="165.33" width=".96" height="3.84" transform="translate(-24.89 11.92) rotate(-8.82)"/>
  <rect class="cls-2" x="65.69" y="160.78" width=".96" height="6.94" transform="translate(-18.69 8.83) rotate(-6.69)"/>
  <path class="cls-2" d="M66.1,170c-1.43-.21-1.54-3.7-1.48-5.76l.96.03c-.07,2.32.25,4.6.66,4.78l-.14.95Z"/>
  <rect class="cls-2" x="67.19" y="158.75" width=".96" height="2.93" transform="translate(-30.81 16.87) rotate(-11.59)"/>
  <path class="cls-2" d="M69.38,171.32c-1.09-1.17-1.51-7.01-1.58-8.17l.96-.06c.17,2.74.7,6.9,1.32,7.57l-.7.66Z"/>
  <path class="cls-2" d="M67.95,173.02c-.69-1.6-.37-7.43-.33-8.09l.96.06c-.1,1.73-.25,6.47.26,7.65l-.89.38Z"/>
  <path class="cls-2" d="M69.98,166.04c-.79-.79-1.31-5.32-1.45-6.69l.96-.1c.27,2.63.79,5.71,1.18,6.11l-.68.68Z"/>
  <rect class="cls-2" x="71.13" y="163.67" width=".96" height="7.36" transform="translate(-24.26 12.62) rotate(-8.61)"/>
  <path class="cls-2" d="M73.57,167.21c-2.53-2.74-2.45-7.43-2.45-7.63l.96.02s-.07,4.5,2.19,6.96l-.71.65Z"/>
  <rect class="cls-2" x="72.54" y="157.87" width=".96" height="2.55" transform="translate(-29.58 17.25) rotate(-11.22)"/>
  <path class="cls-2" d="M74.54,166.46c-1.61-1.7-1.11-5.56-1.08-5.72l.95.13c-.13.99-.25,3.8.83,4.93l-.7.66Z"/>
  <rect class="cls-2" x="74.14" y="158.38" width=".96" height="2.05" transform="translate(-38.05 24.19) rotate(-14.72)"/>
  <rect class="cls-2" x="76.5" y="164.23" width=".96" height="6.2" transform="translate(-21.17 11.47) rotate(-7.5)"/>
  <path class="cls-2" d="M78.26,165.63c-.7-1.19-2.06-4.1-2.12-4.22l.87-.41s1.4,2.98,2.07,4.14l-.83.49Z"/>
  <path class="cls-2" d="M79.18,165.05c-.04-2.75-1.96-6.37-1.98-6.41l.85-.45c.08.16,2.06,3.86,2.1,6.85h-.96Z"/>
  <path class="cls-2" d="M81.02,168.1c-.08-.48-.84-5.72-.87-5.95l.95-.14c0,.05.79,5.45.87,5.92l-.95.17Z"/>
  <rect class="cls-2" x="82.27" y="158.54" width=".96" height="6.75" transform="translate(-54.27 42.38) rotate(-21.83)"/>
  <rect class="cls-2" x="78.52" y="166.13" width=".96" height="1.89"/>
  <polygon class="cls-2" points="84.99 166.26 83.54 161.17 84.47 160.91 85.92 166 84.99 166.26"/>
  <path class="cls-2" d="M87.63,165.06c-1.04-.75-1.96-2.68-2-2.76l.87-.41c.24.5,1,1.9,1.69,2.4l-.56.78Z"/>
  <path class="cls-2" d="M89.34,164.41c-1.56-1.02-2.99-5.35-3.15-5.84l.92-.3c.4,1.24,1.68,4.63,2.76,5.34l-.53.8Z"/>
  <path class="cls-2" d="M91.5,167.05c-.23-.61-2.11-4.48-3.07-6.44l.86-.42c.11.23,2.81,5.73,3.11,6.53l-.9.33Z"/>
  <rect class="cls-2" x="91.47" y="160.88" width=".96" height="5.14" transform="translate(-67.94 65.43) rotate(-29.13)"/>
  <rect class="cls-2" x="92.42" y="159.86" width=".96" height="5" transform="translate(-55.05 47.9) rotate(-22.5)"/>
  <rect class="cls-2" x="94.15" y="159.09" width=".96" height="6.45" transform="translate(-72.21 75.92) rotate(-32.38)"/>
  <polygon class="cls-2" points="97.46 163.66 95.63 159.49 96.5 159.1 98.34 163.27 97.46 163.66"/>
  <polygon class="cls-2" points="98.99 160.69 98.1 158.06 99.01 157.75 99.92 160.54 99.41 160.55 98.99 160.69"/>
  <g>
    <line class="cls-1" x1=".04" y1="81.47" x2="2.05" y2="132.19"/>
    <path class="cls-2" d="M.04,81.47c.97,16.9,1.64,33.8,2,50.72C1.08,115.29.41,98.38.04,81.47H.04Z"/>
  </g>
  <g>
    <path class="cls-1" d="M120,140.78c10.99-.26,12.99,0,12.99,0"/>
    <path class="cls-2" d="M120,140.78c4.32-.39,8.68-.56,12.99,0-3.84.07-9.21.26-12.99,0h0Z"/>
  </g>
  <path class="cls-2" d="M124.38,139.66c.32,5.37.33,10.74,0,16.11-.33-5.37-.32-10.74,0-16.11h0Z"/>
  <path class="cls-2" d="M59.07,5.37c-7.12.32-14.24.33-21.37,0,7.12-.33,14.24-.32,21.37,0h0Z"/>
  <g>
    <path class="cls-2" d="M17.85,81.04c-.03-.42-.17-1.58-1.08-2.44-.7-.67-1.5-.82-2.44-1-.69-.13-1.82-.26-3.24,0,.37-1.44.74-2.87,1.11-4.31-.41-.07-.93-.13-1.53-.09-.88.05-1.59.26-2.09.45.6-.71,1.19-1.42,1.79-2.13-.33-.27-2.79-2.33-2.74-5.67.03-2.22,1.15-3.77,1.57-4.29.49.91.98,1.83,1.47,2.74.76-1.27,1.52-2.54,2.28-3.8-2.82-3.88-2.63-5.09-2.28-5.54.29-.36.77-.34,1.97-.5,1.48-.2,2.92-.68,4.39-.96,1.63-.32,4.64-.97,10.65-2.41-.19,1.46-.39,2.92-.58,4.38-1.45,1.14-2.91,2.28-4.36,3.41.04,2.46.07,4.92.11,7.39-1.67,4.93-3.33,9.86-5,14.79Z"/>
    <path class="cls-2" d="M17.22,85.94l-.35-4.83c-.03-.43-.17-1.23-.78-1.81-.47-.45-1-.57-1.95-.75-.93-.18-1.9-.18-2.88,0l-1.5.28,1.21-4.67c-.08,0-.16,0-.24,0-.61.03-1.21.16-1.79.38l-3.55,1.37,3.64-4.32c-.96-1.01-2.41-3-2.38-5.76.03-2.35,1.13-4.07,1.78-4.89l.92-1.16,1.36,2.53,1.06-1.78c-2.2-3.13-2.78-5.05-1.88-6.19.48-.61,1.13-.69,2.02-.79l.59-.07c.83-.11,1.64-.31,2.51-.53.61-.15,1.21-.3,1.82-.42,2.12-.41,5.69-1.22,10.61-2.4l1.38-.33-.82,6.19-4.3,3.36.11,7.07-6.6,19.53ZM12.72,76.47c.6,0,1.2.06,1.79.17,1,.19,2.02.39,2.93,1.26.12.11.22.23.32.35l4.1-12.14-.12-7.7,4.43-3.47.34-2.58c-4.24,1.01-7.37,1.71-9.31,2.09-.58.11-1.15.26-1.72.4-.88.22-1.79.45-2.72.57l-.62.08c-.31.04-.66.08-.78.12.06.02-.04,1.01,2.36,4.3l.38.52-3.49,5.83-1.49-2.76c-.29.64-.52,1.43-.53,2.35-.04,2.8,1.97,4.57,2.38,4.9l.78.63-.7.83c.44,0,.88.04,1.31.12l1.04.18-1.02,3.96c.11,0,.23,0,.34,0Z"/>
  </g>
  <path class="cls-2" d="M178.71,103.9l-6.22-4.78c-13-9.99-20.91-16.1-23.53-18.17l-.2-.16c-.87-.68-3.5-2.77-6.99-5.44l-.75-.58c-24.9-18.73-47.85-24.2-48.07-24.25-11.9-2.75-24.24-3.5-36.68-2.22-7.97.51-15.97,1.44-23.8,2.79-7.22,1.24-14.46,2.85-21.54,4.79l-1.35.37.11-1.39c.03-.34.74-8.45,5.56-18.27,8.7-17.74,24.37-25.56,30.71-28.1,9.57-3.84,17.51-4.05,23.31-4.21,7.17-.18,32.17.57,53.91,18.24,2.22,1.81,5.94,4.83,9.89,9.69,8.36,10.27,13.36,23.32,14.46,37.74,3.76,3.31,7.44,6.79,10.94,10.34,5.42,5.5,10.59,11.37,15.39,17.45l4.86,6.16ZM68.04,45.75c8.58,0,17.07.96,25.35,2.88.23.05,23.55,5.6,48.81,24.59l.77.59c3.5,2.68,6.14,4.77,7.01,5.46l.21.16c2.12,1.67,7.73,6.02,16.72,12.93-3.16-3.68-6.44-7.26-9.82-10.69-3.56-3.61-7.3-7.15-11.14-10.51l-.3-.26-.03-.4c-.7-9.89-3.71-24.34-14.05-37.05-3.83-4.7-7.45-7.65-9.61-9.4C100.73,6.8,76.31,6.06,69.32,6.24c-5.65.15-13.39.35-22.64,4.06-6.12,2.46-21.28,10.02-29.68,27.15-3.51,7.16-4.78,13.46-5.19,16.17,6.69-1.79,13.52-3.29,20.32-4.45,7.91-1.36,15.97-2.3,23.97-2.81,3.99-.41,7.97-.62,11.93-.62Z"/>
  <g>
    <path class="cls-2" d="M132.82,85.93c-1.86-2.39-3.89-4.85-6.12-7.37-2.48-2.8-4.92-5.36-7.29-7.7-.2-1.09-.72-3.03-2.15-5.02-1.6-2.22-3.54-3.37-4.55-3.88v-3.58s-7.76,3.13-8.21-3.88c3.4,1.1,8.62,2.94,14.73,5.8,14.29,6.68,23.93,14.42,37.37,25.36,5.22,4.25,12.35,10.28,20.56,17.93-1.33.96-3,1.95-5.02,2.76-6.07,2.44-11.67,1.75-14.51,1.17,2.16-8.39.1-16.62-5.28-20.62-3.49-2.59-7.88-3.05-9.62-3.13-4.71-.23-8.29,1.33-9.92,2.16Z"/>
    <path class="cls-2" d="M163.08,109.05c-2.14,0-4.06-.25-5.63-.57l-1.01-.2.26-1c2.06-8,.08-15.88-4.92-19.59-3.24-2.41-7.43-2.86-9.09-2.94-4.09-.21-7.39,1.01-9.43,2.06l-.72.37-.5-.64c-1.94-2.48-3.98-4.95-6.08-7.32-2.32-2.63-4.76-5.2-7.25-7.65l-.22-.21-.06-.3c-.31-1.66-1-3.26-1.98-4.63-1.37-1.9-3.04-2.99-4.2-3.58l-.54-.27v-2.86c-1.5.38-3.96.7-5.83-.48-1.44-.91-2.24-2.48-2.38-4.67l-.09-1.43,1.36.44c5.03,1.63,10.03,3.59,14.85,5.84,14.7,6.86,24.79,15.08,37.57,25.49,6.99,5.69,13.93,11.74,20.6,17.97l.87.81-.97.69c-1.63,1.17-3.39,2.14-5.22,2.87-3.34,1.34-6.59,1.79-9.44,1.79ZM158.83,106.74c3.36.55,8.06.67,12.96-1.3,1.32-.53,2.6-1.19,3.82-1.97-6.37-5.91-12.96-11.64-19.61-17.05-12.68-10.32-22.69-18.47-37.17-25.23-1.69-.79-3.41-1.55-5.14-2.26v2.45c1.3.73,2.97,1.95,4.37,3.9,1.09,1.51,1.86,3.27,2.25,5.1,2.44,2.42,4.84,4.96,7.13,7.54,1.95,2.2,3.85,4.49,5.67,6.79,2.27-1.06,5.63-2.11,9.69-1.91,2.27.11,6.62.69,10.16,3.32,5.5,4.09,7.76,12.11,5.88,20.63ZM105.76,55.94c.25.74.65,1.29,1.2,1.64,1.15.72,2.86.57,4.1.29-1.76-.68-3.53-1.33-5.31-1.93Z"/>
  </g>
  <g>
    <path class="cls-2" d="M82.88,48.46s1.57,2.69,2.98,2.98c0,0,.44,6.76-7.16,1.04,0,0,1.27,10.07,10.89,2.61,0,0,3.48-2.44,1.25-6.03,0,0-6.48-.38-7.97-.61Z"/>
    <path class="cls-2" d="M83.47,58.83c-.68,0-1.33-.12-1.93-.37-3.21-1.33-3.79-5.66-3.81-5.84l-.29-2.29,1.84,1.38c3.2,2.41,4.45,2.19,4.85,1.98.49-.26.68-1.02.74-1.6-1.41-.8-2.58-2.7-2.83-3.14l-1.03-1.76,2.01.3c1.43.22,7.82.59,7.88.6l.51.03.27.43c2.14,3.46-.06,6.32-1.52,7.34-2.51,1.95-4.75,2.93-6.68,2.93ZM80.46,54.8c.4.76.99,1.5,1.84,1.85,1.57.65,3.89-.15,6.69-2.32.3-.21,2.45-1.85,1.26-4.32-1.05-.06-3.43-.21-5.3-.36.4.44.81.78,1.11.84l.72.15.05.74c.02.3.14,2.99-1.77,4.02-1.17.63-2.69.44-4.61-.6Z"/>
  </g>
  <path class="cls-2" d="M37.67,49.61l-1.92-.36c2.04-11.01,9.74-19.94,19.63-22.75,2.82-.8,12.74-2.93,21.85,3.49,8.25,5.81,10.11,14.7,10.49,17.29l-1.93.28c-.35-2.39-2.07-10.61-9.68-15.97-8.4-5.91-17.57-3.95-20.19-3.21-9.18,2.61-16.34,10.94-18.25,21.23Z"/>
  <path class="cls-2" d="M39.4,42.8l-.47-1.89c7.16-1.79,14.53-2.84,21.91-3.12,8.05-.3,16.14.32,24.05,1.83l-.37,1.92c-7.77-1.49-15.7-2.09-23.61-1.8-7.24.27-14.48,1.3-21.51,3.06Z"/>
  <g>
    <path class="cls-2" d="M42.91,36.31c1.94-1.06,4-2.11,6.17-3.14,3-1.43,5.9-2.66,8.65-3.73-.03.16-.48,2.86,1.57,4.7,1.81,1.63,4.06,1.24,4.33,1.19.66-.07,1.95-.31,3.28-1.19,1.5-1,2.24-2.29,2.54-2.9,2.78,1.17,5.57,2.33,8.35,3.5-.26.58-.56,1.53-.22,2.46.59,1.64,2.93,2.72,5.67,2.13,0,0-4.55-13.52-22.6-13.2-1.99.08-5.51.5-9.32,2.49-4.7,2.45-7.29,5.96-8.41,7.69Z"/>
    <path class="cls-2" d="M81.76,40.46c-2.4,0-4.45-1.12-5.1-2.94-.28-.79-.24-1.58-.08-2.24l-6.71-2.81c-.51.8-1.28,1.72-2.42,2.48s-2.39,1.2-3.72,1.35c-.42.08-2.99.45-5.09-1.44-1.38-1.25-1.81-2.82-1.92-3.98-2.44.98-4.87,2.04-7.23,3.17-2.06.98-4.12,2.03-6.13,3.12l-3.36,1.82,2.07-3.21c1.53-2.37,4.29-5.69,8.78-8.03,2.98-1.56,6.35-2.45,9.73-2.6,18.61-.28,23.52,13.72,23.57,13.86l.35,1.04-1.07.23c-.57.12-1.14.18-1.69.18ZM79.05,34.33l-.36.8c-.21.46-.41,1.13-.19,1.73.32.89,1.58,1.64,3.27,1.64.03,0,.05,0,.08,0-.48-1-1.36-2.54-2.79-4.18ZM59.01,27.9l-.31,1.72c-.02.09-.4,2.31,1.26,3.8,1.44,1.3,3.29,1,3.49.96,1.09-.12,2.08-.48,2.92-1.05,1.19-.79,1.85-1.81,2.2-2.52l.4-.82,9.88,4.14c-3.11-3.44-8.68-7.18-18.2-7.01-3.08.13-6.16.95-8.89,2.38-2.13,1.11-3.84,2.47-5.19,3.81.69-.34,1.38-.68,2.08-1.01,2.85-1.35,5.78-2.62,8.72-3.76l1.62-.63Z"/>
  </g>
  <rect class="cls-2" x="142.79" y="72.9" width="6.93" height="1.95" transform="translate(58.86 212.49) rotate(-84.57)"/>
  <path class="cls-2" d="M17.26,53.61l-1.93-.26c.04-.26,3.71-25.76,23.23-41.31l1.22,1.53c-18.91,15.07-22.47,39.8-22.51,40.05Z"/>
  <path class="cls-2" d="M95.59,19.17c-5.3-10.58-8.4-11.33-8.44-11.33l.2-1.94c.65.05,4.21.86,9.98,12.4l-1.75.87Z"/>
  <path class="cls-2" d="M108.67,51.28c-3.07-13.88-9.81-26.97-9.87-27.1l1.73-.9c.07.13,6.92,13.44,10.05,27.58l-1.91.42Z"/>
  <path class="cls-2" d="M93,9.33c-.22-1.07-.87-3.11-2.68-4.81-.94-.88-2.91-2.36-5.64-2.42-4.29-.17-6.99,3.45-7.27,3.86l-1.59-1.13c.35-.49,3.5-4.77,8.91-4.68,3.38.08,5.79,1.88,6.93,2.95,2.2,2.07,2.99,4.54,3.26,5.83l-1.91.4Z"/>
</svg>