<?xml version="1.0" encoding="UTF-8"?>
<svg id="Calque_2" data-name="Calque 2" xmlns="http://www.w3.org/2000/svg" viewBox="0 0 86.98 82.14">
  <defs>
    <style>
      .cls-1, .cls-2 {
        fill: #1d1d1b;
      }

      .cls-3 {
        fill: #fff;
      }

      .cls-2, .cls-4 {
        stroke: #1d1d1b;
        stroke-miterlimit: 10;
      }

      .cls-4 {
        fill: none;
      }
    </style>
  </defs>
  <path class="cls-4" d="M85.09,11.06c.04.6-.08,1.21-.41,1.78l-2.26,3.93-30.29,52.59c-1.4,2.43-4.26,3.61-6.96,2.87L4.91,61.18l-2.18-.6c-1.07-.3-1.77-1.15-1.95-2.13-.01-.07-.02-.15-.03-.22-.06-.57.07-1.17.41-1.71L34.13,4.59c1.83-2.87,5.21-4.35,8.56-3.73l39.86,7.38c1.37.26,2.32,1.34,2.51,2.58.01.08.02.16.03.24Z"/>
  <path class="cls-2" d="M86.25,19.95c0,.12.01.42-.08.8-.07.29-.18.58-.34.86l-32.54,56.52c-1.4,2.43-4.26,3.61-6.97,2.87L3.88,69.35c-.97-.28-1.65-1.03-1.88-1.91,0-.01-.01-.02-.01-.03-.07-.24-.1-.49-.1-.74h0c-.06-.46-.24-1.74-.3-2.19-.07-.49-.24-1.79-.31-2.28-.06-.69-.12-1.38-.18-2.07,14.69,4.04,29.38,8.07,44.07,12.11,2.7.74,5.56-.44,6.96-2.87,10.98-18.93,21.95-37.86,32.93-56.79.14.61.27,1.22.41,1.84.14.83.27,1.67.39,2.53.12.85.23,1.7.33,2.52,0,.02,0,.05.01.07.02.11.04.25.05.42Z"/>
  <path class="cls-4" d="M.75,58.23c.01.07.02.15.03.22.36,2.74.74,5.47,1.11,8.21h0c.04.26.07.5.1.75,0,.01.01.02.01.03l.03.24"/>
  <path class="cls-4" d="M85.06,10.82l.03.24c.36,2.8.73,5.6,1.1,8.4,0,.02,0,.05.01.07.01.13.03.25.04.38.01.01.01.03.01.04"/>
  <path class="cls-1" d="M47.01,60.44l-31.68-8.67c-1.31-.36-1.9-1.88-1.17-3.02L38.77,10.08c1.36-2.14,3.89-3.24,6.39-2.78l29.76,5.5c1.57.29,2.38,2.04,1.58,3.42l-24.29,42.08c-1.04,1.81-3.18,2.69-5.2,2.13Z"/>
  <ellipse class="cls-2" cx="27.94" cy="61.41" rx="5.39" ry="4.24"/>
  <path class="cls-3" d="M49.53,22.43l7.11-4.57c.61,1.23,3.43,7.27.92,13.78-2.79,7.23-10.1,9.71-12.22,10.43-2.61.88-4.91,1.1-6.46,1.15-1.04,0-3.26-.12-5.6-1.45-1.95-1.1-3.11-2.54-3.68-3.37,2.41-1.72,4.82-3.44,7.22-5.16,0,0,.23.66.56,1.32.31.63.83,1.08,1.16,1.32,1.43,1.02,3.84,0,5.16-.57,1.56-.67,2.74-1.52,3.57-2.23,1.1-.93,2.86-2.69,4.23-5.57,0,0,1.26-3.19-1.95-5.09Z"/>
  <path class="cls-1" d="M.75,36.58c.51,8.25.51,16.52,0,24.76-.51-8.25-.51-16.52,0-24.76h0Z"/>
  <path class="cls-1" d="M86.25,18.17c.51,8.25.51,16.52,0,24.76-.51-8.25-.51-16.52,0-24.76h0Z"/>
</svg>