<?xml version="1.0" encoding="UTF-8"?>
<svg id="Calque_2" data-name="Calque 2" xmlns="http://www.w3.org/2000/svg" viewBox="0 0 112.82 93.25">
  <defs>
    <style>
      .cls-1 {
        fill: #020304;
      }

      .cls-1, .cls-2, .cls-3 {
        stroke-miterlimit: 10;
      }

      .cls-1, .cls-3 {
        stroke: #020304;
      }

      .cls-2 {
        fill: #fff;
        stroke: #1d1d1b;
      }

      .cls-3 {
        fill: none;
      }
    </style>
  </defs>
  <path class="cls-1" d="M90.04,34.12l21.55,13.42v-13.82c0-1.96-.99-3.81-2.66-4.98l-19.73-13.74-3.51-2.45-.24-.17h-11"/>
  <polyline class="cls-1" points="90.23 56.67 111.78 69.71 111.78 50.12 90.23 36.84"/>
  <path class="cls-1" d="M90.04,59.01l21.72,12.99c.06,5.22-.06,10.29,0,15.51.02,1.47-1.65,2.4-2.96,1.64-7.78-4.47-15.57-8.94-23.35-13.42v-.25"/>
  <path class="cls-1" d="M107.7,92.25l-61.72-.63c-1.48-.02-2.93-.42-4.21-1.18l-19.06-11.3c-.56-.33-.33-1.19.33-1.19h62.72c.12,0,.25.03.35.1l21.92,12.99c.57.34.33,1.21-.34,1.21Z"/>
  <rect class="cls-2" x="19.87" y="12.38" width="70.17" height="67.41" rx="5.73" ry="5.73"/>
  <line class="cls-1" x1="20.33" y1="34.85" x2="89.58" y2="34.85"/>
  <line class="cls-1" x1="20.33" y1="57.78" x2="89.58" y2="57.78"/>
  <line class="cls-1" x1="25.27" y1="21.25" x2="25.27" y2="26.75"/>
  <line class="cls-1" x1="46.68" y1="21.25" x2="46.68" y2="26.75"/>
  <line class="cls-1" x1="39.27" y1="21.25" x2="39.27" y2="26.75"/>
  <line class="cls-1" x1="32.27" y1="21.25" x2="32.27" y2="26.75"/>
  <line class="cls-1" x1="56.76" y1="24" x2="66.82" y2="24"/>
  <circle class="cls-3" cx="78.01" cy="23.72" r="3.03"/>
  <line class="cls-1" x1="25.12" y1="43.85" x2="25.12" y2="49.35"/>
  <line class="cls-1" x1="46.54" y1="43.85" x2="46.54" y2="49.35"/>
  <line class="cls-1" x1="39.12" y1="43.85" x2="39.12" y2="49.35"/>
  <line class="cls-1" x1="32.12" y1="43.85" x2="32.12" y2="49.35"/>
  <line class="cls-1" x1="56.61" y1="46.6" x2="66.67" y2="46.6"/>
  <circle class="cls-3" cx="77.86" cy="46.32" r="3.03"/>
  <line class="cls-1" x1="25.12" y1="65.55" x2="25.12" y2="71.06"/>
  <line class="cls-1" x1="46.54" y1="65.55" x2="46.54" y2="71.06"/>
  <line class="cls-1" x1="39.12" y1="65.55" x2="39.12" y2="71.06"/>
  <line class="cls-1" x1="32.12" y1="65.55" x2="32.12" y2="71.06"/>
  <line class="cls-1" x1="56.61" y1="68.3" x2="66.67" y2="68.3"/>
  <circle class="cls-3" cx="77.86" cy="68.03" r="3.03"/>
  <path d="M19.87,25.29c-.62-8.31-.63-16.63,0-24.94.63,8.31.62,16.63,0,24.94h0Z"/>
  <g>
    <line x1=".48" y1="12.32" x2="56.61" y2="12.38"/>
    <path d="M.48,12.32c18.71-.55,37.42-.54,56.13.06-18.71.56-37.42.53-56.13-.06H.48Z"/>
  </g>
</svg>